<?xml version="1.0" encoding="utf-8"?>
<!-- Generator: Adobe Illustrator 27.5.0, SVG Export Plug-In . SVG Version: 6.00 Build 0)  -->
<svg version="1.1" xmlns="http://www.w3.org/2000/svg" xmlns:xlink="http://www.w3.org/1999/xlink" x="0px" y="0px"
	 viewBox="0 0 500 500" style="enable-background:new 0 0 500 500;" xml:space="preserve">
<g id="BACKGROUND">
	<rect style="fill:#FFFFFF;" width="500" height="500"/>
	<g>
		<path style="opacity:0.5;fill:#D9F3F9;" d="M376.598,115.397c21.719,23.668,11.273,290.846-10.452,298.254
			c-21.725,7.407-258.44-8.212-268.965-26.944c-10.525-18.732-18.624-292.433,4.181-314.599
			C124.166,49.941,336.874,72.107,376.598,115.397z"/>
		<ellipse style="opacity:0.5;fill:#D9F3F9;" cx="233.226" cy="449.886" rx="110.596" ry="16.323"/>
	</g>
</g>
<g id="OBJECTS">
	<g>
		<g>
			<g>
				<path style="fill:#002142;" d="M243.995,432.656v14.563c0,0,37.398,4.369,52.602,1.922c0,0-2.155-6.408-23.709-16.485H243.995z"
					/>
			</g>
			<g>
				<path style="fill:#FFFFFF;" d="M243.995,447.22v-4.513c19.569,3.142,40.95,2.617,49.138,2.251
					c2.953,2.684,3.464,4.184,3.464,4.184C281.393,451.589,243.995,447.22,243.995,447.22z"/>
			</g>
			<g>
				<g>
					<g>
						<path style="fill:#FFFFFF;" d="M269.936,436.715c2.921,0.541,5.913,0.405,8.643-0.849c0.435-0.2,0.056-0.862-0.379-0.648
							c-2.61,1.284-5.413,1.248-8.25,1.389C269.892,436.61,269.872,436.703,269.936,436.715L269.936,436.715z"/>
					</g>
				</g>
				<g>
					<g>
						<path style="fill:#FFFFFF;" d="M269.201,438.804c3.992,0.64,8.632,1.145,11.988-1.607c0.297-0.243-0.081-0.67-0.393-0.509
							c-3.74,1.928-7.438,2.12-11.578,1.993C269.148,438.679,269.13,438.793,269.201,438.804L269.201,438.804z"/>
					</g>
				</g>
			</g>
			<g>
				<g>
					<g>
						<path style="fill:#002142;" d="M243.495,432.656c0,4.854,0,9.709,0,14.563c0,0.293,0.231,0.469,0.5,0.5
							c6.946,0.809,13.923,1.417,20.899,1.899c10.467,0.724,21.411,1.621,31.836,0.005c0.255-0.04,0.431-0.382,0.349-0.615
							c-0.448-1.283-1.575-2.419-2.498-3.36c-3.665-3.736-8.319-6.551-12.858-9.072c-1.833-1.018-3.696-1.982-5.577-2.909
							c-1.024-0.505-2.229-1.323-3.358-1.511c-1.079-0.18-2.341,0-3.432,0c-4.871,0-9.742,0-14.613,0c-3.583,0-7.165,0-10.747,0
							c-0.643,0-0.645,1,0,1c7.494,0,14.989,0,22.483,0c1.676,0,3.351,0,5.027,0c1.906,0,3.19,0.898,4.946,1.777
							c5.602,2.805,11.305,5.917,16.02,10.098c1.234,1.094,3.151,2.835,3.643,4.243c0.116-0.205,0.233-0.41,0.349-0.615
							c-11.368,1.762-23.405,0.594-34.806-0.277c-4.676-0.357-9.347-0.78-14.011-1.266c-0.786-0.082-2.536-0.626-3.291-0.356
							c-0.719,0.257,0.316-0.252,0.138,0.371c0.148-0.516,0-1.292,0-1.827c0-4.216,0-8.432,0-12.648
							C244.495,432.013,243.495,432.012,243.495,432.656z"/>
					</g>
				</g>
				<g>
					<g>
						<path style="fill:#002142;" d="M244.495,447.22c0-1.504,0-3.009,0-4.513c-0.211,0.161-0.422,0.322-0.633,0.482
							c10.633,1.674,21.398,2.372,32.155,2.519c4.152,0.057,8.304,0.029,12.455-0.084c1.211-0.033,3.112-0.484,4.274-0.149
							c1.22,0.351,2.93,2.64,3.369,3.8c0.116-0.205,0.233-0.41,0.349-0.615c-10.518,1.63-21.61,0.663-32.168-0.082
							c-6.776-0.478-13.553-1.072-20.301-1.858c-0.638-0.074-0.633,0.926,0,1c6.947,0.809,13.923,1.417,20.899,1.899
							c10.467,0.724,21.411,1.621,31.836,0.005c0.251-0.039,0.437-0.384,0.349-0.615c-0.298-0.788-0.85-1.484-1.382-2.127
							c-1.255-1.516-1.881-2.448-3.781-2.373c-4.041,0.161-8.086,0.232-12.13,0.227c-11.919-0.014-23.876-0.656-35.659-2.511
							c-0.315-0.05-0.633,0.128-0.633,0.482c0,1.504,0,3.009,0,4.513C243.495,447.863,244.495,447.864,244.495,447.22z"/>
					</g>
				</g>
			</g>
		</g>
		<g>
			<g>
				<path style="fill:#002142;" d="M216.487,432.656v14.563c0,0-37.398,4.369-52.602,1.922c0,0,2.155-6.408,23.709-16.485H216.487z"
					/>
			</g>
			<g>
				<path style="fill:#FFFFFF;" d="M216.487,447.22v-4.513c-19.569,3.142-40.95,2.617-49.138,2.251
					c-2.953,2.684-3.464,4.184-3.464,4.184C179.089,451.589,216.487,447.22,216.487,447.22z"/>
			</g>
			<g>
				<g>
					<g>
						<path style="fill:#FFFFFF;" d="M190.531,436.607c-2.841-0.142-5.636-0.103-8.25-1.389c-0.434-0.214-0.814,0.448-0.378,0.648
							c2.73,1.255,5.722,1.39,8.643,0.849C190.609,436.703,190.59,436.61,190.531,436.607L190.531,436.607z"/>
					</g>
				</g>
				<g>
					<g>
						<path style="fill:#FFFFFF;" d="M191.265,438.681c-4.153,0.127-7.83-0.061-11.578-1.993c-0.308-0.159-0.692,0.263-0.393,0.509
							c3.356,2.752,7.996,2.247,11.988,1.607C191.351,438.793,191.334,438.679,191.265,438.681L191.265,438.681z"/>
					</g>
				</g>
			</g>
			<g>
				<g>
					<g>
						<path style="fill:#002142;" d="M215.987,432.656c0,3.693,0,7.385,0,11.078c0,0.854-0.099,1.773,0,2.621
							c0.142,1.209-0.203,0.33,0.444,0.37c-0.769-0.047-1.651,0.185-2.415,0.267c-10.427,1.115-20.903,1.977-31.386,2.293
							c-6.174,0.186-12.488,0.323-18.611-0.626c0.116,0.205,0.233,0.41,0.349,0.615c0.357-1.023,1.752-2.451,2.662-3.336
							c4.021-3.909,9.054-6.82,13.968-9.44c2.146-1.144,4.796-3.086,7.205-3.342c1.362-0.145,2.821,0,4.19,0
							c4.768,0,9.536,0,14.304,0c3.263,0,6.526,0,9.789,0c0.643,0,0.645-1,0-1c-7.968,0-15.935,0-23.903,0
							c-1.456,0-3.01-0.153-4.459,0c-2.259,0.238-4.529,1.857-6.535,2.901c-5.2,2.705-10.477,5.721-14.8,9.733
							c-1.226,1.138-2.811,2.575-3.386,4.219c-0.082,0.234,0.094,0.576,0.349,0.615c10.426,1.616,21.369,0.719,31.836-0.005
							c6.976-0.483,13.952-1.09,20.898-1.899c0.269-0.031,0.5-0.204,0.5-0.5c0-4.854,0-9.709,0-14.563
							C216.987,432.013,215.987,432.012,215.987,432.656z"/>
					</g>
				</g>
				<g>
					<g>
						<path style="fill:#002142;" d="M216.987,447.22c0-1.504,0-3.009,0-4.513c0-0.354-0.318-0.532-0.633-0.482
							c-11.783,1.856-23.74,2.497-35.658,2.511c-3.971,0.005-7.942-0.064-11.909-0.218c-1.967-0.077-2.437,0.542-3.79,2.118
							c-0.61,0.711-1.258,1.486-1.594,2.373c-0.088,0.233,0.099,0.576,0.349,0.615c10.426,1.616,21.369,0.719,31.836-0.005
							c6.976-0.483,13.952-1.09,20.898-1.899c0.632-0.074,0.639-1.074,0-1c-6.748,0.786-13.525,1.379-20.301,1.858
							c-10.557,0.745-21.649,1.713-32.168,0.082c0.116,0.205,0.233,0.41,0.349,0.615c0.438-1.158,1.919-3.033,3.008-3.559
							c1.14-0.551,3.074-0.136,4.365-0.1c4.24,0.12,8.483,0.15,12.725,0.092c10.757-0.147,21.522-0.845,32.155-2.519
							c-0.211-0.161-0.422-0.321-0.633-0.482c0,1.504,0,3.009,0,4.513C215.987,447.863,216.987,447.864,216.987,447.22z"/>
					</g>
				</g>
			</g>
		</g>
		<g>
			<g>
				<g>
					<polygon style="fill:#0B5C78;" points="273.107,330.482 206.853,330.482 185.03,432.656 217.49,432.656 236.758,376.967 
						241.911,432.656 275.088,432.656 					"/>
				</g>
				<g style="opacity:0.3;">
					<g>
						<path style="fill:#FFFFFF;" d="M189.034,425.449c1.6-6.145,3.117-12.311,4.611-18.483c1.406-5.811,3.497-11.834,4.176-17.771
							c0.054-0.474-0.629-0.488-0.775-0.105c-1.111,2.914-1.614,6.143-2.335,9.175c-0.704,2.961-1.404,5.923-2.105,8.885
							c-1.428,6.035-2.832,12.076-4.205,18.124C188.308,425.685,188.927,425.86,189.034,425.449L189.034,425.449z"/>
					</g>
				</g>
				<path style="opacity:0.3;fill:#0B5C78;" d="M206.853,330.482l-11.805,55.271c13.741,1.833,31.258,0.562,36.872,0.07
					c-8.03,18.561-17.21,39.666-17.802,40.511c-0.825,1.178-19.631,1.351-28.031,1.369l-1.058,4.953h32.46l19.268-55.689
					l5.153,55.689h33.177l-1.977-101.964l-4.544-0.211H206.853z M271.107,428.46c-0.42,0.456-25.703,1.063-26.462,0.911
					c-0.759-0.152-4.404-47.385-4.708-49.056c-0.304-1.671,4.058-22.478,4.058-22.478s-4.691,10.904-10.357,24.012l-1.143-37.833
					h25.641c0,0-4.226,38.577-4.075,39.944c0.152,1.367,17.76,2.28,17.76,2.28S271.527,428.005,271.107,428.46z"/>
				<g>
					<g>
						<g>
							<path style="fill:#094251;" d="M273.107,329.982c-19.323,0-38.646,0-57.97,0c-2.762,0-5.523,0-8.285,0
								c-0.209,0-0.437,0.154-0.482,0.367c-2.458,11.506-4.915,23.013-7.373,34.519c-3.917,18.341-7.835,36.682-11.752,55.022
								c-0.899,4.211-1.799,8.422-2.698,12.633c-0.067,0.315,0.142,0.633,0.482,0.633c10.82,0,21.64,0,32.46,0
								c0.232,0,0.41-0.157,0.482-0.367c5.625-16.257,11.249-32.513,16.874-48.77c0.798-2.307,1.596-4.613,2.394-6.92
								c-0.327-0.044-0.655-0.089-0.982-0.133c1.505,16.259,3.009,32.517,4.514,48.776c0.213,2.305,0.427,4.609,0.64,6.914
								c0.025,0.269,0.209,0.5,0.5,0.5c11.059,0,22.118,0,33.177,0c0.266,0,0.505-0.229,0.5-0.5
								c-0.224-11.543-0.448-23.086-0.671-34.629c-0.355-18.3-0.71-36.599-1.065-54.899c-0.082-4.216-0.163-8.431-0.245-12.647
								c-0.012-0.643-1.012-0.645-1,0c0.2,10.291,0.399,20.583,0.599,30.874c0.341,17.579,0.682,35.157,1.022,52.736
								c0.105,5.417,0.21,10.834,0.315,16.251c0.01,0.504-0.115,1.252,0.034,1.737c0.037,0.121-0.045,0.304,0.008,0.419
								c0.186,0.403,0.136-0.456,0.478-0.343c-0.568-0.187-1.535,0-2.121,0c-1.604,0-3.209,0-4.813,0c-8.109,0-16.217,0-24.326,0
								c-0.339,0-2.246-0.181-1.637,0.247c0.506,0.356,0.184-0.405,0.137-0.921c-0.232-2.509-0.464-5.018-0.697-7.527
								c-1.416-15.297-2.831-30.595-4.247-45.892c-0.034-0.365-0.068-0.73-0.101-1.096c-0.052-0.558-0.792-0.683-0.982-0.133
								c-4.204,12.149-8.407,24.299-12.611,36.448c-2.062,5.959-4.124,11.919-6.186,17.878c-0.148,0.429-0.271,0.879-0.449,1.297
								c-0.028,0.066,0.69-0.244,0.301-0.301c-0.312-0.046-0.662,0-0.977,0c-3.162,0-6.325,0-9.487,0c-7.28,0-14.559,0-21.838,0
								c0.161,0.211,0.321,0.422,0.482,0.633c5.094-23.85,10.188-47.7,15.282-71.551c1.397-6.54,2.794-13.08,4.191-19.62
								c0.475-2.222,0.949-4.444,1.424-6.667c0.237-1.108,0.858-2.608,0.8-3.746c-0.008-0.161,0.072-0.42,0.124-0.579
								c-0.229,0.697-0.695,0.204,0.214,0.355c1.673,0.277,3.634,0,5.326,0c6.966,0,13.932,0,20.898,0c13.112,0,26.225,0,39.337,0
								C273.75,330.982,273.752,329.982,273.107,329.982z"/>
						</g>
					</g>
					<g>
						<g>
							<path style="fill:#094251;" d="M245.242,354.681c-3.057,7.87-6.464,15.637-9.263,23.613c-0.175,0.498,0.62,0.837,0.857,0.361
								c2.009-4.048,3.324-8.578,4.889-12.809c1.357-3.67,2.502-7.405,3.803-11.086C245.592,354.578,245.31,354.506,245.242,354.681
								L245.242,354.681z"/>
						</g>
					</g>
				</g>
			</g>
			<g>
				<g>
					<polygon style="fill:#7A4131;" points="204.592,341.066 272.624,341.066 273.107,330.482 206.853,330.482 					"/>
				</g>
				<g>
					<path style="fill:#FFBC36;" d="M254.716,330.482h-16.207c-1.87,3.778,0,10.584,0,10.584h16.207
						C256.648,337.102,254.716,330.482,254.716,330.482z M251.743,338.39h-10.251c0,0-0.924-3.364,0-5.231h10.251
						C251.743,333.158,252.698,336.43,251.743,338.39z"/>
				</g>
				<path style="opacity:0.4;fill:#7A4131;" d="M273.107,330.482h-13.159l-0.241,9.138h-2.619c0.572-4.384,0.112-7.412-0.345-9.138
					h-3.453c1.045,4.154,0.113,8.758,0.113,8.758H240.34c-0.567-2.682-0.103-6.549,0.254-8.758h-3.672
					c-1.531,3.543-0.492,8.758-0.492,8.758h-4.445c0.05-3.281-0.29-6.748-0.532-8.758h-24.602l-2.26,10.584h68.032L273.107,330.482z
					"/>
				<g>
					<g>
						<g>
							<path style="fill:#422613;" d="M238.991,340.933c-0.487-1.817-0.77-3.722-0.808-5.602c-0.013-0.639-0.003-1.284,0.065-1.92
								c0.021-0.198,0.171-2.326,0.281-2.43c0.115-0.108,0.857,0,1.006,0c3.78,0,7.56,0,11.339,0c1.221,0,2.445-0.025,3.666,0
								c0.404,0.008-0.313-0.357-0.277-0.259c0.08,0.218,0.153,0.492,0.18,0.72c0.153,1.272,0.492,2.501,0.583,3.793
								c0.108,1.524,0.013,3.012-0.341,4.5c-0.263,1.104,0.126,0.688-0.868,0.83c-1.518,0.217-3.229,0-4.76,0
								c-3.516,0-7.032,0-10.549,0c-0.643,0-0.645,1,0,1c5.402,0,10.805,0,16.207,0c0.159,0,0.365-0.092,0.432-0.248
								c1.461-3.405,1.044-7.473,0.05-10.969c-0.06-0.212-0.261-0.367-0.482-0.367c-5.402,0-10.805,0-16.207,0
								c-0.16,0-0.364,0.092-0.432,0.248c-1.474,3.382-0.984,7.486-0.05,10.969C238.193,341.82,239.158,341.556,238.991,340.933z"/>
						</g>
					</g>
					<g>
						<g>
							<path style="fill:#422613;" d="M204.592,341.566c19.879,0,39.758,0,59.637,0c2.798,0,5.597,0,8.395,0
								c0.279,0,0.488-0.229,0.5-0.5c0.161-3.528,0.322-7.056,0.483-10.584c0.012-0.27-0.239-0.5-0.5-0.5
								c-19.323,0-38.646,0-57.97,0c-2.762,0-5.523,0-8.285,0c-0.209,0-0.437,0.154-0.482,0.367
								c-0.753,3.528-1.507,7.056-2.26,10.584c-0.134,0.628,0.83,0.896,0.964,0.266c0.588-2.753,1.176-5.505,1.764-8.257
								c0.1-0.47,0.508-1.424,0.405-1.898c-0.134-0.614,0.627-0.169-0.371-0.062c0.286-0.031,0.636-0.03,0.918,0
								c4.255,0.449,8.807,0,13.081,0c14.055,0,28.109,0,42.163,0c3.307,0,6.71,0.235,10.011,0c-0.142,0.01-0.217-0.661-0.45-0.238
								c-0.168,0.306-0.047,1.034-0.064,1.392c-0.085,1.86-0.17,3.721-0.254,5.581c-0.05,1.091-0.201,2.226-0.151,3.319
								c-0.043-0.954,0.895-0.208-0.173-0.47c-1.348-0.33-3.22,0-4.6,0c-2.527,0-5.055,0-7.582,0c-7.137,0-14.274,0-21.411,0
								c-11.256,0-22.512,0-33.767,0C203.949,340.566,203.948,341.566,204.592,341.566z"/>
						</g>
					</g>
					<g>
						<g>
							<path style="fill:#422613;" d="M241.974,338.257c-0.175-0.664-0.296-1.35-0.353-2.034c-0.058-0.688,0.062-1.292,0.048-1.981
								c-0.003-0.119,0.124-0.744-0.094-0.583c0.463-0.34,2.499,0,3.067,0c1.501,0,3.002,0,4.502,0c0.59,0,1.211,0.05,1.799,0
								c0.325-0.028,0.954,0.169,0.557-0.155c-0.374-0.306,0.091,1.379,0.127,1.786c0.06,0.676-0.074,1.322-0.05,1.987
								c0.003,0.085-0.182,0.81,0.084,0.614c-0.471,0.348-2.492,0-3.067,0c-2.367,0-4.735,0-7.102,0c-0.643,0-0.644,1,0,1
								c3.417,0,6.834,0,10.251,0c0.24,0,0.4-0.159,0.482-0.367c0.687-1.731,0.493-3.731,0-5.497
								c-0.059-0.212-0.262-0.367-0.482-0.367c-3.417,0-6.834,0-10.251,0c-0.24,0-0.399,0.159-0.482,0.367
								c-0.688,1.723-0.464,3.735,0,5.497C241.173,339.144,242.138,338.881,241.974,338.257z"/>
						</g>
					</g>
				</g>
			</g>
			<g>
				<g>
					<path style="fill:#92C8D4;" d="M226.738,330.482h37.514c0,0,0.932-53.692,0.699-63.021c-0.233-9.329-5.462-17.25-5.462-17.25
						s-35.312-2.626-42.318-2.38C217.173,247.831,225.573,308.23,226.738,330.482z"/>
				</g>
				<g>
					<g>
						<g>
							<path style="fill:#0B5C78;" d="M220.224,264.737c3.597-1.222,7.194-2.444,10.791-3.665c1.72-0.584,3.441-1.168,5.16-1.756
								c2.212-0.756,4.413-1.916,6.81-1.374c3.259,0.738,6.524,2.356,9.717,3.383c3.613,1.162,7.258,2.211,10.927,3.179
								c0.667,0.176,0.951-0.857,0.285-1.032c-3.822-1.005-7.619-2.1-11.384-3.303c-1.957-0.625-3.906-1.278-5.844-1.96
								c-1.395-0.491-2.863-1.249-4.343-1.435c-1.582-0.199-3.057,0.571-4.516,1.087c-1.87,0.661-3.741,1.321-5.61,1.985
								c-4.05,1.439-8.101,2.878-12.151,4.318C219.71,264.291,219.86,264.861,220.224,264.737L220.224,264.737z"/>
						</g>
					</g>
					<g>
						<g>
							<path style="fill:#0B5C78;" d="M245.898,330.132c0.131-24.257-1.194-48.549-3.397-72.701c-0.069-0.75-1.25-0.756-1.18,0
								c2.256,24.188,3.331,48.418,3.796,72.701C245.126,330.634,245.895,330.636,245.898,330.132L245.898,330.132z"/>
						</g>
					</g>
					<g>
						<g>
							<path style="fill:#0B5C78;" d="M226.738,330.982c12.505,0,25.01,0,37.514,0c0.274,0,0.495-0.229,0.5-0.5
								c0.281-16.175,0.538-32.351,0.682-48.528c0.08-9,0.802-18.076-2.748-26.579c-0.776-1.858-1.647-5.427-3.908-5.716
								c-3.39-0.433-6.873-0.495-10.281-0.728c-10.359-0.709-20.932-1.913-31.325-1.6c-0.357,0.011-0.527,0.309-0.482,0.633
								c2.936,21.119,5.691,42.281,7.91,63.488c0.662,6.33,1.297,12.673,1.638,19.03c0.034,0.64,1.035,0.644,1,0
								c-0.681-12.695-2.27-25.361-3.783-37.978c-1.48-12.345-3.075-24.676-4.736-36.998c-0.351-2.603-0.703-5.206-1.065-7.807
								c-0.161,0.211-0.321,0.422-0.482,0.633c5.452-0.164,10.963,0.322,16.401,0.641c6.798,0.399,13.592,0.858,20.384,1.339
								c1.715,0.122,3.436,0.299,5.154,0.372c0.716,0.031-0.142-0.453,0.159,0.118c0.653,1.237,1.364,2.425,1.949,3.701
								c2.908,6.337,3.286,12.718,3.266,19.521c-0.04,13.438-0.264,26.876-0.471,40.312c-0.073,4.764-0.15,9.529-0.23,14.293
								c-0.006,0.341-0.154,1.053-0.023,1.374c0.398,0.979-0.676-0.369,0.414-0.02c-1.076-0.345-2.837,0-3.952,0
								c-11.162,0-22.323,0-33.485,0C226.095,329.982,226.094,330.982,226.738,330.982z"/>
						</g>
					</g>
				</g>
				<g style="opacity:0.4;">
					<g>
						<path style="fill:#92C8D4;" d="M264.952,267.461c-0.026-1.023-0.111-2.03-0.244-3.011l-22.797-7.598l-22.447,7.995
							c2.577,19.585,6.505,50.934,7.275,65.635h37.515C264.253,330.482,265.185,276.79,264.952,267.461z M259.323,328.113h-27.768
							c0.282-32.614-5.356-62.592-5.356-62.592l15.713-5.717l17.412,5.717V328.113z"/>
					</g>
				</g>
			</g>
		</g>
		<g>
			<g>
				<path style="fill:#FFFFFF;" d="M257.088,250.211c0,0,3.845,7.921,4.369,11.766c0.524,3.845,1.223,95.068-3.32,118.485
					l20.272,1.007c0,0-3.495-50.463-3.32-52.211c0.175-1.748,1.573-15.728,1.573-15.728s4.893,15.379,20.272,12.932
					c15.379-2.447,25.188-17.476,29.458-27.262c0,0-16.526,0.175-17.4-20.796l-8.913,12.463c0,0-5.592-27.317-9.087-30.113
					C287.495,257.958,274.563,249.804,257.088,250.211z"/>
			</g>
			<path style="fill:#DEDEDE;" d="M308.991,278.404l-2.32,3.244c2.279,18.367,15.806,20.314,15.806,20.314
				s-2.19,10.115-15.854,17.462c-13.665,7.346-19.982,2.057-24.39-2.901c-4.408-4.958-3.863-33.382-3.863-33.382
				s-5.981,44.805-5.261,47.34c0.72,2.536,2.219,47.273,0.705,47.936c0,0-9.653-0.075-10.975-0.663
				c-1.322-0.588,1.175-59.066,1.616-61.27c0.441-2.204,10.432-28.21,9.936-31.345c-0.496-3.135-4.058-9.064-4.058-9.064l6.33,2.417
				c-0.135-9.047-6.33-23.865-6.33-23.865c1.221,0.262,6.219,0.213,10.081,0.13c-4.009-1.7-8.923-3.253-14.524-4.033
				c3.552,7.593,7.622,17.751,8.502,24.708l-7.165-2.097l5.243,11.534c0,0-7.423,20.784-10.787,30.301
				c-0.343,25.858-1.309,53.774-3.544,65.291l20.272,1.007c0,0-3.495-50.464-3.32-52.211c0.175-1.748,1.573-15.728,1.573-15.728
				s4.893,15.379,20.272,12.932c15.379-2.447,25.188-17.476,29.458-27.262C326.39,299.201,309.864,299.375,308.991,278.404z"/>
			<g>
				<g>
					<g>
						<path style="fill:#ABABB8;" d="M260.957,261.977c0.678,5.666,0.305,11.621,0.344,17.312
							c0.082,11.961,0.034,23.923-0.121,35.883c-0.008,0.587,0.8,0.648,0.982,0.133c3.342-9.453,6.715-18.894,10.085-28.337
							c0.202-0.566,0.737-1.467,0.719-2.098c-0.024-0.824-0.845-1.962-1.168-2.672c-1.381-3.038-2.762-6.076-4.143-9.114
							c-0.188,0.245-0.376,0.49-0.565,0.734c2.388,0.699,4.777,1.398,7.165,2.097c0.405,0.118,0.664-0.258,0.615-0.615
							c-0.894-6.566-3.014-12.873-5.949-18.801c-0.595-1.202-1.222-2.387-1.883-3.554c-0.396-0.699-0.893-2.047-1.524-2.564
							c-0.569-0.466-1.418-0.367-2.144-0.436c-2.091-0.199-4.183-0.264-6.283-0.234c-0.4,0.006-0.595,0.415-0.432,0.752
							c1.77,3.662,3.666,7.604,4.318,11.647c0.102,0.634,1.066,0.365,0.964-0.266c-0.664-4.115-2.616-8.154-4.419-11.885
							c-0.144,0.251-0.288,0.502-0.432,0.752c1.661-0.023,3.317,0.008,4.975,0.127c1.51,0.108,2.446,0.006,3.315,1.239
							c1.251,1.774,2.196,3.897,3.129,5.848c2.668,5.584,4.564,11.503,5.4,17.642c0.205-0.205,0.41-0.41,0.615-0.615
							c-2.388-0.699-4.777-1.398-7.165-2.097c-0.454-0.133-0.735,0.359-0.565,0.734c1.294,2.848,2.589,5.696,3.884,8.544
							c0.338,0.743,0.633,1.538,1.025,2.255c0.194,0.354,0.23,0.986,0.279,0.364c-0.064,0.809-0.655,1.835-0.923,2.584
							c-3.295,9.231-6.592,18.462-9.859,27.703c0.327,0.044,0.655,0.089,0.982,0.133c0.155-11.96,0.203-23.922,0.121-35.883
							c-0.039-5.691,0.333-11.646-0.344-17.312C261.881,261.346,260.88,261.339,260.957,261.977z"/>
					</g>
				</g>
				<g>
					<g>
						<path style="fill:#ABABB8;" d="M324.264,303.418c-10.373-0.529-17.289-10.068-19.005-19.475
							c-0.111-0.608-1.036-0.35-0.927,0.255c0.967,5.349,3.02,9.819,6.778,13.781c3.154,3.325,8.408,6.689,13.197,5.761
							C324.497,303.704,324.441,303.427,324.264,303.418L324.264,303.418z"/>
					</g>
				</g>
				<g>
					<g>
						<path style="fill:#ABABB8;" d="M278.289,271.938c-0.434,6.924-0.399,13.88-0.747,20.811
							c-0.349,6.927-1.078,13.852-1.315,20.781c-0.02,0.57,0.805,0.541,0.867,0c0.786-6.877,1.028-13.869,1.356-20.781
							c0.328-6.907,0.728-13.902,0.323-20.811C278.755,271.626,278.309,271.627,278.289,271.938L278.289,271.938z"/>
					</g>
				</g>
				<g>
					<g>
						<path style="fill:#ABABB8;" d="M275.165,331.21c-2.473,0-4.945,0-7.418,0c-0.292,0-0.471,0.231-0.5,0.5
							c-0.233,2.142-0.466,4.283-0.699,6.425c-0.029,0.269,0.253,0.5,0.5,0.5c2.706,0,5.411,0,8.117,0c0.643,0,0.645-1,0-1
							c-2.706,0-5.411,0-8.117,0c0.167,0.167,0.333,0.333,0.5,0.5c0.233-2.142,0.466-4.283,0.699-6.425
							c-0.167,0.167-0.333,0.333-0.5,0.5c2.473,0,4.945,0,7.418,0C275.809,332.21,275.81,331.21,275.165,331.21L275.165,331.21z"/>
					</g>
				</g>
				<g>
					<g>
						<path style="fill:#ABABB8;" d="M256.656,250.464c1.748,3.617,3.864,7.703,4.324,11.736c0.18,1.577,0.133,3.208,0.167,4.792
							c0.158,7.374,0.185,14.751,0.192,22.127c0.02,21.464-0.188,42.955-1.236,64.397c-0.436,8.916-0.767,18.025-2.448,26.813
							c-0.063,0.328,0.139,0.616,0.482,0.633c6.757,0.336,13.515,0.671,20.272,1.007c0.257,0.013,0.518-0.24,0.5-0.5
							c-0.587-8.483-1.162-16.966-1.726-25.45c-0.395-5.954-0.787-11.909-1.15-17.866c-0.178-2.928-0.569-5.957-0.445-8.895
							c0.22-5.237,1.051-10.512,1.573-15.728c-0.327,0.044-0.655,0.089-0.982,0.133c1.753,5.419,6.094,10.463,11.45,12.484
							c10.902,4.113,22.752-3.481,29.66-11.445c3.943-4.546,7.107-9.752,9.534-15.25c0.147-0.334-0.02-0.754-0.432-0.752
							c-2.685,0.014-5.513-0.954-7.806-2.281c-6.42-3.715-8.732-10.986-9.094-18.015c-0.027-0.516-0.645-0.653-0.932-0.252
							c-2.971,4.154-5.942,8.309-8.913,12.463c0.305,0.04,0.609,0.08,0.914,0.119c-1.484-7.234-3.154-14.477-5.322-21.538
							c-0.852-2.775-1.686-6.713-3.894-8.796c-2.875-2.713-7.11-4.569-10.683-6.087c-7.46-3.169-15.472-4.723-23.573-4.602
							c-0.643,0.01-0.645,1.01,0,1c11.212-0.168,24.195,2.883,33.144,10.083c2.389,1.922,3.184,5.875,4.041,8.668
							c1.337,4.354,2.439,8.781,3.478,13.215c0.648,2.767,1.273,5.54,1.844,8.324c0.094,0.46,0.685,0.439,0.914,0.119
							c2.971-4.154,5.942-8.309,8.913-12.463c-0.311-0.084-0.621-0.168-0.932-0.252c0.367,7.141,2.654,14.464,8.961,18.497
							c2.574,1.646,5.845,2.816,8.939,2.799c-0.144-0.251-0.288-0.502-0.432-0.752c-5.29,11.983-14.833,24.409-28.453,26.911
							c-9.068,1.666-17.542-3.743-20.363-12.461c-0.18-0.558-0.927-0.42-0.982,0.133c-0.537,5.367-1.534,10.878-1.574,16.27
							c-0.042,5.56,0.618,11.202,0.975,16.746c0.512,7.937,1.045,15.872,1.585,23.807c0.192,2.829,0.386,5.659,0.581,8.488
							c0.04,0.582-0.086,1.579,0.146,2.118c0.056,0.131-0.01,0.315,0.031,0.452c-0.307-1.014,0.849-0.021,0.118-0.461
							c-0.849-0.512-3.314-0.165-4.289-0.213c-2.235-0.111-4.47-0.222-6.704-0.333c-2.964-0.147-5.928-0.295-8.892-0.442
							c0.161,0.211,0.322,0.422,0.482,0.633c1.431-7.484,1.828-15.197,2.258-22.789c0.616-10.883,0.927-21.784,1.141-32.681
							c0.373-18.977,0.509-37.979,0.152-56.958c-0.037-1.953,0.009-3.948-0.184-5.894c-0.421-4.231-2.635-8.524-4.466-12.314
							C257.24,249.38,256.377,249.886,256.656,250.464z"/>
					</g>
				</g>
			</g>
		</g>
		<g>
			<g>
				<path style="fill:#FFFFFF;" d="M229.126,308.385c-0.768-15.095-8.954-60.554-8.954-60.554s-26.863-0.545-36.585,6.34
					c-9.722,6.884-35.562,47.051-36.585,56.773c-1.023,9.722,7.727,14.071,17.934,18.42c10.208,4.349,25.047,10.745,29.652,13.559
					c0,0-4.093,32.747-5.884,37.864c0,0,33.515,1.535,41.957,0C230.661,380.787,229.894,323.48,229.126,308.385z M181.53,309.622
					l11.011-18.755l2.558,23.778L181.53,309.622z"/>
			</g>
			<path style="fill:#DEDEDE;" d="M229.451,317.081l-19.563-34.304l6.637-11.095l-10.996,1.981
				c0.636-10.412,6.561-21.709,8.88-25.772c-0.702,0.021-1.449,0.048-2.24,0.083c-3.151,5.806-9.464,18.594-10.213,29.094
				l9.359-1.78l-4.463,8.324c0,0,17.73,30.021,18.816,33.469s1.932,56.954,1.086,58.857c-0.846,1.903-34.261,4.112-34.05,2.479
				c0.212-1.633,3.786-33.568,3.786-33.568s6.827-3.554,7.81-5.287c0,0,18.188-1.624,18.185-1.907c-0.003-0.284,0-7.173,0-7.173
				s-1.777,3.768-2.415,4.122c-0.638,0.355-15.77,1.774-15.77,1.774s6.547-6.456,4.631-18.162c0,0-12.608-4.54-12.441-5.605
				c0.167-1.064-2.103-21.638-1.89-22.561s2.293-7.196,2.293-7.196s-16.482,24.507-17.12,24.72
				c-0.639,0.213-7.101-1.221-7.101-1.221s6.571,2.479,8.858,3.269l11.011-18.755l2.549,23.692c3.744,1.419,7.29,2.828,9.211,3.756
				c0,0-1.33,10.351-3.66,14.812c-2.33,4.461-5.359,6.558-6.058,6.791c-0.699,0.233-10.835-7.223-16.311-9.437
				c-5.476-2.214-18.641-6.99-24-10.486c-3.465-2.26-5.521-7.293-6.543-11.988c-0.385,1.148-0.644,2.15-0.727,2.935
				c-1.023,9.722,7.727,14.071,17.934,18.42c10.208,4.349,25.047,10.745,29.652,13.559c0,0-4.093,32.747-5.884,37.864
				c0,0,33.515,1.535,41.957,0C230.661,380.787,230.096,338.595,229.451,317.081C229.451,317.081,229.451,317.081,229.451,317.081z"
				/>
			<g>
				<g>
					<path style="fill:#BF8B67;" d="M206.853,323.098c0,0-0.016,4.903-2.552,10.03l10.738-1.808
						C215.039,331.32,212.833,323.296,206.853,323.098z"/>
				</g>
				<g>
					<g>
						<path style="fill:#63331E;" d="M206.353,323.098c-0.04,3.359-1.064,6.769-2.484,9.778c-0.195,0.413,0.124,0.809,0.565,0.734
							c3.579-0.603,7.159-1.205,10.738-1.807c0.266-0.045,0.417-0.376,0.349-0.615c-1.155-4.094-4.128-8.267-8.669-8.59
							c-0.642-0.046-0.639,0.954,0,1c4.063,0.289,6.682,4.232,7.704,7.855c0.116-0.205,0.233-0.41,0.349-0.615
							c-3.579,0.602-7.159,1.205-10.738,1.807c0.188,0.245,0.376,0.49,0.565,0.734c1.501-3.182,2.578-6.734,2.62-10.282
							C207.36,322.454,206.36,322.454,206.353,323.098z"/>
					</g>
				</g>
			</g>
			<g>
				<g>
					<g>
						<path style="fill:#ABABB8;" d="M170.361,304.979c2.472,2.238,5.241,3.425,8.394,4.414c3.596,1.128,7.143,2.361,10.684,3.655
							c3.903,1.426,7.953,2.63,11.726,4.378c1.36,0.63,3.691,1.359,4.733,2.411c0.261,0.263,0.091-0.403,0.325,0.275
							c0.322,0.933,0.022,2.487-0.051,3.444c-0.153,2.01-0.519,4.005-1.104,5.935c-1.75,5.773-5.489,10.086-10.776,12.926
							c-0.671,0.36-0.081,1.336,0.591,1.012c8.585-4.137,12.956-13.647,12.55-22.91c-0.056-1.273-0.26-1.353-1.553-2.045
							c-3.33-1.781-6.69-3.186-10.253-4.431c-4.256-1.487-8.471-3.099-12.754-4.51c-4.117-1.357-8.693-2.076-12.071-4.996
							C170.501,304.276,170.061,304.707,170.361,304.979L170.361,304.979z"/>
					</g>
				</g>
				<g>
					<g>
						<path style="fill:#ABABB8;" d="M197.298,281.954c-2.805,4.204-5.486,8.458-7.579,13.074c-0.159,0.35,0.339,0.66,0.526,0.308
							c2.359-4.449,4.637-8.957,7.309-13.232C197.656,281.941,197.403,281.796,197.298,281.954L197.298,281.954z"/>
					</g>
				</g>
				<g>
					<g>
						<path style="fill:#ABABB8;" d="M191.189,341.229c7.108-5.75,11.992-14.664,11.064-23.961c-0.057-0.57-0.958-0.575-0.898,0
							c0.987,9.547-4.06,17.155-10.492,23.635C190.65,341.118,190.964,341.412,191.189,341.229L191.189,341.229z"/>
					</g>
				</g>
				<g>
					<g>
						<path style="fill:#ABABB8;" d="M229.626,308.385c-0.48-8.95-1.958-17.885-3.312-26.734
							c-1.431-9.354-2.988-18.689-4.612-28.011c-0.345-1.981-0.692-3.963-1.048-5.942c-0.039-0.216-0.277-0.363-0.482-0.367
							c-4.88-0.094-9.789,0.144-14.647,0.588c-7.097,0.649-15.288,1.474-21.467,5.34c-4.473,2.799-7.888,7.575-11.054,11.683
							c-4.898,6.356-9.402,13.025-13.643,19.834c-3.85,6.181-7.614,12.517-10.567,19.185c-2.288,5.165-3.684,10.636-0.079,15.674
							c2.344,3.275,5.98,5.439,9.509,7.218c4.507,2.272,9.236,4.115,13.868,6.116c4.815,2.08,9.623,4.181,14.377,6.397
							c1.783,0.831,3.562,1.675,5.311,2.578c0.616,0.318,1.393,0.611,1.943,1.047c0.71,0.564,0.189-0.356,0.337,0.169
							c0.16,0.571-0.22,1.73-0.294,2.305c-0.173,1.347-0.349,2.694-0.526,4.041c-0.523,3.966-1.063,7.931-1.63,11.891
							c-0.902,6.299-1.347,13.192-3.387,19.257c-0.109,0.322,0.175,0.619,0.482,0.633c6.028,0.275,12.061,0.461,18.093,0.581
							c7.864,0.156,16.205,0.75,23.997-0.599c0.211-0.036,0.37-0.279,0.367-0.482c-0.256-19.097-0.552-38.197-1.035-57.29
							C229.999,318.46,229.878,313.419,229.626,308.385c-0.032-0.64-1.032-0.644-1,0c0.873,17.459,0.951,34.978,1.235,52.454
							c0.103,6.312,0.199,12.624,0.286,18.936c0.007,0.491-0.154,0.973,0.068,0.791c0.188-0.154-1.631-0.003-2.003,0.031
							c-0.925,0.084-1.852,0.14-2.78,0.187c-4.598,0.23-9.211,0.211-13.813,0.161c-7.64-0.084-15.283-0.308-22.916-0.657
							c0.161,0.211,0.321,0.422,0.482,0.633c0.87-2.587,1.225-5.394,1.675-8.075c0.728-4.336,1.362-8.687,1.976-13.04
							c0.793-5.621,1.546-11.249,2.251-16.882c0.021-0.17-0.111-0.35-0.248-0.432c-8.244-4.946-17.584-8.397-26.398-12.17
							c-8.122-3.477-22.047-7.84-20.968-19.043c0.542-5.625,4.262-11.358,6.94-16.171c4.169-7.493,8.785-14.751,13.692-21.781
							c4.044-5.793,8.249-11.736,13.343-16.67c5.404-5.234,13.424-6.496,20.619-7.371c3.805-0.463,7.634-0.729,11.464-0.866
							c1.974-0.071,4.431,0.319,6.364-0.092c0.318-0.068-0.031-0.588-0.146-0.027c-0.098,0.478,0.232,1.302,0.318,1.786
							c0.434,2.454,0.862,4.909,1.284,7.364c1.518,8.827,2.977,17.664,4.311,26.52c1.218,8.086,2.526,16.239,2.964,24.414
							C228.661,309.025,229.661,309.029,229.626,308.385z"/>
						<path style="fill:#ABABB8;" d="M229.951,317.081c-0.641-21.029-4.496-41.831-8.089-62.522
							c-0.397-2.288-0.797-4.576-1.208-6.861c-0.039-0.216-0.277-0.363-0.482-0.367c-0.832-0.014-1.664-0.012-2.497-0.005
							c-0.988,0.008-2.776-0.353-3.62,0.211c-0.541,0.362-1.068,1.884-1.372,2.46c-0.663,1.256-1.296,2.528-1.898,3.814
							c-2.928,6.26-5.245,12.919-5.757,19.852c-0.026,0.351,0.339,0.535,0.633,0.482c3.665-0.66,7.331-1.321,10.996-1.981
							c-0.188-0.245-0.377-0.49-0.565-0.734c-2.213,3.699-4.425,7.397-6.637,11.095c-0.092,0.154-0.088,0.35,0,0.505
							c6.521,11.435,13.042,22.869,19.563,34.304c0.319,0.559,1.183,0.056,0.864-0.505c-3.384-5.934-6.768-11.867-10.151-17.8
							c-2.283-4.002-4.565-8.005-6.847-12.007c-0.669-1.174-1.338-2.347-2.008-3.52c-0.148-0.259-0.374-0.548-0.474-0.831
							c-0.1-0.285-0.272,0.577,0.112,0.033c2.393-3.384,4.313-7.21,6.442-10.769c0.24-0.402-0.155-0.808-0.565-0.734
							c-3.665,0.66-7.331,1.321-10.996,1.981c0.211,0.161,0.422,0.321,0.633,0.482c0.395-5.351,1.925-10.534,3.934-15.489
							c0.848-2.092,1.791-4.146,2.806-6.162c0.406-0.806,0.824-1.606,1.255-2.399c0.594-1.094,0.863-1.205,2.156-1.266
							c1.033-0.048,2.108,0.073,3.137-0.025c0.828-0.079,0.671,0.262,0.374-0.352c0.099,0.205,0.129,0.592,0.145,0.809
							c0.115,1.583,0.568,3.212,0.841,4.774c2.325,13.329,4.565,26.683,6.375,40.093c1.055,7.818,1.659,15.547,1.899,23.434
							C228.97,317.723,229.97,317.726,229.951,317.081z"/>
						<path style="fill:#ABABB8;" d="M181.962,309.875c3.67-6.252,7.341-12.503,11.011-18.755c-0.311-0.084-0.621-0.168-0.932-0.252
							c0.853,7.926,1.706,15.852,2.558,23.778c0.211-0.161,0.422-0.321,0.633-0.482c-4.523-1.674-9.046-3.349-13.569-5.023
							c-0.604-0.224-0.865,0.742-0.266,0.964c4.523,1.674,9.046,3.349,13.569,5.023c0.285,0.105,0.666-0.173,0.633-0.482
							c-0.853-7.926-1.706-15.852-2.558-23.778c-0.05-0.467-0.661-0.714-0.932-0.252c-3.67,6.252-7.341,12.503-11.011,18.755
							C180.772,309.926,181.636,310.43,181.962,309.875z"/>
					</g>
				</g>
				<g>
					<g>
						<path style="fill:#ABABB8;" d="M204.434,333.6c4.147-0.645,8.297-1.276,12.452-1.875c1.221-0.176,2.443-0.351,3.667-0.511
							c0.457-0.06,0.956-0.069,1.404-0.175c0.492-0.117,0.017-0.844,0.03-0.13c0.018,0.978,0,1.957,0,2.935
							c0,0.492-0.129,1.202,0,1.677c0.274,1.003-0.506,0.285,0.484,0.229c-6.842,0.385-13.689,1.257-20.514,1.884
							c-0.636,0.058-0.642,1.059,0,1c6.843-0.629,13.686-1.257,20.53-1.886c0.269-0.025,0.5-0.209,0.5-0.5c0-1.922,0-3.845,0-5.767
							c0-0.249-0.23-0.528-0.5-0.5c-6.129,0.642-12.23,1.707-18.318,2.654C203.534,332.735,203.803,333.698,204.434,333.6
							L204.434,333.6z"/>
					</g>
				</g>
			</g>
		</g>
		<g>
			<g>
				<g>
					<path style="fill:#BF8B67;" d="M218.637,232.401c0,0,0.768,12.952,1.535,15.43c0.768,2.479,19.188,10.154,24.561,9.386
						c5.373-0.768,8.954-4.802,8.699-7.006c-0.256-2.204,0.013-12.182,0.013-12.182L218.637,232.401z"/>
				</g>
				<g style="opacity:0.3;">
					<path style="fill:#BF8B67;" d="M218.637,232.401c0,0,0.768,12.952,1.535,15.43c0.768,2.479,19.188,10.154,24.561,9.386
						c5.373-0.768,8.954-4.802,8.699-7.006c-0.256-2.204,0.013-12.182,0.013-12.182L218.637,232.401z"/>
				</g>
				<g>
					<g>
						<path style="fill:#63331E;" d="M218.137,232.401c0.259,4.336,0.53,8.694,1.098,13.002c0.177,1.34,0.214,2.615,1.219,3.585
							c1.359,1.311,3.307,2.167,4.98,2.981c4.94,2.402,10.324,4.555,15.752,5.513c4.522,0.799,10.51-0.973,12.419-5.595
							c0.818-1.98,0.206-4.819,0.22-6.916c0.015-2.314,0.057-4.628,0.119-6.942c0.005-0.199-0.158-0.448-0.367-0.482
							c-11.602-1.876-23.205-3.752-34.807-5.628c-0.63-0.102-0.9,0.862-0.266,0.964c11.253,1.82,22.507,3.639,33.76,5.459
							c0.262,0.042,0.556,0.132,0.822,0.133c0.464,0.002-0.088,0.276-0.143-0.413c0.123,1.53-0.072,3.148-0.094,4.682
							c-0.052,3.639,1.073,8.217-1.796,10.957c-3.894,3.719-8.493,3.296-13.199,1.964c-4.395-1.244-8.733-2.924-12.802-5
							c-1.263-0.644-3.287-1.432-4.147-2.626c-0.878-1.22-0.77-3.353-0.919-4.787c-0.375-3.607-0.633-7.23-0.849-10.85
							C219.099,231.762,218.098,231.757,218.137,232.401z"/>
					</g>
				</g>
				<g>
					<path style="fill:#BF8B67;" d="M182.564,210.655c4.349,14.839,22.258,20.979,39.143,27.631
						c16.885,6.652,57.052,9.251,68.821,3.09c11.769-6.16,35.05-32.256,35.817-47.095c0.768-14.839-8.443-33.771-7.163-48.098
						c1.279-14.327,8.954-37.097-7.419-53.982c-16.374-16.885-98.242-36.329-126.128,0
						C157.747,128.531,178.214,195.816,182.564,210.655z"/>
				</g>
				<path style="opacity:0.3;fill:#BF8B67;" d="M326.345,194.281c-0.768,14.839-24.049,40.934-35.817,47.095
					c-11.769,6.16-51.935,3.561-68.821-3.09c-16.885-6.652-34.794-12.792-39.143-27.631c-0.997-3.403-2.843-9.57-4.758-17.485
					c0.663-3.195,1.166-5.128,1.166-5.128s4.893,22.049,7.689,26.381c2.796,4.331,31.922,19.353,58.847,24.836
					c26.925,5.483,41.869,0.265,51.045-6.858c8.205-6.369,24.117-26.97,29.827-39.257
					C326.373,193.525,326.364,193.906,326.345,194.281z M307.359,99.919c4.991,1.248,9.515,4.12,12.999,6.98
					c-1.513-5.14-4.171-10.134-8.596-14.698c-16.084-16.586-95.357-35.636-124.592-1.874c-9.693,28.95-8.677,63.444-0.002,88.092
					c0,0,1.822-42.383,4.851-58.927c3.029-16.544,18.408-30.524,32.854-28.893c14.447,1.631,40.47,21.437,54.138,18.641
					C292.68,106.444,296.175,97.123,307.359,99.919z"/>
				<g>
					<g>
						<path style="fill:#63331E;" d="M182.081,210.788c3.075,9.961,11.925,15.933,20.882,20.257
							c9.026,4.358,18.669,8.413,28.472,10.626c9.682,2.186,19.668,3.247,29.578,3.595c8.497,0.298,17.588,0.378,25.845-1.961
							c6.876-1.948,12.543-7.403,17.474-12.322c7.046-7.029,13.567-15.012,18.249-23.828c1.857-3.497,3.522-7.272,4.093-11.219
							c0.718-4.959-0.16-10.213-1.113-15.085c-2.287-11.692-7.057-23.608-5.78-35.692c1.014-9.601,3.313-19.018,2.703-28.743
							c-0.607-9.669-4.301-19.427-11.778-25.889c-4.297-3.713-9.591-6.277-14.786-8.464c-7.334-3.087-15.003-5.375-22.761-7.117
							c-30.736-6.902-74.103-7.966-92.117,23.242c-9.903,17.156-11.259,38.121-9.852,57.462c1.203,16.54,4.572,32.883,9.062,48.826
							C180.847,206.583,181.465,208.685,182.081,210.788c0.181,0.616,1.146,0.354,0.964-0.266
							c-3.712-12.656-6.93-25.433-8.961-38.479c-2.956-18.988-3.94-39.153,1.369-57.826c2.553-8.978,6.725-17.889,13.161-24.757
							c5.34-5.697,12.207-9.727,19.505-12.384c15.941-5.804,33.738-5.877,50.377-3.718c14.977,1.943,30.509,5.695,43.906,12.868
							c6.141,3.288,11.05,7.492,14.509,13.691c5.316,9.526,5.223,20.642,3.867,31.16c-0.561,4.352-1.356,8.672-1.878,13.03
							c-0.581,4.858-0.23,9.632,0.615,14.439c2.021,11.492,6.613,22.887,6.364,34.686c-0.183,8.667-5.722,16.888-10.682,23.624
							c-5.53,7.509-12.002,14.653-19.376,20.398c-2.703,2.106-5.528,3.984-8.834,4.973c-3.583,1.071-7.351,1.521-11.068,1.809
							c-9.374,0.725-18.87,0.29-28.204-0.732c-8.712-0.953-17.659-2.335-25.877-5.498c-10.33-3.977-21.637-7.74-30.255-14.936
							c-3.956-3.303-7.01-7.391-8.539-12.346C182.857,209.909,181.891,210.17,182.081,210.788z"/>
					</g>
				</g>
			</g>
			<g>
				<g>
					<path style="fill:#63331E;" d="M274.921,104.482c-8.21-0.454-24.305-13.56-41.446-16.885
						c-17.141-3.326-37.096-0.11-44.004,22.002c-5.79,18.534-2.303,68.821-2.303,68.821l-9.978,2.26
						c0,0-12.602-19.913-16.662-27.588c-4.06-7.675-17.824-45.028,4.408-73.426c22.232-28.398,69.562-36.329,103.077-23.793
						c33.515,12.536,49.633,29.166,52.447,51.168c0,0-4.929-11.318-18.932-12.792C291.807,93.225,288.225,105.217,274.921,104.482z"
						/>
				</g>
				<path style="opacity:0.3;fill:#63331E;" d="M301.528,94.248c14.003,1.474,18.932,12.792,18.932,12.792
					c-1.739-13.596-8.566-25.138-21.431-34.933c4.397,5.177,8.172,10.392,10.465,14.234c3.347,5.607,0.31,6.338-8.628,3.9
					c-8.938-2.438-17.389,8.044-24.323,9.019c-6.934,0.975-16.224-6.582-38.407-15.357c-22.183-8.776-44.61,1.706-51.435,20.72
					c-6.826,19.014-3.413,49.729-3.413,51.688s-4.388,1.698-5.85,0.496c-1.462-1.201-3.9-3.674-10.35-7.762
					c-3.42-2.168-6.668-2.074-8.973-1.512c0.924,2.467,1.786,4.37,2.414,5.558c4.061,7.675,16.662,27.588,16.662,27.588l9.978-2.26
					c0,0-3.487-50.287,2.303-68.821c6.908-22.112,26.863-25.328,44.004-22.002c17.141,3.326,33.236,16.432,41.446,16.885
					C288.225,105.217,291.807,93.225,301.528,94.248z"/>
				<g>
					<g>
						<path style="fill:#422613;" d="M274.921,103.982c-3.712-0.288-7.267-2.225-10.529-3.871
							c-4.401-2.221-8.717-4.607-13.165-6.736c-8.383-4.012-17.145-6.915-26.484-7.339c-7.381-0.335-15.028,0.837-21.492,4.582
							c-7.117,4.124-11.857,11.081-14.263,18.848c-1.889,6.1-2.426,12.655-2.839,18.995c-0.519,7.972-0.589,15.973-0.484,23.96
							c0.085,6.459,0.299,12.917,0.622,19.369c0.09,1.805,0.189,3.61,0.302,5.414c0.023,0.367,0.076,0.745,0.072,1.113
							c-0.005,0.362,0.549-0.445,0.299-0.362c-0.389,0.129-0.822,0.186-1.222,0.277c-1.471,0.333-2.943,0.667-4.414,1
							c-0.95,0.215-3.015,0.28-3.811,0.863c-0.545,0.399-0.456-0.403,0.08,0.286c-0.111-0.143-0.254-0.34-0.318-0.503
							c-0.327-0.837-1.053-1.673-1.53-2.434c-3.919-6.251-7.814-12.521-11.549-18.884c-6.429-10.951-10.047-22.972-10.921-35.687
							c-1.36-19.791,5.397-38.696,20.577-51.801c14.177-12.24,33.001-18.517,51.467-20.073c9.31-0.784,18.751-0.404,27.939,1.323
							c9.872,1.855,19.302,5.48,28.319,9.852c14.981,7.264,29.666,17.875,35.713,34.021c1.31,3.499,2.178,7.143,2.671,10.844
							c0.311-0.084,0.621-0.168,0.932-0.252c-3.11-7.025-10.738-11.777-18.108-12.877c-4.732-0.706-8.288,1.113-12.02,3.843
							C285.856,101.346,281.264,104.225,274.921,103.982c-0.644-0.025-0.642,0.975,0,1c5.098,0.195,9.494-1.47,13.622-4.37
							c3.723-2.616,7.334-6.041,12.19-5.916c7.725,0.198,16.116,5.416,19.295,12.597c0.195,0.44,0.996,0.233,0.932-0.252
							c-2.633-19.768-16.567-33.699-33.459-42.939c-10.382-5.679-21.671-10.347-33.317-12.617
							c-10.85-2.115-22.057-2.407-33.021-1.053c-21.058,2.602-42.63,11.451-56.176,28.369c-13.83,17.274-15.412,40.446-9.809,61.195
							c4.057,15.022,13.354,27.932,21.58,40.936c0.124,0.195,0.341,0.28,0.565,0.23c3.326-0.753,6.652-1.507,9.978-2.26
							c0.201-0.045,0.382-0.272,0.367-0.482c-1.196-17.322-1.704-34.932-0.355-52.252c0.884-11.35,2.872-23.353,11.823-31.347
							c9.206-8.222,22.613-9.019,34.206-6.741c8.734,1.716,16.784,5.723,24.612,9.814c5.174,2.704,10.983,6.625,16.966,7.089
							C275.563,105.032,275.56,104.031,274.921,103.982z"/>
					</g>
				</g>
				<g style="opacity:0.3;">
					<g>
						<path style="fill:#FFFFFF;" d="M159.835,142.417c-4.2-19.323-4.152-40.198,7.34-57.161
							c9.337-13.782,24.607-22.296,40.271-26.942c17.62-5.226,36.36-4.954,53.995,0.04c13.456,3.811,25.32,10.304,37.028,17.758
							c0.51,0.325,1.145-0.462,0.658-0.853c-9.316-7.48-20.895-12.856-32.151-16.635c-17.042-5.721-35.406-7.23-53.031-3.401
							c-16.692,3.626-33.584,11.543-44.63,24.943c-7.668,9.302-11.935,20.759-13.048,32.706c-0.925,9.927,0.052,20.174,2.973,29.709
							C159.357,142.963,159.92,142.805,159.835,142.417L159.835,142.417z"/>
					</g>
				</g>
			</g>
			<g>
				<g>
					<path style="fill:#63331E;" d="M218.272,138.265c0,0,15.182-5.217,31.545,0.256c0,0,5.513-2.898,2.164-6.866
						C248.632,127.686,229.367,126.107,218.272,138.265z"/>
				</g>
				<g>
					<path style="fill:#63331E;" d="M312.652,138.597c0,0-12.58-5.636-29.009-0.365c0,0-5.477-2.965-2.079-6.892
						C284.961,127.413,301.707,126.305,312.652,138.597z"/>
				</g>
				<g>
					<g>
						<defs>
							<path id="SVGID_1_" d="M255.246,154.632c-3.864-2.144-7.345-7.655-17.465-7.615c-14.916,0.058-20.755,6.796-23.837,12.19
								l5.572,17.96c0,0,10.348,1.141,15.263,1.186c7.285,0.068,16.609-2.805,16.609-2.805S257.097,165.874,255.246,154.632z"/>
						</defs>
						<clipPath id="SVGID_00000174564663071115732250000002769616232072992397_">
							<use xlink:href="#SVGID_1_"  style="overflow:visible;"/>
						</clipPath>
						
							<ellipse transform="matrix(0.7071 -0.7071 0.7071 0.7071 -46.3777 214.3918)" style="clip-path:url(#SVGID_00000174564663071115732250000002769616232072992397_);fill:#FFFFFF;" cx="235.605" cy="163.179" rx="16.311" ry="16.311"/>
						<g style="clip-path:url(#SVGID_00000174564663071115732250000002769616232072992397_);">
							<defs>
								
									<ellipse id="SVGID_00000036220078095556804650000016068507515637852809_" transform="matrix(0.7071 -0.7071 0.7071 0.7071 -46.3777 214.3918)" cx="235.605" cy="163.179" rx="16.311" ry="16.311"/>
							</defs>
							<clipPath id="SVGID_00000031198651336408960790000016383934100596071554_">
								<use xlink:href="#SVGID_00000036220078095556804650000016068507515637852809_"  style="overflow:visible;"/>
							</clipPath>
							<path style="clip-path:url(#SVGID_00000031198651336408960790000016383934100596071554_);fill:#422613;" d="M231.888,161.518
								l5.734-3.012c-1.651-4.052-5.624-6.911-10.269-6.911c-6.125,0-11.091,4.965-11.091,11.091
								c0,6.125,4.965,11.091,11.091,11.091s11.091-4.965,11.091-11.091c0-0.614-0.063-1.213-0.159-1.8L231.888,161.518z"/>
						</g>
					</g>
					<g>
						<g>
							<g>
								<path style="fill:#63331E;" d="M216.733,156.38c4.543-4.968,12.426-7.892,19.05-8.231c3.514-0.18,6.874,0.651,9.867,2.505
									c2.84,1.76,4.529,4.245,6.771,6.607c0.414,0.436,1.323-0.015,1.071-0.623c-2.651-6.386-10.633-10.312-17.256-10.104
									c-6.892,0.217-16.329,3.21-20.184,9.321C215.792,156.267,216.399,156.746,216.733,156.38L216.733,156.38z"/>
							</g>
						</g>
						<g>
							<g>
								<path style="fill:#63331E;" d="M218.721,176.834c10.589,4.237,23.453,3.678,34.047-0.331c0.85-0.322,0.51-1.68-0.382-1.386
									c-11.208,3.688-22.041,3.597-33.501,1.122C218.489,176.154,218.358,176.689,218.721,176.834L218.721,176.834z"/>
							</g>
						</g>
					</g>
				</g>
				<g>
					<g>
						<defs>
							<path id="SVGID_00000110430087507216188030000013833631646104725928_" d="M312.971,157.242
								c-3.864-2.143-7.299-8.387-17.419-8.348c-14.916,0.058-21.592,7.416-23.591,10.312l5.572,17.96
								c0,0,10.348,1.141,15.263,1.186c7.285,0.068,16.609-2.805,16.609-2.805S314.823,168.485,312.971,157.242z"/>
						</defs>
						<clipPath id="SVGID_00000057134607203971841380000013671904304547590839_">
							<use xlink:href="#SVGID_00000110430087507216188030000013833631646104725928_"  style="overflow:visible;"/>
						</clipPath>
						
							<ellipse transform="matrix(0.322 -0.9467 0.9467 0.322 44.5859 388.6165)" style="clip-path:url(#SVGID_00000057134607203971841380000013671904304547590839_);fill:#FFFFFF;" cx="293.621" cy="163.179" rx="16.311" ry="16.311"/>
						<g style="clip-path:url(#SVGID_00000057134607203971841380000013671904304547590839_);">
							<defs>
								
									<ellipse id="SVGID_00000106869020929695623740000007177791124498107525_" transform="matrix(0.322 -0.9467 0.9467 0.322 44.5859 388.6165)" cx="293.621" cy="163.179" rx="16.311" ry="16.311"/>
							</defs>
							<clipPath id="SVGID_00000136389198174246523630000010241797191350646942_">
								<use xlink:href="#SVGID_00000106869020929695623740000007177791124498107525_"  style="overflow:visible;"/>
							</clipPath>
							<path style="clip-path:url(#SVGID_00000136389198174246523630000010241797191350646942_);fill:#422613;" d="M289.904,161.518
								l5.734-3.012c-1.651-4.052-5.624-6.911-10.269-6.911c-6.125,0-11.091,4.965-11.091,11.091
								c0,6.125,4.965,11.091,11.091,11.091c6.125,0,11.091-4.965,11.091-11.091c0-0.614-0.063-1.213-0.159-1.8L289.904,161.518z"/>
						</g>
					</g>
					<g>
						<g>
							<g>
								<path style="fill:#63331E;" d="M276.633,154.87c5.981-2.444,11.93-5.136,18.529-5.112c5.745,0.02,11.609,2.292,15.09,7.001
									c0.671,0.908,2.21,0.025,1.531-0.895c-8.496-11.514-24.976-8.557-35.412-1.615
									C276.072,154.448,276.257,155.024,276.633,154.87L276.633,154.87z"/>
							</g>
						</g>
						<g>
							<g>
								<path style="fill:#63331E;" d="M278.943,176.962c5.244,1.941,10.725,3.023,16.363,2.598
									c3.495-0.263,6.957-0.958,10.33-1.897c1.278-0.356,3.217-0.587,4.164-1.612c0.273-0.295,0.061-0.7-0.307-0.74
									c-1.347-0.148-2.936,0.717-4.211,1.072c-3.399,0.946-6.894,1.656-10.418,1.9c-5.179,0.358-10.768-0.514-15.785-1.818
									C278.754,176.38,278.637,176.848,278.943,176.962L278.943,176.962z"/>
							</g>
						</g>
					</g>
				</g>
				<g>
					<g>
						<path style="fill:#422613;" d="M256.25,203.683c-8.608-4.522-19.435-12.093-22.314-9.501
							c-2.879,2.591-4.274,20.587,10.1,27.497c14.374,6.91,33.11,0,36.482-2.591c3.373-2.591,4.257-7.63,0-8.494
							C276.261,209.729,261.821,206.609,256.25,203.683z"/>
						<g>
							<path style="fill:#422613;" d="M256.503,203.251c-5.431-2.882-10.594-6.406-16.258-8.826c-2.198-0.939-5.66-2.384-7.273,0.19
								c-1.418,2.264-1.493,5.582-1.374,8.148c0.188,4.073,1.332,8.153,3.502,11.621c6.089,9.73,18.69,11.744,29.26,10.372
								c5.259-0.683,20.892-3.11,19.469-11.545c-0.319-1.888-1.742-2.738-3.476-3.16c-2.202-0.535-4.439-0.946-6.647-1.464
								C267.955,207.236,261.802,205.945,256.503,203.251c-0.572-0.291-1.079,0.571-0.505,0.863
								c6.909,3.512,15.091,4.995,22.617,6.592c2.021,0.429,4.379,0.875,4.264,3.485c-0.1,2.261-1.902,4.147-3.765,5.19
								c-3.201,1.792-6.93,2.84-10.49,3.62c-9.947,2.179-22.52,1.924-30.103-5.864c-4.836-4.966-7.125-13.005-5.5-19.794
								c0.221-0.925,0.533-2.334,1.398-2.906c1.611-1.066,4.74,0.577,6.173,1.231c5.326,2.43,10.241,5.705,15.406,8.446
								C256.566,204.416,257.072,203.553,256.503,203.251z"/>
						</g>
					</g>
					<g>
						<path style="fill:#FFFFFF;" d="M274.965,221.717v-6.804l6.72-3.906c-0.338-0.176-0.718-0.323-1.167-0.414
							c-4.257-0.864-18.697-3.983-24.268-6.91c-5.877-3.088-12.786-7.594-17.497-9.319l-1.074,7.736l-5.223,3.857
							c1.02,5.781,4.243,12.195,11.58,15.722C254.603,226.758,267.521,224.368,274.965,221.717L274.965,221.717z"/>
					</g>
					<g>
						<g>
							<g>
								<path style="fill:#DEDEDE;" d="M275.465,221.717c0-1.215,0-2.43,0-3.645c0-0.75,0.118-1.609,0-2.349
									c-0.12-0.753,0.108-0.668-0.115-0.455c1.695-1.615,4.552-2.646,6.588-3.829c0.297-0.173,0.354-0.707,0-0.864
									c-2.509-1.107-5.571-1.365-8.233-1.99c-3.908-0.917-7.81-1.907-11.63-3.145c-8.298-2.689-15.076-8.457-23.189-11.56
									c-0.23-0.088-0.58,0.099-0.615,0.349c-0.328,2.359-0.257,5.255-1.041,7.493c-0.142,0.406,0.397-0.322-0.234,0.261
									c-0.533,0.493-1.206,0.891-1.791,1.322c-1.001,0.739-2.001,1.478-3.002,2.217c-0.194,0.143-0.275,0.326-0.23,0.565
									c3.795,20.123,27.11,21.7,43.124,16.11c0.604-0.211,0.344-1.177-0.266-0.964c-13.03,4.549-32.636,5.29-39.84-9.09
									c-0.729-1.455-1.283-2.994-1.68-4.572c-0.346-1.371-0.755-0.98,0.212-1.788c1.242-1.037,3.437-1.906,4.369-3.226
									c0.596-0.845,0.529-2.207,0.672-3.237c0.223-1.609,0.447-3.217,0.67-4.826c-0.205,0.116-0.41,0.233-0.615,0.349
									c7.916,3.027,14.534,8.679,22.604,11.368c3.61,1.203,7.304,2.159,11.003,3.048c2.932,0.705,6.438,0.955,9.205,2.176
									c0-0.288,0-0.576,0-0.864c-1.12,0.651-2.24,1.302-3.36,1.953c-0.837,0.487-2.86,1.174-3.411,1.992
									c-0.473,0.702-0.197,2.026-0.197,2.837c0,1.453,0,2.907,0,4.36C274.465,222.36,275.465,222.361,275.465,221.717z"/>
							</g>
						</g>
						<g>
							<g>
								<path style="fill:#DEDEDE;" d="M263.492,213.606c3.804,1.438,7.53,2.611,11.648,2.348c0.68-0.043,0.683-1.11,0-1.063
									c-3.93,0.272-7.742-0.785-11.509-1.791C263.3,213.013,263.182,213.489,263.492,213.606L263.492,213.606z"/>
							</g>
						</g>
					</g>
				</g>
				<g>
					<g>
						<path style="fill:#2B180B;" d="M226.052,186.371c-16.152,0-17.426-1.105-18.083-1.674c-3.266-2.83-6.386-30.676-6.232-36.837
							c0.052-2.096,0.311-3.572,1.434-4.451c0.795-0.623,2.908-2.275,30.185-3.301c27.194-1.021,28.269,0.054,28.981,0.767
							c0.777,0.777,1.29,1.29,1.203,11.479c-0.049,5.728-0.309,12.379-0.694,17.793c-0.882,12.399-1.973,13.218-2.936,13.94
							c-2.413,1.81-20.101,2.11-25.913,2.209C231.012,186.348,228.377,186.371,226.052,186.371z M211.308,180.758
							c5.711,1.113,39.209,0.585,45.331-0.708c1.327-4.755,2.307-28.79,1.801-35.235c-8.344-0.627-45.232,0.733-51.694,2.426
							C206.244,152.515,209.432,176.066,211.308,180.758z M211.537,181.248L211.537,181.248L211.537,181.248z M206.065,147.471
							C206.065,147.471,206.065,147.471,206.065,147.471L206.065,147.471z M206.861,146.548 M204.712,145.378h0.01H204.712z"/>
					</g>
					<g>
						<path style="fill:#2B180B;" d="M313.425,185.679c-2.774,0-6.484-0.064-11.472-0.208c-8.795-0.254-20.122-0.8-25.536-1.57
							c-2.659-0.378-3.962-0.76-4.652-2.02c-1.712-3.126,0.129-36.482,1.574-40.139c0.389-0.982,1.013-1.621,1.855-1.897
							c2.105-0.691,25.416,0.173,25.652,0.182c24.84,0.93,25.571,1.986,26.418,3.209c0.612,0.884,1.451,2.096-1.088,21.152
							c-2.497,18.734-3.403,19.643-3.944,20.186C321.618,185.189,321.129,185.679,313.425,185.679z M276.178,178.825
							c6.383,1.208,35.598,2.186,42.368,1.758c1.312-5.749,4.399-28.313,4.392-34.055c-6.755-1.204-38.099-2.144-45.219-1.939
							C276.583,150.301,275.731,173.04,276.178,178.825z M276.31,179.865L276.31,179.865L276.31,179.865z M275.231,178.585
							 M323.951,146.773L323.951,146.773L323.951,146.773z M275.973,142.22h0.01H275.973z"/>
					</g>
					<g>
						<path style="fill:#2B180B;" d="M273.588,154.005c-0.561,0-1.124-0.188-1.59-0.572c-4.782-3.948-8.802-0.504-9.245-0.1
							c-1.011,0.927-2.59,0.873-3.526-0.131c-0.936-1.004-0.895-2.568,0.101-3.512c2.574-2.44,9.201-5.605,15.853-0.113
							c1.064,0.879,1.215,2.455,0.336,3.52C275.023,153.696,274.308,154.005,273.588,154.005z"/>
					</g>
					<g>
						<path style="fill:#2B180B;" d="M172.374,165.541c-1.24,0-2.316-0.922-2.477-2.184c-0.175-1.37,0.794-2.622,2.163-2.796
							l32.591-4.158c1.381-0.173,2.622,0.795,2.796,2.164c0.175,1.37-0.794,2.622-2.164,2.796l-32.591,4.158
							C172.586,165.534,172.479,165.541,172.374,165.541z"/>
					</g>
				</g>
				<g>
					<path style="fill:#BF8B67;" d="M278.313,193.244c1.773,0.057,3.597,0.106,5.261-0.508c1.664-0.614,3.15-2.058,3.259-3.828
						c0.094-1.525-0.856-2.97-2.109-3.843c-1.254-0.872-2.775-1.263-4.276-1.55c-2.68-0.513-5.414-0.748-8.142-0.7
						c-1.888,0.033-3.847,0.224-5.474,1.182c-1.627,0.958-2.826,2.87-2.417,4.713c0.483,2.178,2.885,3.362,5.093,3.676"/>
					<g>
						<path style="fill:#63331E;" d="M278.313,193.615c3.444,0.111,9.723-0.416,9.078-5.46c-0.588-4.596-6.482-5.333-10.091-5.731
							c-4.084-0.45-10.623-1.071-12.99,3.277c-2.062,3.789,1.51,6.782,5.035,7.274c0.752,0.105,1.11-1,0.324-1.175
							c-1.236-0.276-2.514-0.598-3.47-1.475c-2.003-1.838-1.113-4.515,0.952-5.78c2.575-1.579,6.363-1.208,9.243-0.964
							c2.667,0.227,7.241,0.476,8.932,2.932c3.392,4.927-3.58,6.441-7.014,6.36C277.835,192.861,277.836,193.6,278.313,193.615
							L278.313,193.615z"/>
					</g>
				</g>
			</g>
			<g>
				<g>
					<path style="fill:#BF8B67;" d="M181.53,199.936c0,0-18.898,6.614-28.032-10.394c-9.134-17.008-5.039-35.906,3.78-37.796
						c8.819-1.89,20.788,7.559,24.252,19.843"/>
				</g>
				<g>
					<g>
						<g>
							<path style="fill:#63331E;" d="M181.397,199.454c-9.304,3.213-20.253,0.527-25.969-7.7
								c-5.344-7.693-7.709-18.415-6.135-27.645c1.167-6.84,5.093-13.43,12.929-11.829c9.225,1.884,16.27,10.828,18.825,19.443
								c0.183,0.616,1.148,0.354,0.964-0.266c-2.427-8.183-8.399-15.94-16.463-19.201c-2.995-1.211-6.672-1.857-9.75-0.557
								c-2.83,1.195-4.712,3.921-5.882,6.655c-3.656,8.546-2.249,19.015,1.221,27.365c3.199,7.7,8.619,13.929,17.096,15.537
								c4.332,0.821,9.23,0.613,13.43-0.838C182.268,200.21,182.008,199.243,181.397,199.454L181.397,199.454z"/>
						</g>
					</g>
					<g>
						<g>
							<path style="fill:#63331E;" d="M153.252,165.721c1.603-4.8,7.64-6.339,11.692-3.688c0.705,0.461,1.277,1.266,1.972,1.691
								c0.171,0.544,0.47,0.655,0.896,0.331c-0.536-0.226-1.082-0.426-1.637-0.6c-1.593-0.469-3.262-0.673-4.857-0.107
								c-6.441,2.288-6.302,12.616-3.678,17.534c0.213,0.399,0.853,0.126,0.728-0.307c-1.355-4.689-2.809-15.345,4.348-16.315
								c1.819-0.247,3.137,0.798,4.792,0.896c0.254,0.015,0.538,0.164,0.784-0.015c0.562-0.407,0.264-0.998-0.001-1.486
								c-1.403-2.589-5.183-4.205-7.985-4.039c-3.588,0.212-6.64,2.481-7.567,5.964
								C152.651,165.913,153.144,166.043,153.252,165.721L153.252,165.721z"/>
						</g>
					</g>
				</g>
			</g>
		</g>
		<g>
			<g>
				<path style="fill:#5C5C63;stroke:#5C5C63;stroke-linecap:round;stroke-linejoin:round;stroke-miterlimit:10;" d="
					M309.887,277.57c-1.014,0.739-0.897,6.793,3.875,14.189c5.49,8.509,12.86,7.241,13.169,6.774
					C328.392,296.325,313.348,275.046,309.887,277.57z"/>
				<g>
					<path style="fill:#BF8B67;" d="M351.657,257.091c-2.517-3.041-5.873-1.049-5.873-1.049s-4.824-6.607-9.02-7.132
						c-4.195-0.524-5.559,3.671-5.559,3.671c-1.363-0.734-6.083-4.09-7.761-1.258c-1.678,2.832-4.614,13.524-6.607,17.305
						c-2.005,3.805-5.783,9.636-7.63,12.438c1.632,14.173,11.057,17.274,15.214,17.946l6.185-8.36
						c4.854-0.21,5.11-3.566,6.997-11.327c1.888-7.761,12.166-12.818,12.166-12.818
						C353.231,265.331,354.174,260.133,351.657,257.091z"/>
				</g>
				<g>
					<g>
						<path style="fill:#63331E;" d="M324.853,299.265c0.839-1.133,1.677-2.267,2.516-3.4c1.033-1.397,2.065-3.494,3.403-4.6
							c0.986-0.814,2.772-0.761,3.923-1.871c1.322-1.275,1.795-3.176,2.223-4.895c0.781-3.138,1.174-6.33,3.007-9.079
							c1.658-2.486,3.963-4.526,6.397-6.229c2.849-1.993,6.544-2.929,7.165-6.849c0.712-4.493-3.391-9.29-7.955-6.731
							c0.228,0.06,0.456,0.12,0.684,0.179c-2.054-2.782-4.904-6.049-8.302-7.125c-3.1-0.982-6.15,0.77-7.19,3.784
							c0.245-0.1,0.49-0.199,0.734-0.299c-1.995-1.126-5.258-3.543-7.603-1.985c-2.049,1.361-2.824,5.665-3.556,7.793
							c-1.266,3.68-2.34,7.536-4.192,10.975c-2.204,4.093-4.778,8-7.332,11.882c-0.355,0.539,0.511,1.041,0.863,0.505
							c3.836-5.831,7.613-11.587,9.941-18.196c1.116-3.168,2.093-6.398,3.353-9.514c0.719-1.779,1.589-3.29,3.857-2.685
							c1.501,0.4,2.825,1.335,4.164,2.09c0.295,0.167,0.629,0.007,0.734-0.299c2.684-7.779,10.984-0.05,13.664,3.581
							c0.163,0.22,0.427,0.323,0.684,0.179c4.264-2.39,7.537,2.952,6.214,6.737c-0.752,2.15-2.686,2.764-4.445,3.823
							c-4.347,2.618-8.767,6.323-10.425,11.277c-0.984,2.939-0.999,6.381-2.489,9.142c-0.575,1.065-1.379,1.757-2.496,2.208
							c-0.74,0.298-1.626,0.282-2.238,0.763c-1.196,0.942-2.17,2.933-3.075,4.156c-1.031,1.393-2.061,2.787-3.092,4.18
							C323.607,299.278,324.474,299.777,324.853,299.265L324.853,299.265z"/>
					</g>
				</g>
				<path style="opacity:0.4;fill:#BF8B67;" d="M344.736,254.73c2.094,3.225,1.783,4.994-0.619,5.674
					c-2.405,0.681-3.495-1.048-5.852-4.281c-1.602-2.197-4.594-3.997-6.347-4.925c-0.404,0.602-0.618,1.128-0.685,1.31
					c3.598,3.326,5.877,7.387,3.535,9.721c-2.621,2.611-6.81,0-6.81,0l1.236,2.618c-0.597,1.199-4.824,5.519-4.824,5.519
					c-3.404,0.305-7.374,1.622-10.288,3.046c-1.773,2.911-3.707,5.886-4.873,7.655c1.632,14.173,11.057,17.274,15.214,17.946
					l6.185-8.36c5.37-0.99,5.11-3.566,6.997-11.327c1.888-7.761,12.166-12.818,12.166-12.818c3.461-1.176,4.405-6.375,1.888-9.416
					c-0.298-0.359-0.607-0.644-0.921-0.874c-2.57-0.342-4.952-0.174-4.952-0.174S345.387,255.503,344.736,254.73
					C344.736,254.73,344.736,254.73,344.736,254.73z"/>
				<g>
					<g>
						<path style="fill:#ABABB8;" d="M326.39,298.701c-2.685,0.014-5.513-0.954-7.806-2.281c-6.42-3.715-8.732-10.986-9.094-18.015
							c-0.033-0.64-1.033-0.644-1,0c0.367,7.141,2.654,14.464,8.961,18.497c2.574,1.646,5.845,2.816,8.939,2.799
							C327.034,299.697,327.035,298.697,326.39,298.701L326.39,298.701z"/>
					</g>
				</g>
			</g>
			<g>
				<g>
					<path style="fill:#0B5C78;" d="M337.283,272.564c-5.659-1.593-11.34-1.346-16.731,1.027
						c-5.499,2.42-10.126,6.519-14.555,10.491c-9.042,8.109-18.452,17.691-29.825,22.501c-23.004,9.729-28.228-24.702-28.968-40.107
						c-0.242-5.04-0.272-10.139,0.045-15.194c7.363,0.546,14.743,0.861,22.107,0.864c6.988,0.002,13.969-0.384,20.304-3.693
						c4.365-2.279,8.904-6.183,10.928-10.808c0.557-1.272,0.224-2.481-0.492-3.341c-3.523,3.16-6.853,5.651-9.568,7.072
						c-0.649,0.34-1.398,0.648-2.211,0.936c-4.919,2.827-11.202,3.75-16.833,3.822c-12.777,0.165-25.62-0.791-38.314-2.171
						c-13.316-1.447-27.081-3.247-39.759-7.761c-4.517-1.608-8.315-3.471-11.133-7.054c-3.882-4.936-5.978-11.247-7.596-17.229
						c-2.735-10.114-4.23-20.762-4.594-31.239c-0.134-3.85-6.134-3.868-6,0c0.336,9.703,1.663,19.539,3.847,28.99
						c2.746,11.882,7.236,25.019,19.119,30.401c12.522,5.672,26.871,7.532,40.384,9.223c4.597,0.575,9.214,1.074,13.841,1.494
						c-0.296,4.462-0.309,8.959-0.167,13.414c0.332,10.362,1.535,21.107,5.311,30.832c3.794,9.771,11.148,20.009,22.838,19.344
						c11.667-0.664,21.753-9.477,30.291-16.602c6.053-5.051,11.543-10.923,17.975-15.502c5.592-3.981,11.398-5.828,18.162-3.924
						C339.411,279.397,341,273.61,337.283,272.564z"/>
					<g style="opacity:0.4;">
						<g>
							<g>
								<path style="fill:#FFFFFF;" d="M290.489,245.407c-10.413,4.514-22.346,3.029-33.321,2.465
									c-13.654-0.701-27.285-1.919-40.796-4.043c-8.197-1.289-16.506-2.661-24.184-5.95c-4.03-1.727-8.015-3.985-10.997-7.255
									c-3.001-3.293-4.742-7.724-6.216-11.86c-3.106-8.714-5.814-18.636-5.896-27.956c-0.004-0.492-0.77-0.494-0.766,0
									c0.076,8.562,2.451,17.522,5.062,25.607c1.372,4.248,2.963,8.627,5.434,12.376c2.305,3.497,5.752,6.055,9.4,8.018
									c6.939,3.733,14.652,5.455,22.35,6.782c13.979,2.41,28.123,3.881,42.279,4.729c7.744,0.463,15.782,1.269,23.537,0.852
									c4.703-0.252,9.973-1.5,14.141-3.718C290.548,245.437,290.52,245.393,290.489,245.407L290.489,245.407z"/>
							</g>
						</g>
						<g>
							<g>
								<path style="fill:#FFFFFF;" d="M323.688,275.001c-3.68,0.486-7.176,3.255-10.085,5.344
									c-8.647,6.209-15.872,14.022-24.167,20.63c-6.95,5.537-18.833,12.869-27.819,7.609c-7.415-4.34-11.173-13.508-13.15-21.44
									c-3.198-12.831-3.437-26.35-2.565-39.478c0.034-0.507-0.756-0.505-0.789,0c-0.805,12.198-0.602,24.639,1.89,36.648
									c1.679,8.093,4.445,15.817,10.295,21.864c2.991,3.091,6.646,5.009,11.008,4.931c4.154-0.075,8.205-1.375,11.91-3.188
									c10.938-5.352,19.029-15.121,28.354-22.713c4.527-3.685,9.544-7.895,15.17-9.831
									C323.929,275.312,323.915,274.971,323.688,275.001L323.688,275.001z"/>
							</g>
						</g>
					</g>
					<path style="opacity:0.4;fill:#0B5C78;" d="M335.688,278.349c-6.763-1.904-12.569-0.057-18.162,3.924
						c-6.432,4.579-11.921,10.451-17.975,15.502c-8.538,7.125-18.625,15.938-30.291,16.602c-11.69,0.665-19.043-9.573-22.838-19.344
						c-3.776-9.725-4.978-20.469-5.311-30.832c-0.143-4.455-0.129-8.953,0.167-13.414c-4.627-0.421-9.244-0.919-13.841-1.494
						c-13.513-1.691-27.862-3.551-40.384-9.223c-11.883-5.383-16.373-18.519-19.119-30.401c-2.184-9.451-3.51-19.287-3.847-28.99
						c-0.134-3.868,5.866-3.85,6,0c0.092,2.66,0.259,5.331,0.499,8.001c-0.782-0.005-1.896-0.165-3.499-0.638
						c0,0-0.366,12.787,5.289,29.616s12.802,20.863,29.401,25.474c16.598,4.611,41.932,6.34,41.932,6.34s-2.018,19.512,1.798,35.618
						c3.816,16.106,11.253,27.318,22.434,27.434c11.181,0.115,21.555-8.76,30.777-16.829c9.221-8.069,14.781-15.67,27.035-19.25
						c0,0-0.033-2.202,1.005-4.645c3.467-0.505,7-0.228,10.525,0.764C341,273.61,339.411,279.397,335.688,278.349z M278.531,247.243
						c11.14-1.258,14.914-5.157,15.04-4.465c0.126,0.692-1.887,7.041-20.691,7.42c-18.804,0.379-25.848-0.502-25.848-0.502
						l0.216,1.586c7.289,0.535,14.817,0.861,22.107,0.864c6.988,0.002,13.969-0.384,20.304-3.693
						c4.365-2.279,8.904-6.183,10.928-10.808c0.557-1.272,0.224-2.481-0.492-3.341c-3.523,3.16-6.853,5.651-9.568,7.072
						c-0.649,0.34-1.398,0.648-2.211,0.936c-4.919,2.827-11.202,3.75-16.833,3.822c-4.254,0.055-8.516-0.024-12.777-0.192
						C263.638,246.898,271.548,248.031,278.531,247.243z"/>
					<g>
						<g>
							<path style="fill:#094251;" d="M337.416,272.082c-8.121-2.146-15.818-0.465-22.704,4.232
								c-6.527,4.453-12.094,10.266-17.978,15.503c-6.366,5.667-13.234,11.337-21.244,14.509c-4.53,1.794-9.558,2.148-13.812-0.54
								c-8.157-5.154-10.886-16.855-12.456-25.686c-0.8-4.501-1.294-9.058-1.518-13.624c-0.109-2.212-0.171-4.426-0.184-6.64
								c-0.006-0.951-0.002-1.903,0.012-2.854c0.018-1.198-0.246-3.157,0.138-4.277c0.407-1.186,1.262-0.8,2.461-0.721
								c1.121,0.074,2.242,0.141,3.364,0.204c2.402,0.133,4.806,0.24,7.211,0.317c9.101,0.29,19.079,0.939,27.609-2.851
								c3.66-1.627,7.072-4.059,9.692-7.102c1.978-2.298,4.546-5.533,2.521-8.5c-0.189-0.276-0.533-0.326-0.785-0.101
								c-6.473,5.746-13.831,10.16-22.551,11.289c-9.267,1.2-19.054,0.323-28.338-0.341c-18.313-1.31-37.447-2.906-54.877-9.027
								c-3.786-1.33-7.569-2.973-10.37-5.945c-2.995-3.179-4.927-7.399-6.386-11.461c-3.137-8.733-4.898-18.075-5.888-27.279
								c-0.239-2.226-0.426-4.457-0.563-6.691c-0.094-1.551,0.15-3.478-0.398-4.964c-0.578-1.566-2.236-2.414-3.858-2.215
								c-1.58,0.194-2.687,1.297-2.907,2.859c-0.271,1.919,0.146,4.226,0.287,6.149c0.173,2.36,0.403,4.715,0.687,7.064
								c0.966,8.004,2.441,16.04,4.815,23.755c1.841,5.984,4.391,11.923,8.542,16.688c4.824,5.538,11.592,8.165,18.464,10.252
								c8.128,2.469,16.546,3.814,24.951,4.931c4.49,0.597,8.985,1.156,13.489,1.637c1.154,0.123,2.309,0.242,3.464,0.355
								c1.267,0.124,2.141-0.113,2.389,1.216c0.402,2.161-0.177,4.977-0.169,7.193c0.028,8.658,0.591,17.413,2.468,25.884
								c2.597,11.721,8.999,27.568,22.683,29.434c7.248,0.988,14.527-2.209,20.498-6.021c6.563-4.19,12.601-9.412,18.352-14.64
								c6.212-5.648,12.7-12.922,21.029-15.289c1.951-0.555,3.999-0.784,6.024-0.649c1.767,0.118,3.802,1.108,5.565,0.78
								c1.552-0.289,2.598-1.71,2.735-3.237C340.037,273.924,339.002,272.659,337.416,272.082c-0.606-0.221-0.867,0.745-0.266,0.964
								c3.155,1.15,1.622,5.043-1.329,4.821c-2.555-0.192-4.732-0.953-7.377-0.662c-4.721,0.518-8.853,2.861-12.584,5.675
								c-8.404,6.338-15.677,14.073-23.994,20.549c-7.906,6.156-18.922,13.197-29.353,9.52
								c-9.293-3.276-14.364-13.479-17.074-22.274c-3.913-12.701-4.476-26.696-3.661-39.887c0.018-0.287-0.245-0.477-0.5-0.5
								c-11.012-1.014-22.096-2.239-32.96-4.335c-4.935-0.952-9.836-2.147-14.592-3.781c-4.676-1.606-9.276-3.474-12.958-6.863
								c-6.164-5.673-9.258-13.863-11.364-21.778c-2.727-10.248-4.289-20.852-4.76-31.442c-0.058-1.313-0.233-2.712,1.044-3.492
								c0.743-0.454,1.872-0.393,2.624,0.004c2.082,1.099,1.436,5.762,1.586,7.805c0.38,5.155,1.034,10.295,1.975,15.378
								c1.727,9.326,3.941,19.997,9.972,27.615c5.363,6.775,15.396,8.885,23.364,10.74c10.149,2.362,20.54,3.567,30.891,4.633
								c12.466,1.284,25.289,2.502,37.83,1.774c10.33-0.599,18.898-5.126,26.518-11.89c-0.262-0.034-0.523-0.067-0.785-0.101
								c2.862,4.19-5.305,10.452-8.29,12.333c-4.289,2.703-9.185,3.985-14.194,4.462c-9.87,0.939-20.07,0.148-29.932-0.569
								c-0.281-0.02-0.485,0.246-0.5,0.5c-0.541,9.272-0.216,18.658,1.294,27.833c1.193,7.246,3.046,14.82,7.012,21.096
								c3.335,5.277,8.484,9.093,14.972,8.51c4.655-0.419,9.074-2.728,12.999-5.114c5.07-3.082,9.671-6.873,14.101-10.802
								c5.415-4.802,10.539-10.036,16.343-14.378c7.075-5.293,14.967-7.684,23.681-5.381
								C337.773,273.21,338.039,272.246,337.416,272.082z"/>
						</g>
					</g>
				</g>
				<g>
					<g>
						<g>
							<path style="fill:#ABABB8;" d="M340.367,261.583c-8.217-0.007-14.369,6.836-12.922,17.63
								c1.447,10.795,16.359,12.798,22.479,5.675C356.045,277.767,352.923,261.595,340.367,261.583z"/>
						</g>
						<g style="opacity:0.5;">
							<g>
								<path style="fill:#FFFFFF;" d="M341.37,286.465c-4.538,0.353-8.91-1.226-10.772-5.669
									c-2.026-4.835-0.692-9.276,2.201-13.321c0.192-0.268-0.202-0.489-0.417-0.322c-8.12,6.284-1.779,23.116,9,19.396
									C341.424,286.534,341.421,286.461,341.37,286.465L341.37,286.465z"/>
							</g>
						</g>
						<path style="opacity:0.5;fill:#ABABB8;" d="M340.367,261.583c-3.97-0.004-7.448,1.605-9.83,4.473
							c2.387,0.436,6.071,0.534,8.014-2.348c0,0,3.121,1.41,5.235,0.755c0,0,6.695,3.121,6.796,10.52
							c0.076,5.558-3.627,11.119-9.036,14.011c3.224-0.332,6.306-1.694,8.378-4.105
							C356.045,277.767,352.923,261.595,340.367,261.583z"/>
						<g>
							<g>
								<path style="fill:#5C5C63;" d="M340.367,261.083c-6.567,0.128-11.755,4.426-13.187,10.846
									c-1.359,6.095,0.02,12.961,5.924,16.018c4.835,2.503,11.309,2.183,15.634-1.24c4.147-3.282,5.329-9.07,4.434-14.075
									C352.001,266.086,347.152,261.231,340.367,261.083c-0.644-0.014-0.644,0.986,0,1c10.63,0.231,15.799,14.09,9.446,22.144
									c-3.167,4.016-8.976,5.154-13.74,3.82c-5.944-1.665-8.529-6.683-8.329-12.602c0.246-7.3,5.087-13.216,12.623-13.363
									C341.01,262.071,341.012,261.071,340.367,261.083z"/>
							</g>
						</g>
					</g>
					<g>
						<g style="opacity:0.5;">
							<path style="fill:#ABABB8;" d="M340.289,265.521c-5.863-0.005-10.254,4.878-9.221,12.581
								c1.032,7.703,11.673,9.132,16.041,4.05C351.477,277.069,349.249,265.529,340.289,265.521z"/>
						</g>
						<g>
							<path style="fill:#DEDEDE;" d="M340.263,266.847c-5.071-0.005-8.867,4.218-7.974,10.88
								c0.893,6.661,10.095,7.897,13.872,3.502C349.938,276.834,348.011,266.854,340.263,266.847z"/>
						</g>
						<g style="opacity:0.7;">
							<g>
								<path style="fill:#FFFFFF;" d="M334.667,278.462c-0.692-2.45-0.277-5.137,1.547-6.997c0.849-0.866,2.018-1.525,3.212-1.753
									c1.653-0.316,2.793,0.454,4.262,0.955c0.207,0.07,0.35-0.174,0.265-0.344c-1.489-2.954-6.123-1.596-8.048,0.101
									c-2.334,2.057-2.917,5.42-1.452,8.129C334.516,278.67,334.703,278.59,334.667,278.462L334.667,278.462z"/>
							</g>
						</g>
						<g style="opacity:0.5;">
							<path style="fill:#DEDEDE;" d="M344.805,268.342c1.361,3.198,1.004,7.264-1.06,9.665c-2.628,3.058-7.877,3.383-11.132,1.057
								c1.867,5.463,10.041,6.245,13.548,2.164C349.039,277.88,348.601,271.294,344.805,268.342z"/>
						</g>
						<g>
							<g>
								<path style="fill:#5C5C63;" d="M340.263,266.347c-5.805,0.182-9.013,5.115-8.557,10.622
									c0.406,4.902,4.669,7.834,9.461,7.272C351.52,283.029,350.482,266.705,340.263,266.347c-0.644-0.023-0.643,0.977,0,1
									c8.845,0.31,9.981,14.504,1.086,15.859c-4.226,0.644-8.261-1.8-8.643-6.237c-0.425-4.939,2.293-9.457,7.557-9.622
									C340.905,267.327,340.908,266.327,340.263,266.347z"/>
							</g>
						</g>
					</g>
				</g>
				<g>
					<g>
						<path style="fill:#ABABB8;" d="M174.015,176.441c0.627,4.632-1.967,8.807-5.792,9.325c-3.826,0.518-7.435-2.818-8.062-7.45
							c-0.627-4.632,1.967-8.807,5.792-9.325C169.778,168.474,173.388,171.809,174.015,176.441z"/>
					</g>
					<g style="opacity:0.5;">
						<g>
							<path style="fill:#FFFFFF;" d="M162.936,179.431c-1.219-3.423,1.019-9.352,5.321-6.897c0.332,0.19,0.8-0.21,0.556-0.556
								c-1.417-2.006-4.35-1.132-5.662,0.516c-1.444,1.814-1.864,5.146-0.299,6.986
								C162.884,179.518,162.953,179.478,162.936,179.431L162.936,179.431z"/>
						</g>
					</g>
					<g style="opacity:0.5;">
						<path style="fill:#ABABB8;" d="M174.014,176.441c-0.299-2.212-1.283-4.122-2.642-5.464c0.224,0.636,0.395,1.306,0.491,2.01
							c0.627,4.632-1.967,8.807-5.792,9.325c-1.999,0.27-3.934-0.518-5.42-1.986c1.247,3.543,4.327,5.879,7.571,5.44
							C172.048,185.249,174.641,181.074,174.014,176.441z"/>
					</g>
					<g>
						<g>
							<path style="fill:#5C5C63;" d="M173.515,176.441c0.349,3.503-0.963,7.805-4.832,8.731c-4.287,1.026-7.494-3.143-8.006-6.926
								c-0.494-3.652,1.25-8.178,5.347-8.733c4.208-0.57,6.884,3.408,7.509,7.061c0.108,0.633,1.072,0.365,0.964-0.266
								c-0.714-4.168-3.982-8.471-8.677-7.799c-4.574,0.654-6.712,5.725-6.151,9.873c0.563,4.159,3.968,8.456,8.553,7.884
								c4.711-0.588,6.711-5.627,6.292-9.825C174.451,175.807,173.451,175.801,173.515,176.441z"/>
						</g>
					</g>
				</g>
			</g>
			<g>
				<g>
					<path style="fill:#BF8B67;" d="M346.492,258.324c-0.194-1.025-0.875-1.862-1.374-2.779c-0.557-1.023-2.368-3.335-5.023-5.196
						c-2.825-1.981-6.917-2.649-8.889,2.232l0.132,0.171c-0.361-0.196-0.722-0.388-1.08-0.576l-2.889,9.481
						c1.545,1.577,3.464,2.95,5.66,3.166c2.197,0.216,4.644-1.068,5.129-3.221c0.003-0.015,0.002-0.031,0.006-0.047l0.101,0.13
						c1.277,0.512,2.582,1.03,3.956,1.103c1.374,0.073,2.793-0.425,3.673-1.482C346.767,260.259,346.686,259.35,346.492,258.324z"/>
				</g>
				<g>
					<g>
						<path style="fill:#63331E;" d="M320.308,283.613c0.292,6.04,6.87,8.655,12.131,6.872c0.32-0.108,0.286-0.626-0.083-0.614
							c-2.322,0.075-4.619,0.549-6.886-0.286c-2.559-0.943-4.327-3.393-4.778-6.024
							C320.655,283.344,320.298,283.394,320.308,283.613L320.308,283.613z"/>
					</g>
				</g>
				<path style="opacity:0.4;fill:#BF8B67;" d="M331.206,252.581l0.607-1.227c0,0,3.99,1.058,6.452,4.768
					c2.212,3.334,3.448,4.962,5.852,4.281c2.405-0.681,2.715-2.452,0.615-5.682c4.541,6.643-1.086,10-6.574,6.88
					c0,0,0.501-2.634-1.256-4.499C335.145,255.238,331.206,252.581,331.206,252.581z M338.158,261.602
					c0.227-1.01,0.011-2.078-0.405-3.025c-1.163-2.647-3.687-4.329-6.264-5.742c2.982,2.679,5.82,6.863,3.279,9.394
					c-2.62,2.609-6.804,0.004-6.81,0c1.434,1.326,3.146,2.404,5.072,2.594C335.226,265.04,337.673,263.756,338.158,261.602z"/>
				<g>
					<g>
						<path style="fill:#63331E;" d="M338.176,262.006c2.667,1.117,6.802,2.223,8.505-1.096c1.302-2.539-0.947-5.602-2.524-7.481
							c-1.884-2.245-4.536-4.701-7.595-5.025c-2.757-0.292-4.945,1.49-5.679,4.089c-0.106,0.375,0.411,0.575,0.614,0.259
							c1.292-2.012,2.607-3.703,5.246-3.306c2.168,0.326,4.046,1.887,5.56,3.365c1.28,1.25,2.42,2.707,3.23,4.31
							c1.192,2.36,0.109,4.926-2.682,5.211c-1.549,0.158-3.067-0.434-4.497-0.966C337.946,261.214,337.792,261.845,338.176,262.006
							L338.176,262.006z"/>
					</g>
				</g>
				<g>
					<g>
						<path style="fill:#63331E;" d="M327.258,261.767c2.614,2.773,8.94,5.743,11.099,0.623c1.98-4.697-4.257-9.309-8.008-10.542
							c-0.397-0.131-0.544,0.406-0.262,0.621c2.728,2.089,6.43,3.265,7.503,6.957c0.965,3.32-2.223,5.504-5.194,4.966
							c-1.895-0.343-3.527-1.595-4.916-2.846C327.33,261.412,327.119,261.62,327.258,261.767L327.258,261.767z"/>
					</g>
				</g>
			</g>
		</g>
	</g>
</g>
</svg>
