<?xml version="1.0" encoding="utf-8"?>
<!-- Generator: Adobe Illustrator 27.5.0, SVG Export Plug-In . SVG Version: 6.00 Build 0)  -->
<svg version="1.1" xmlns="http://www.w3.org/2000/svg" xmlns:xlink="http://www.w3.org/1999/xlink" x="0px" y="0px"
	 viewBox="0 0 750 500" style="enable-background:new 0 0 750 500;" xml:space="preserve">
<g id="BACKGROUND">
	<rect style="fill:#1C3A57;" width="750" height="500"/>
</g>
<g id="OBJECTS">
	<g>
		<defs>
			<rect id="SVGID_1_" width="750" height="500"/>
		</defs>
		<clipPath id="SVGID_00000148663448385365820040000002347111423763015314_">
			<use xlink:href="#SVGID_1_"  style="overflow:visible;"/>
		</clipPath>
		
			<circle style="clip-path:url(#SVGID_00000148663448385365820040000002347111423763015314_);fill:#1C558C;" cx="556.177" cy="100.041" r="25.569"/>
		
			<ellipse transform="matrix(0.2316 -0.9728 0.9728 0.2316 -197.8088 401.6601)" style="clip-path:url(#SVGID_00000148663448385365820040000002347111423763015314_);fill:#2571BA;" cx="155.345" cy="326.042" rx="18.435" ry="18.435"/>
		
			<ellipse transform="matrix(0.9547 -0.2976 0.2976 0.9547 -81.4817 29.6929)" style="clip-path:url(#SVGID_00000148663448385365820040000002347111423763015314_);fill:#2571BA;" cx="56.766" cy="282.42" rx="11.636" ry="11.636"/>
		
			<circle style="clip-path:url(#SVGID_00000148663448385365820040000002347111423763015314_);fill:#2571BA;" cx="614.586" cy="504.159" r="46.061"/>
		<g style="clip-path:url(#SVGID_00000148663448385365820040000002347111423763015314_);">
			<path style="fill:none;stroke:#F4D160;stroke-width:3;stroke-linecap:round;stroke-miterlimit:10;" d="M410.74,34.818
				c12.112,0,12.112,14,24.224,14c12.112,0,12.112-14,24.224-14c12.113,0,12.113,14,24.225,14c12.114,0,12.114-14,24.228-14
				s12.114,14,24.228,14"/>
		</g>
		<g style="clip-path:url(#SVGID_00000148663448385365820040000002347111423763015314_);">
			<path style="fill:none;stroke:#2571BA;stroke-width:18;stroke-miterlimit:10;" d="M128.152,96.2c0-12.112,14-12.112,14-24.224
				c0-12.112-14-12.112-14-24.224c0-12.112,14-12.112,14-24.225c0-12.114-14-12.114-14-24.228c0-12.114,14-12.114,14-24.228"/>
		</g>
		
			<ellipse transform="matrix(0.1602 -0.9871 0.9871 0.1602 386.7346 780.4274)" style="clip-path:url(#SVGID_00000148663448385365820040000002347111423763015314_);fill:none;stroke:#F4D160;stroke-width:3;stroke-miterlimit:10;" cx="652.008" cy="162.938" rx="32.592" ry="32.592"/>
		
			<circle style="clip-path:url(#SVGID_00000148663448385365820040000002347111423763015314_);fill:none;stroke:#F4D160;stroke-width:3;stroke-miterlimit:10;" cx="10.412" cy="395.661" r="60.044"/>
		
			<path style="clip-path:url(#SVGID_00000148663448385365820040000002347111423763015314_);fill:none;stroke:#2571BA;stroke-width:18;stroke-miterlimit:10;" d="
			M587.189-15.808v35.313c0,33.747,27.358,61.105,61.105,61.105H929.78"/>
		
			<path style="clip-path:url(#SVGID_00000148663448385365820040000002347111423763015314_);fill:none;stroke:#1C558C;stroke-width:18;stroke-miterlimit:10;" d="
			M106.906,576.907H-77.793V211.132H55.994c28.118,0,50.911,22.794,50.911,50.911V576.907z"/>
		
			<line style="clip-path:url(#SVGID_00000148663448385365820040000002347111423763015314_);fill:none;stroke:#FFFFFF;stroke-width:7;stroke-miterlimit:10;" x1="136.74" y1="448.319" x2="173.098" y2="448.319"/>
		
			<line style="clip-path:url(#SVGID_00000148663448385365820040000002347111423763015314_);fill:none;stroke:#FFFFFF;stroke-width:7;stroke-miterlimit:10;" x1="136.74" y1="463.557" x2="173.098" y2="463.557"/>
		
			<line style="clip-path:url(#SVGID_00000148663448385365820040000002347111423763015314_);fill:none;stroke:#FFFFFF;stroke-width:7;stroke-miterlimit:10;" x1="136.74" y1="478.795" x2="173.098" y2="478.795"/>
		<g style="clip-path:url(#SVGID_00000148663448385365820040000002347111423763015314_);">
			
				<line style="fill:none;stroke:#FFFFFF;stroke-width:7;stroke-miterlimit:10;" x1="726.839" y1="110.502" x2="784.183" y2="110.502"/>
			
				<line style="fill:none;stroke:#FFFFFF;stroke-width:7;stroke-miterlimit:10;" x1="726.839" y1="125.741" x2="784.183" y2="125.741"/>
			
				<line style="fill:none;stroke:#FFFFFF;stroke-width:7;stroke-miterlimit:10;" x1="726.839" y1="140.979" x2="784.183" y2="140.979"/>
		</g>
		<g style="clip-path:url(#SVGID_00000148663448385365820040000002347111423763015314_);">
			
				<line style="fill:none;stroke:#FFFFFF;stroke-width:7;stroke-miterlimit:10;" x1="229.346" y1="-35.709" x2="229.346" y2="21.635"/>
			
				<line style="fill:none;stroke:#FFFFFF;stroke-width:7;stroke-miterlimit:10;" x1="214.108" y1="-35.709" x2="214.108" y2="21.635"/>
			
				<line style="fill:none;stroke:#FFFFFF;stroke-width:7;stroke-miterlimit:10;" x1="198.87" y1="-35.709" x2="198.87" y2="21.635"/>
		</g>
		<g style="clip-path:url(#SVGID_00000148663448385365820040000002347111423763015314_);">
			
				<line style="fill:none;stroke:#FFFFFF;stroke-width:7;stroke-miterlimit:10;" x1="275.459" y1="-35.709" x2="275.459" y2="21.635"/>
			
				<line style="fill:none;stroke:#FFFFFF;stroke-width:7;stroke-miterlimit:10;" x1="260.22" y1="-35.709" x2="260.22" y2="21.635"/>
			
				<line style="fill:none;stroke:#FFFFFF;stroke-width:7;stroke-miterlimit:10;" x1="244.982" y1="-35.709" x2="244.982" y2="21.635"/>
		</g>
		
			<path style="clip-path:url(#SVGID_00000148663448385365820040000002347111423763015314_);fill:none;stroke:#FFFFFF;stroke-width:7;stroke-miterlimit:10;" d="
			M129.402,109.995L129.402,109.995c-4.592,0-8.314-3.722-8.314-8.314l0,0c0-4.592,3.722-8.314,8.314-8.314h0
			c4.592,0,8.314,3.722,8.314,8.314l0,0C137.716,106.273,133.994,109.995,129.402,109.995z"/>
		
			<path style="clip-path:url(#SVGID_00000148663448385365820040000002347111423763015314_);fill:none;stroke:#FFFFFF;stroke-width:7;stroke-miterlimit:10;" d="
			M419.875,438.451L419.875,438.451c3.247,3.247,3.247,8.511,0,11.757l0,0c-3.247,3.247-8.511,3.247-11.757,0l0,0
			c-3.247-3.247-3.247-8.511,0-11.757l0,0C411.365,435.204,416.629,435.204,419.875,438.451z"/>
		<path style="clip-path:url(#SVGID_00000148663448385365820040000002347111423763015314_);fill:#2571BA;" d="M422.353,399.227
			v-0.01c-4.61-4.6-12.1-4.6-16.71,0.01c-4.61,4.6-4.61,12.1,0,16.7c2.3,2.31,5.33,3.46,8.35,3.46c3.03,0,6.05-1.15,8.36-3.46
			C426.953,411.327,426.953,403.827,422.353,399.227z"/>
		<path style="clip-path:url(#SVGID_00000148663448385365820040000002347111423763015314_);fill:#1C558C;" d="M422.353,361.737
			v-0.01c-4.61-4.6-12.1-4.6-16.71,0.01c-4.61,4.6-4.61,12.1,0,16.7c2.3,2.31,5.33,3.46,8.35,3.46c3.03,0,6.05-1.15,8.36-3.46
			C426.953,373.837,426.953,366.337,422.353,361.737z"/>
		
			<path style="clip-path:url(#SVGID_00000148663448385365820040000002347111423763015314_);fill:none;stroke:#F4D160;stroke-width:3;stroke-miterlimit:10;" d="
			M679.505,482.47H635.26v-44.245c0-19.884,16.119-36.002,36.002-36.002h44.245v44.245
			C715.507,466.351,699.388,482.47,679.505,482.47z"/>
		
			<path style="clip-path:url(#SVGID_00000148663448385365820040000002347111423763015314_);fill:none;stroke:#F4D160;stroke-width:3;stroke-miterlimit:10;" d="
			M-5.007,66.803l31.286-31.286l31.286,31.286c14.06,14.06,14.06,36.855,0,50.915l-31.286,31.286l-31.286-31.286
			C-19.067,103.658-19.067,80.863-5.007,66.803z"/>
		
			<path style="clip-path:url(#SVGID_00000148663448385365820040000002347111423763015314_);fill:none;stroke:#F4D160;stroke-width:3;stroke-linecap:round;stroke-miterlimit:10;" d="
			M452.591,473.791H279.716c-19.694,0-35.659,15.965-35.659,35.659v98.249h166.77"/>
		
			<path style="clip-path:url(#SVGID_00000148663448385365820040000002347111423763015314_);fill:none;stroke:#2571BA;stroke-width:18;stroke-miterlimit:10;" d="
			M831.911,251.597H769.74c-30.959,0-56.056,25.097-56.056,56.056v0c0,30.959,25.097,56.056,56.056,56.056h82.555"/>
		<g style="clip-path:url(#SVGID_00000148663448385365820040000002347111423763015314_);">
			<g>
				<circle style="fill:#FFFFFF;" cx="160.977" cy="197.346" r="1.379"/>
				<path style="fill:#FFFFFF;" d="M162.356,207.479c0,0.762-0.617,1.379-1.379,1.379s-1.379-0.617-1.379-1.379
					c0-0.762,0.618-1.379,1.379-1.379S162.356,206.718,162.356,207.479z"/>
				<path style="fill:#FFFFFF;" d="M162.356,217.613c0,0.762-0.617,1.379-1.379,1.379s-1.379-0.618-1.379-1.379
					c0-0.762,0.618-1.379,1.379-1.379S162.356,216.851,162.356,217.613z"/>
				<circle style="fill:#FFFFFF;" cx="160.977" cy="227.746" r="1.379"/>
				<circle style="fill:#FFFFFF;" cx="160.977" cy="237.879" r="1.379"/>
				<circle style="fill:#FFFFFF;" cx="160.977" cy="248.013" r="1.379"/>
			</g>
			<g>
				<circle style="fill:#FFFFFF;" cx="171.447" cy="197.346" r="1.379"/>
				<path style="fill:#FFFFFF;" d="M172.826,207.479c0,0.762-0.617,1.379-1.379,1.379c-0.762,0-1.379-0.617-1.379-1.379
					c0-0.762,0.617-1.379,1.379-1.379C172.209,206.1,172.826,206.718,172.826,207.479z"/>
				<path style="fill:#FFFFFF;" d="M172.826,217.613c0,0.762-0.617,1.379-1.379,1.379c-0.762,0-1.379-0.618-1.379-1.379
					c0-0.762,0.617-1.379,1.379-1.379C172.209,216.234,172.826,216.851,172.826,217.613z"/>
				<circle style="fill:#FFFFFF;" cx="171.447" cy="227.746" r="1.379"/>
				<circle style="fill:#FFFFFF;" cx="171.447" cy="237.879" r="1.379"/>
				<circle style="fill:#FFFFFF;" cx="171.447" cy="248.013" r="1.379"/>
			</g>
		</g>
		<g style="clip-path:url(#SVGID_00000148663448385365820040000002347111423763015314_);">
			<defs>
				
					<ellipse id="SVGID_00000118396233805365990710000010313169374457640834_" transform="matrix(0.2298 -0.9732 0.9732 0.2298 263.4947 767.0464)" cx="616.35" cy="217.053" rx="53.699" ry="53.699"/>
			</defs>
			<clipPath id="SVGID_00000134961613159397397770000001925274728341779110_">
				<use xlink:href="#SVGID_00000118396233805365990710000010313169374457640834_"  style="overflow:visible;"/>
			</clipPath>
			<g style="clip-path:url(#SVGID_00000134961613159397397770000001925274728341779110_);">
				<g>
					<circle style="fill:#FFFFFF;" cx="568.584" cy="160.678" r="1.379"/>
					<circle style="fill:#FFFFFF;" cx="568.584" cy="170.811" r="1.379"/>
					<path style="fill:#FFFFFF;" d="M569.963,180.945c0,0.762-0.617,1.379-1.379,1.379s-1.379-0.617-1.379-1.379
						s0.617-1.379,1.379-1.379S569.963,180.183,569.963,180.945z"/>
					<path style="fill:#FFFFFF;" d="M569.963,191.078c0,0.762-0.617,1.379-1.379,1.379s-1.379-0.618-1.379-1.379
						c0-0.762,0.617-1.379,1.379-1.379S569.963,190.316,569.963,191.078z"/>
					<circle style="fill:#FFFFFF;" cx="568.584" cy="201.211" r="1.379"/>
					<circle style="fill:#FFFFFF;" cx="568.584" cy="211.345" r="1.379"/>
				</g>
				<g>
					<circle style="fill:#FFFFFF;" cx="579.054" cy="160.678" r="1.379"/>
					<circle style="fill:#FFFFFF;" cx="579.054" cy="170.811" r="1.379"/>
					<path style="fill:#FFFFFF;" d="M580.434,180.945c0,0.762-0.617,1.379-1.379,1.379s-1.379-0.617-1.379-1.379
						s0.617-1.379,1.379-1.379S580.434,180.183,580.434,180.945z"/>
					<path style="fill:#FFFFFF;" d="M580.434,191.078c0,0.762-0.617,1.379-1.379,1.379s-1.379-0.618-1.379-1.379
						c0-0.762,0.617-1.379,1.379-1.379S580.434,190.316,580.434,191.078z"/>
					<circle style="fill:#FFFFFF;" cx="579.054" cy="201.211" r="1.379"/>
					<circle style="fill:#FFFFFF;" cx="579.054" cy="211.345" r="1.379"/>
				</g>
			</g>
			<g style="clip-path:url(#SVGID_00000134961613159397397770000001925274728341779110_);">
				<g>
					<circle style="fill:#FFFFFF;" cx="590.106" cy="160.678" r="1.379"/>
					<circle style="fill:#FFFFFF;" cx="590.106" cy="170.811" r="1.379"/>
					<path style="fill:#FFFFFF;" d="M591.485,180.945c0,0.762-0.618,1.379-1.379,1.379c-0.762,0-1.379-0.617-1.379-1.379
						s0.617-1.379,1.379-1.379C590.867,179.565,591.485,180.183,591.485,180.945z"/>
					<path style="fill:#FFFFFF;" d="M591.485,191.078c0,0.762-0.618,1.379-1.379,1.379c-0.762,0-1.379-0.618-1.379-1.379
						c0-0.762,0.617-1.379,1.379-1.379C590.867,189.699,591.485,190.316,591.485,191.078z"/>
					<circle style="fill:#FFFFFF;" cx="590.106" cy="201.211" r="1.379"/>
					<circle style="fill:#FFFFFF;" cx="590.106" cy="211.345" r="1.379"/>
				</g>
				<g>
					<circle style="fill:#FFFFFF;" cx="600.576" cy="160.678" r="1.379"/>
					<circle style="fill:#FFFFFF;" cx="600.576" cy="170.811" r="1.379"/>
					<path style="fill:#FFFFFF;" d="M601.955,180.945c0,0.762-0.618,1.379-1.379,1.379c-0.762,0-1.379-0.617-1.379-1.379
						s0.617-1.379,1.379-1.379C601.338,179.565,601.955,180.183,601.955,180.945z"/>
					<path style="fill:#FFFFFF;" d="M601.955,191.078c0,0.762-0.618,1.379-1.379,1.379c-0.762,0-1.379-0.618-1.379-1.379
						c0-0.762,0.617-1.379,1.379-1.379C601.338,189.699,601.955,190.316,601.955,191.078z"/>
					<circle style="fill:#FFFFFF;" cx="600.576" cy="201.211" r="1.379"/>
					<circle style="fill:#FFFFFF;" cx="600.576" cy="211.345" r="1.379"/>
				</g>
			</g>
			<g style="clip-path:url(#SVGID_00000134961613159397397770000001925274728341779110_);">
				<g>
					<circle style="fill:#FFFFFF;" cx="611.627" cy="160.678" r="1.379"/>
					<circle style="fill:#FFFFFF;" cx="611.627" cy="170.811" r="1.379"/>
					<path style="fill:#FFFFFF;" d="M613.006,180.945c0,0.762-0.617,1.379-1.379,1.379c-0.762,0-1.379-0.617-1.379-1.379
						s0.618-1.379,1.379-1.379C612.389,179.565,613.006,180.183,613.006,180.945z"/>
					<path style="fill:#FFFFFF;" d="M613.006,191.078c0,0.762-0.617,1.379-1.379,1.379c-0.762,0-1.379-0.618-1.379-1.379
						c0-0.762,0.618-1.379,1.379-1.379C612.389,189.699,613.006,190.316,613.006,191.078z"/>
					<circle style="fill:#FFFFFF;" cx="611.627" cy="201.211" r="1.379"/>
					<circle style="fill:#FFFFFF;" cx="611.627" cy="211.345" r="1.379"/>
				</g>
				<g>
					<circle style="fill:#FFFFFF;" cx="622.098" cy="160.678" r="1.379"/>
					<circle style="fill:#FFFFFF;" cx="622.098" cy="170.811" r="1.379"/>
					<path style="fill:#FFFFFF;" d="M623.477,180.945c0,0.762-0.617,1.379-1.379,1.379c-0.762,0-1.379-0.617-1.379-1.379
						s0.618-1.379,1.379-1.379C622.859,179.565,623.477,180.183,623.477,180.945z"/>
					<path style="fill:#FFFFFF;" d="M623.477,191.078c0,0.762-0.617,1.379-1.379,1.379c-0.762,0-1.379-0.618-1.379-1.379
						c0-0.762,0.618-1.379,1.379-1.379C622.859,189.699,623.477,190.316,623.477,191.078z"/>
					<circle style="fill:#FFFFFF;" cx="622.098" cy="201.211" r="1.379"/>
					<circle style="fill:#FFFFFF;" cx="622.098" cy="211.345" r="1.379"/>
				</g>
			</g>
			<g style="clip-path:url(#SVGID_00000134961613159397397770000001925274728341779110_);">
				<g>
					<circle style="fill:#FFFFFF;" cx="633.149" cy="160.678" r="1.379"/>
					<circle style="fill:#FFFFFF;" cx="633.149" cy="170.811" r="1.379"/>
					<path style="fill:#FFFFFF;" d="M634.528,180.945c0,0.762-0.617,1.379-1.379,1.379s-1.379-0.617-1.379-1.379
						s0.617-1.379,1.379-1.379S634.528,180.183,634.528,180.945z"/>
					<path style="fill:#FFFFFF;" d="M634.528,191.078c0,0.762-0.617,1.379-1.379,1.379s-1.379-0.618-1.379-1.379
						c0-0.762,0.617-1.379,1.379-1.379S634.528,190.316,634.528,191.078z"/>
					<circle style="fill:#FFFFFF;" cx="633.149" cy="201.211" r="1.379"/>
					<circle style="fill:#FFFFFF;" cx="633.149" cy="211.345" r="1.379"/>
				</g>
				<g>
					<circle style="fill:#FFFFFF;" cx="643.619" cy="160.678" r="1.379"/>
					<circle style="fill:#FFFFFF;" cx="643.619" cy="170.811" r="1.379"/>
					<path style="fill:#FFFFFF;" d="M644.998,180.945c0,0.762-0.617,1.379-1.379,1.379s-1.379-0.617-1.379-1.379
						s0.617-1.379,1.379-1.379S644.998,180.183,644.998,180.945z"/>
					<path style="fill:#FFFFFF;" d="M644.998,191.078c0,0.762-0.617,1.379-1.379,1.379s-1.379-0.618-1.379-1.379
						c0-0.762,0.617-1.379,1.379-1.379S644.998,190.316,644.998,191.078z"/>
					<circle style="fill:#FFFFFF;" cx="643.619" cy="201.211" r="1.379"/>
					<circle style="fill:#FFFFFF;" cx="643.619" cy="211.345" r="1.379"/>
				</g>
			</g>
			<g style="clip-path:url(#SVGID_00000134961613159397397770000001925274728341779110_);">
				<g>
					<circle style="fill:#FFFFFF;" cx="654.671" cy="160.678" r="1.379"/>
					<circle style="fill:#FFFFFF;" cx="654.671" cy="170.811" r="1.379"/>
					<path style="fill:#FFFFFF;" d="M656.05,180.945c0,0.762-0.618,1.379-1.379,1.379c-0.762,0-1.379-0.617-1.379-1.379
						s0.617-1.379,1.379-1.379C655.432,179.565,656.05,180.183,656.05,180.945z"/>
					<path style="fill:#FFFFFF;" d="M656.05,191.078c0,0.762-0.618,1.379-1.379,1.379c-0.762,0-1.379-0.618-1.379-1.379
						c0-0.762,0.617-1.379,1.379-1.379C655.432,189.699,656.05,190.316,656.05,191.078z"/>
					<circle style="fill:#FFFFFF;" cx="654.671" cy="201.211" r="1.379"/>
					<circle style="fill:#FFFFFF;" cx="654.671" cy="211.345" r="1.379"/>
				</g>
				<g>
					<circle style="fill:#FFFFFF;" cx="665.141" cy="160.678" r="1.379"/>
					<circle style="fill:#FFFFFF;" cx="665.141" cy="170.811" r="1.379"/>
					<path style="fill:#FFFFFF;" d="M666.52,180.945c0,0.762-0.618,1.379-1.379,1.379c-0.762,0-1.379-0.617-1.379-1.379
						s0.617-1.379,1.379-1.379C665.903,179.565,666.52,180.183,666.52,180.945z"/>
					<path style="fill:#FFFFFF;" d="M666.52,191.078c0,0.762-0.618,1.379-1.379,1.379c-0.762,0-1.379-0.618-1.379-1.379
						c0-0.762,0.617-1.379,1.379-1.379C665.903,189.699,666.52,190.316,666.52,191.078z"/>
					<circle style="fill:#FFFFFF;" cx="665.141" cy="201.211" r="1.379"/>
					<circle style="fill:#FFFFFF;" cx="665.141" cy="211.345" r="1.379"/>
				</g>
			</g>
			<g style="clip-path:url(#SVGID_00000134961613159397397770000001925274728341779110_);">
				<g>
					<path style="fill:#FFFFFF;" d="M569.963,222.314c0,0.762-0.617,1.379-1.379,1.379s-1.379-0.617-1.379-1.379
						s0.617-1.379,1.379-1.379S569.963,221.552,569.963,222.314z"/>
					<circle style="fill:#FFFFFF;" cx="568.584" cy="232.447" r="1.379"/>
					<circle style="fill:#FFFFFF;" cx="568.584" cy="242.581" r="1.379"/>
					<circle style="fill:#FFFFFF;" cx="568.584" cy="252.714" r="1.379"/>
					<circle style="fill:#FFFFFF;" cx="568.584" cy="262.848" r="1.379"/>
					<circle style="fill:#FFFFFF;" cx="568.584" cy="272.981" r="1.379"/>
				</g>
				<g>
					<path style="fill:#FFFFFF;" d="M580.434,222.314c0,0.762-0.617,1.379-1.379,1.379s-1.379-0.617-1.379-1.379
						s0.617-1.379,1.379-1.379S580.434,221.552,580.434,222.314z"/>
					<circle style="fill:#FFFFFF;" cx="579.054" cy="232.447" r="1.379"/>
					<circle style="fill:#FFFFFF;" cx="579.054" cy="242.581" r="1.379"/>
					<circle style="fill:#FFFFFF;" cx="579.054" cy="252.714" r="1.379"/>
					<circle style="fill:#FFFFFF;" cx="579.054" cy="262.848" r="1.379"/>
					<circle style="fill:#FFFFFF;" cx="579.054" cy="272.981" r="1.379"/>
				</g>
			</g>
			<g style="clip-path:url(#SVGID_00000134961613159397397770000001925274728341779110_);">
				<g>
					<path style="fill:#FFFFFF;" d="M591.485,222.314c0,0.762-0.618,1.379-1.379,1.379c-0.762,0-1.379-0.617-1.379-1.379
						s0.617-1.379,1.379-1.379C590.867,220.935,591.485,221.552,591.485,222.314z"/>
					<circle style="fill:#FFFFFF;" cx="590.106" cy="232.447" r="1.379"/>
					<circle style="fill:#FFFFFF;" cx="590.106" cy="242.581" r="1.379"/>
					<circle style="fill:#FFFFFF;" cx="590.106" cy="252.714" r="1.379"/>
					<circle style="fill:#FFFFFF;" cx="590.106" cy="262.848" r="1.379"/>
					<circle style="fill:#FFFFFF;" cx="590.106" cy="272.981" r="1.379"/>
				</g>
				<g>
					<path style="fill:#FFFFFF;" d="M601.955,222.314c0,0.762-0.618,1.379-1.379,1.379c-0.762,0-1.379-0.617-1.379-1.379
						s0.617-1.379,1.379-1.379C601.338,220.935,601.955,221.552,601.955,222.314z"/>
					<circle style="fill:#FFFFFF;" cx="600.576" cy="232.447" r="1.379"/>
					<circle style="fill:#FFFFFF;" cx="600.576" cy="242.581" r="1.379"/>
					<circle style="fill:#FFFFFF;" cx="600.576" cy="252.714" r="1.379"/>
					<circle style="fill:#FFFFFF;" cx="600.576" cy="262.848" r="1.379"/>
					<circle style="fill:#FFFFFF;" cx="600.576" cy="272.981" r="1.379"/>
				</g>
			</g>
			<g style="clip-path:url(#SVGID_00000134961613159397397770000001925274728341779110_);">
				<g>
					<path style="fill:#FFFFFF;" d="M613.006,222.314c0,0.762-0.617,1.379-1.379,1.379c-0.762,0-1.379-0.617-1.379-1.379
						s0.618-1.379,1.379-1.379C612.389,220.935,613.006,221.552,613.006,222.314z"/>
					<circle style="fill:#FFFFFF;" cx="611.627" cy="232.447" r="1.379"/>
					<circle style="fill:#FFFFFF;" cx="611.627" cy="242.581" r="1.379"/>
					<circle style="fill:#FFFFFF;" cx="611.627" cy="252.714" r="1.379"/>
					<circle style="fill:#FFFFFF;" cx="611.627" cy="262.848" r="1.379"/>
					<circle style="fill:#FFFFFF;" cx="611.627" cy="272.981" r="1.379"/>
				</g>
				<g>
					<path style="fill:#FFFFFF;" d="M623.477,222.314c0,0.762-0.617,1.379-1.379,1.379c-0.762,0-1.379-0.617-1.379-1.379
						s0.618-1.379,1.379-1.379C622.859,220.935,623.477,221.552,623.477,222.314z"/>
					<circle style="fill:#FFFFFF;" cx="622.098" cy="232.447" r="1.379"/>
					<circle style="fill:#FFFFFF;" cx="622.098" cy="242.581" r="1.379"/>
					<circle style="fill:#FFFFFF;" cx="622.098" cy="252.714" r="1.379"/>
					<circle style="fill:#FFFFFF;" cx="622.098" cy="262.848" r="1.379"/>
					<circle style="fill:#FFFFFF;" cx="622.098" cy="272.981" r="1.379"/>
				</g>
			</g>
			<g style="clip-path:url(#SVGID_00000134961613159397397770000001925274728341779110_);">
				<g>
					<path style="fill:#FFFFFF;" d="M634.528,222.314c0,0.762-0.617,1.379-1.379,1.379s-1.379-0.617-1.379-1.379
						s0.617-1.379,1.379-1.379S634.528,221.552,634.528,222.314z"/>
					<circle style="fill:#FFFFFF;" cx="633.149" cy="232.447" r="1.379"/>
					<circle style="fill:#FFFFFF;" cx="633.149" cy="242.581" r="1.379"/>
					<circle style="fill:#FFFFFF;" cx="633.149" cy="252.714" r="1.379"/>
					<circle style="fill:#FFFFFF;" cx="633.149" cy="262.848" r="1.379"/>
					<circle style="fill:#FFFFFF;" cx="633.149" cy="272.981" r="1.379"/>
				</g>
				<g>
					<path style="fill:#FFFFFF;" d="M644.998,222.314c0,0.762-0.617,1.379-1.379,1.379s-1.379-0.617-1.379-1.379
						s0.617-1.379,1.379-1.379S644.998,221.552,644.998,222.314z"/>
					<circle style="fill:#FFFFFF;" cx="643.619" cy="232.447" r="1.379"/>
					<circle style="fill:#FFFFFF;" cx="643.619" cy="242.581" r="1.379"/>
					<circle style="fill:#FFFFFF;" cx="643.619" cy="252.714" r="1.379"/>
					<circle style="fill:#FFFFFF;" cx="643.619" cy="262.848" r="1.379"/>
					<circle style="fill:#FFFFFF;" cx="643.619" cy="272.981" r="1.379"/>
				</g>
			</g>
			<g style="clip-path:url(#SVGID_00000134961613159397397770000001925274728341779110_);">
				<g>
					<path style="fill:#FFFFFF;" d="M656.05,222.314c0,0.762-0.618,1.379-1.379,1.379c-0.762,0-1.379-0.617-1.379-1.379
						s0.617-1.379,1.379-1.379C655.432,220.935,656.05,221.552,656.05,222.314z"/>
					<circle style="fill:#FFFFFF;" cx="654.671" cy="232.447" r="1.379"/>
					<circle style="fill:#FFFFFF;" cx="654.671" cy="242.581" r="1.379"/>
					<circle style="fill:#FFFFFF;" cx="654.671" cy="252.714" r="1.379"/>
					<circle style="fill:#FFFFFF;" cx="654.671" cy="262.848" r="1.379"/>
					<circle style="fill:#FFFFFF;" cx="654.671" cy="272.981" r="1.379"/>
				</g>
				<g>
					<path style="fill:#FFFFFF;" d="M666.52,222.314c0,0.762-0.618,1.379-1.379,1.379c-0.762,0-1.379-0.617-1.379-1.379
						s0.617-1.379,1.379-1.379C665.903,220.935,666.52,221.552,666.52,222.314z"/>
					<circle style="fill:#FFFFFF;" cx="665.141" cy="232.447" r="1.379"/>
					<circle style="fill:#FFFFFF;" cx="665.141" cy="242.581" r="1.379"/>
					<circle style="fill:#FFFFFF;" cx="665.141" cy="252.714" r="1.379"/>
					<circle style="fill:#FFFFFF;" cx="665.141" cy="262.848" r="1.379"/>
					<circle style="fill:#FFFFFF;" cx="665.141" cy="272.981" r="1.379"/>
				</g>
			</g>
		</g>
		<g style="clip-path:url(#SVGID_00000148663448385365820040000002347111423763015314_);">
			
				<line style="fill:none;stroke:#1C558C;stroke-width:3;stroke-linecap:round;stroke-miterlimit:10;" x1="561.977" y1="426.274" x2="581.327" y2="406.924"/>
			
				<line style="fill:none;stroke:#1C558C;stroke-width:3;stroke-linecap:round;stroke-miterlimit:10;" x1="591.308" y1="396.943" x2="610.658" y2="377.593"/>
			
				<line style="fill:none;stroke:#1C558C;stroke-width:3;stroke-linecap:round;stroke-miterlimit:10;" x1="585.294" y1="421.092" x2="604.644" y2="401.743"/>
			
				<line style="fill:none;stroke:#1C558C;stroke-width:3;stroke-linecap:round;stroke-miterlimit:10;" x1="555.656" y1="450.731" x2="575.006" y2="431.381"/>
			
				<line style="fill:none;stroke:#1C558C;stroke-width:3;stroke-linecap:round;stroke-miterlimit:10;" x1="613.754" y1="392.632" x2="633.104" y2="373.282"/>
		</g>
		<g style="clip-path:url(#SVGID_00000148663448385365820040000002347111423763015314_);">
			
				<line style="fill:none;stroke:#1C558C;stroke-width:3;stroke-linecap:round;stroke-miterlimit:10;" x1="345.749" y1="47.348" x2="365.099" y2="27.999"/>
			
				<line style="fill:none;stroke:#1C558C;stroke-width:3;stroke-linecap:round;stroke-miterlimit:10;" x1="352.498" y1="25.599" x2="371.848" y2="6.249"/>
			
				<line style="fill:none;stroke:#1C558C;stroke-width:3;stroke-linecap:round;stroke-miterlimit:10;" x1="322.86" y1="55.237" x2="342.21" y2="35.887"/>
		</g>
		<g style="clip-path:url(#SVGID_00000148663448385365820040000002347111423763015314_);">
			
				<line style="fill:none;stroke:#1C558C;stroke-width:3;stroke-linecap:round;stroke-miterlimit:10;" x1="581.096" y1="445.393" x2="600.446" y2="426.043"/>
		</g>
		<g style="clip-path:url(#SVGID_00000148663448385365820040000002347111423763015314_);">
			
				<line style="fill:none;stroke:#1C558C;stroke-width:3;stroke-linecap:round;stroke-miterlimit:10;" x1="65.819" y1="153.304" x2="85.169" y2="133.954"/>
			
				<line style="fill:none;stroke:#1C558C;stroke-width:3;stroke-linecap:round;stroke-miterlimit:10;" x1="89.136" y1="148.123" x2="108.486" y2="128.773"/>
			
				<line style="fill:none;stroke:#1C558C;stroke-width:3;stroke-linecap:round;stroke-miterlimit:10;" x1="59.498" y1="177.761" x2="78.848" y2="158.411"/>
		</g>
		
			<path style="clip-path:url(#SVGID_00000148663448385365820040000002347111423763015314_);fill:none;stroke:#1C558C;stroke-width:18;stroke-miterlimit:10;" d="
			M517.863,549.505h-60.187l0.341-117.319c0-16.62,13.473-30.094,30.094-30.094h0c16.62,0,30.094,13.473,30.094,30.094
			L517.863,549.505z"/>
	</g>
</g>
</svg>
