<?xml version="1.0" encoding="utf-8"?>
<!-- Generator: Adobe Illustrator 27.5.0, SVG Export Plug-In . SVG Version: 6.00 Build 0)  -->
<svg version="1.1" xmlns="http://www.w3.org/2000/svg" xmlns:xlink="http://www.w3.org/1999/xlink" x="0px" y="0px"
	 viewBox="0 0 500 500" style="enable-background:new 0 0 500 500;" xml:space="preserve">
<g id="BACKGROUND">
	<rect id="XMLID_25_" style="fill:#FFFFFF;" width="500" height="500"/>
</g>
<g id="OBJECT">
	<path id="XMLID_192_" style="fill:#D0D1D3;" d="M417.978,95.853H69.022c-18.621,0-33.77,15.149-33.77,33.77v239.46
		c0,18.621,15.149,33.77,33.77,33.77h277.534l21.564,25.64c3.42,4.08,9.33,4.8,13.61,1.87c0.37-0.25,0.73-0.52,1.07-0.83
		c2.25-2.02,3.4-4.82,3.4-7.63c0-2.37-0.81-4.75-2.47-6.68l-10.622-12.37h44.871c18.621,0,33.77-15.149,33.77-33.77v-239.46
		C451.748,111.003,436.599,95.853,417.978,95.853z"/>
	<g id="XMLID_207_">
		<path id="XMLID_85_" style="fill:#404044;" d="M82.022,390.853c-18.621,0-33.77-15.149-33.77-33.77v-239.46
			c0-18.621,15.149-33.77,33.77-33.77h348.957c18.621,0,33.77,15.149,33.77,33.77v239.46c0,18.621-15.149,33.77-33.77,33.77H82.022z
			"/>
		<path id="XMLID_183_" style="fill:#FFF1D4;" d="M450,119.353v234c0,12.7-10.3,23-23,23H86c-8.83,0-16.5-4.98-20.34-12.28
			c-0.64-1.2-1.17-2.46-1.58-3.77c-0.7-2.19-1.08-4.53-1.08-6.95v-234c0-12.7,10.3-23,23-23h341
			C439.7,96.353,450,106.653,450,119.353z"/>
		<g id="XMLID_81_">
			<g id="XMLID_136_">
				<path id="XMLID_139_" style="fill:none;stroke:#A6A8AA;stroke-width:2;stroke-miterlimit:10;" d="M85,374.353
					c0,0,0.762-0.431,2.165-1.241"/>
				
					<path id="XMLID_138_" style="fill:none;stroke:#A6A8AA;stroke-width:2;stroke-miterlimit:10;stroke-dasharray:4.9886,4.9886;" d="
					M91.471,370.602c20.373-11.978,83.154-50.212,105.362-79.082c26.667-34.667,34-60.667,57.333-86.667
					c23.333-26,50.667-32,60-60.667c8.673-26.639,8.423-35.143,27.067-43.703"/>
				<path id="XMLID_137_" style="fill:none;stroke:#A6A8AA;stroke-width:2;stroke-miterlimit:10;" d="M343.522,99.473
					c0.743-0.316,1.513-0.634,2.312-0.953"/>
			</g>
		</g>
		<path id="XMLID_20_" style="fill:#00B0B1;" d="M450,218.678v137.518c0,11.13-9.027,20.158-20.158,20.158h-68.728
			c-8.527-7.003-27.335-24.697-29.141-45.863c-2.331-27.467,20.456-49.079,50.832-46.161c30.385,2.918,14.023-34.469,35.056-54.338
			C427.888,220.527,440.035,218.354,450,218.678z"/>
		<path id="XMLID_23_" style="fill:#C6FF7C;" d="M309.748,280.422c0,0,8.585-19.946,28.586-26.089
			c20.001-6.142,29.804,3.491,41.895-18.132c12.092-21.623-5.451-27.302,0.228-44.845c5.679-17.543,17.94-19.73,15.375-28.009
			c-2.564-8.279-17.83-9.724-31.221,4.41c-13.392,14.134-28.476-3.366-49.322,18.768c-20.846,22.134-2.765,29.203-21.054,45.552
			s6.366,24.71-4.12,36.441C279.63,280.25,296.58,299.265,309.748,280.422z"/>
		<path id="XMLID_32_" style="fill:#C6FF7C;" d="M285.66,96.353c-5.24,13.15-33.38,27.09-58.16,22.5c-27-5-30,16-20,21s29,18-2,35
			s-24,40-52,78c-24.14,32.76-76.51,43.22-90.5,45.48v-178.98c0-12.7,10.3-23,23-23H285.66z"/>
		<path id="XMLID_172_" style="fill:#E0CEB3;" d="M313.04,323.503c17.81-17.18,28.87-41,28.87-67.3c0-52.21-43.57-94.68-97.12-94.68
			c-53.54,0-97.11,42.47-97.11,94.68s43.57,94.69,97.11,94.69c19.62,0,37.89-5.71,53.17-15.49l34.44,40.95h26.02L313.04,323.503z
			 M244.79,338.893c-46.93,0-85.11-37.1-85.11-82.69s38.18-82.68,85.11-82.68c46.94,0,85.12,37.09,85.12,82.68
			S291.73,338.893,244.79,338.893z"/>
		<g id="XMLID_34_">
			<path id="XMLID_135_" style="fill:#F6AF3B;" d="M316.36,96.353c-5.69,8.44-9.08,19.2-12.4,29.73
				c-3.65,11.59-7.1,22.54-13.39,30.51c-7.61,9.64-16.28,13.06-26.31,17.01c-10.2,4.03-21.77,8.59-34.87,21.19
				c-12.35,11.87-18.36,27.35-24.18,42.31c-6.23,16.05-12.68,32.65-26.91,44.77c-21.97,18.71-88.83,65.61-112.64,82.2
				c-0.64-1.2-1.17-2.46-1.58-3.77c13.63-9.5,40.21-28.13,64.75-45.91c-2-5.17-21.31-55.8-20.66-84.92
				c0.39-17.66,7.86-25.4,15.77-33.59c5.91-6.11,12.01-12.43,15.66-23.65c4.9-15.08-0.25-17.16-7.38-20.05
				c-4.37-1.77-9.32-3.77-11.86-9.14c-4.25-8.96,2.03-13.17,7.06-16.56c3.26-2.18,6.34-4.25,6.77-7.25
				c0.87-6.13-3.07-17.03-5.47-22.88h4.33c2.53,6.45,6.04,16.9,5.1,23.45c-0.68,4.76-4.83,7.55-8.5,10.01
				c-5.39,3.62-8.32,5.94-5.68,11.52c1.88,3.95,5.7,5.5,9.75,7.14c7.37,2.99,15.73,6.37,9.68,25c-3.93,12.1-10.65,19.05-16.58,25.19
				c-7.67,7.94-14.3,14.8-14.65,30.9c-0.6,26.69,16.8,73.9,20.02,82.4c18.01-13.1,34.55-25.5,43.51-33.13
				c13.47-11.47,19.45-26.87,25.79-43.18c5.97-15.37,12.14-31.26,25.12-43.74c13.68-13.15,25.63-17.87,36.18-22.03
				c9.5-3.74,17.7-6.98,24.64-15.77c2.39-3.02,4.36-6.59,6.09-10.52c-1.39-1.23-6.99-3.06-12.42-4.84c-6.13-2-13.74-4.48-22.36-8.05
				c-19.19-7.94-18.73-31.29-18.59-34.35h4.01c-0.05,0.65-1.47,23.38,16.1,30.65c8.48,3.51,16.02,5.97,22.08,7.95
				c6.13,2.01,10.3,3.37,12.74,4.89c1.82-4.68,3.43-9.75,5.07-14.96c3.13-9.94,6.32-20.08,11.44-28.53H316.36z"/>
			<path id="XMLID_152_" style="fill:#F6AF3B;" d="M300.28,376.353H296c-7.04-19.07-18.46-46.04-26.34-49.68
				c-4.3-1.99-7.94-2.06-10.81-0.23c-4.67,2.99-7.35,11.16-7.35,22.41c0,2.57-0.3,6.15-2.91,7.58c-3.3,1.8-7.76-1.07-13.92-5.04
				c-8.5-5.47-20.14-12.97-31.61-9.62c-9.12,2.66-16.97,11.9-25.29,21.68c-3.79,4.46-7.61,8.97-11.63,12.9h-5.88
				c4.94-4.28,9.65-9.82,14.47-15.49c8.33-9.8,16.94-19.94,27.21-22.93c13.23-3.85,25.75,4.21,34.89,10.1
				c3.64,2.34,8.63,5.55,9.85,4.88c0.03-0.01,0.82-0.49,0.82-4.06c0-12.83,3.27-21.98,9.2-25.78c2.81-1.8,7.64-3.26,14.64-0.04
				C281.39,327.673,293.84,358.623,300.28,376.353z"/>
		</g>
		<rect id="XMLID_29_" x="123.5" y="214.187" style="fill:#00ACEC;" width="22" height="18.333"/>
		<path id="XMLID_78_" style="fill:#9FC54D;" d="M400.5,198.853h-1.333c-4.602,0-8.333-3.731-8.333-8.333v0
			c0-4.602,3.731-8.333,8.333-8.333h1.333c4.602,0,8.333,3.731,8.333,8.333v0C408.833,195.122,405.102,198.853,400.5,198.853z"/>
		<rect id="XMLID_82_" x="191" y="361.853" style="fill:#D0D1D3;" width="37.5" height="9"/>
		<path id="XMLID_83_" style="fill:#9FC54D;" d="M144.167,140.52c0,2.393-1.94,4.333-4.333,4.333c-2.393,0-4.333-1.94-4.333-4.333
			c0-2.393,1.94-4.333,4.333-4.333C142.227,136.187,144.167,138.127,144.167,140.52z"/>
		<g id="XMLID_18_">
			<path id="XMLID_41_" style="fill:#06938F;" d="M403.321,297.378c-1.66,0-3.111-0.898-3.922-2.239
				c-0.811,1.342-2.262,2.239-3.922,2.239c-1.873,0-3.482-1.14-4.202-2.775c-0.007,0.015-0.016,0.028-0.023,0.043
				c-0.007-0.015-0.016-0.028-0.023-0.043c-0.72,1.635-2.329,2.775-4.202,2.775c-1.66,0-3.111-0.898-3.922-2.239
				c-0.811,1.342-2.262,2.239-3.922,2.239c-1.558,0-2.932-0.79-3.766-1.995v2.938c0.834,1.205,2.208,1.995,3.766,1.995
				c1.66,0,3.111-0.898,3.922-2.239c0.811,1.342,2.262,2.239,3.922,2.239c1.873,0,3.482-1.14,4.202-2.775
				c0.007,0.015,0.016,0.028,0.023,0.043c0.007-0.015,0.016-0.028,0.023-0.043c0.72,1.635,2.329,2.775,4.202,2.775
				c1.66,0,3.111-0.898,3.922-2.239c0.811,1.342,2.262,2.239,3.922,2.239c1.558,0,2.932-0.79,3.766-1.995v-2.938
				C406.253,296.588,404.878,297.378,403.321,297.378z"/>
		</g>
		<g id="XMLID_33_">
			<path id="XMLID_39_" style="fill:#06938F;" d="M403.321,303.003c-1.66,0-3.111-0.898-3.922-2.239
				c-0.811,1.342-2.262,2.239-3.922,2.239c-1.873,0-3.482-1.14-4.202-2.775c-0.007,0.015-0.016,0.028-0.023,0.043
				c-0.007-0.015-0.016-0.028-0.023-0.043c-0.72,1.635-2.329,2.775-4.202,2.775c-1.66,0-3.111-0.898-3.922-2.239
				c-0.811,1.342-2.262,2.239-3.922,2.239c-1.558,0-2.932-0.79-3.766-1.995v2.938c0.834,1.205,2.208,1.995,3.766,1.995
				c1.66,0,3.111-0.898,3.922-2.239c0.811,1.342,2.262,2.239,3.922,2.239c1.873,0,3.482-1.14,4.202-2.775
				c0.007,0.015,0.016,0.028,0.023,0.043c0.007-0.015,0.016-0.028,0.023-0.043c0.72,1.635,2.329,2.775,4.202,2.775
				c1.66,0,3.111-0.898,3.922-2.239c0.811,1.342,2.262,2.239,3.922,2.239c1.558,0,2.932-0.79,3.766-1.995v-2.938
				C406.253,302.213,404.878,303.003,403.321,303.003z"/>
		</g>
		<g id="XMLID_174_">
			<path id="XMLID_179_" style="fill:#06938F;" d="M442.089,260.822c-1.66,0-3.111-0.898-3.922-2.239
				c-0.811,1.342-2.262,2.239-3.922,2.239c-1.873,0-3.482-1.141-4.202-2.775c-0.007,0.015-0.016,0.028-0.023,0.043
				c-0.007-0.015-0.016-0.028-0.023-0.043c-0.72,1.635-2.329,2.775-4.202,2.775c-1.66,0-3.111-0.898-3.922-2.239
				c-0.811,1.342-2.262,2.239-3.922,2.239c-1.558,0-2.932-0.79-3.766-1.995v2.938c0.834,1.205,2.208,1.995,3.766,1.995
				c1.66,0,3.111-0.898,3.922-2.239c0.811,1.342,2.262,2.239,3.922,2.239c1.873,0,3.482-1.141,4.202-2.775
				c0.007,0.015,0.016,0.028,0.023,0.043c0.007-0.015,0.016-0.028,0.023-0.043c0.72,1.635,2.329,2.775,4.202,2.775
				c1.66,0,3.111-0.898,3.922-2.239c0.811,1.342,2.262,2.239,3.922,2.239c1.558,0,2.932-0.79,3.766-1.995v-2.938
				C445.021,260.032,443.647,260.822,442.089,260.822z"/>
		</g>
		<g id="XMLID_87_">
			<path id="XMLID_91_" style="fill:#06938F;" d="M442.089,266.447c-1.66,0-3.111-0.898-3.922-2.239
				c-0.811,1.342-2.262,2.239-3.922,2.239c-1.873,0-3.482-1.141-4.202-2.775c-0.007,0.015-0.016,0.028-0.023,0.043
				c-0.007-0.015-0.016-0.028-0.023-0.043c-0.72,1.635-2.329,2.775-4.202,2.775c-1.66,0-3.111-0.898-3.922-2.239
				c-0.811,1.342-2.262,2.239-3.922,2.239c-1.558,0-2.932-0.79-3.766-1.995v2.938c0.834,1.205,2.208,1.995,3.766,1.995
				c1.66,0,3.111-0.898,3.922-2.239c0.811,1.342,2.262,2.239,3.922,2.239c1.873,0,3.482-1.141,4.202-2.775
				c0.007,0.015,0.016,0.028,0.023,0.043c0.007-0.015,0.016-0.028,0.023-0.043c0.72,1.635,2.329,2.775,4.202,2.775
				c1.66,0,3.111-0.898,3.922-2.239c0.811,1.342,2.262,2.239,3.922,2.239c1.558,0,2.932-0.79,3.766-1.995v-2.938
				C445.021,265.657,443.647,266.447,442.089,266.447z"/>
		</g>
		<path id="XMLID_24_" style="fill:#FFFFFF;" d="M431.25,343.853h-68.833c-5.155,0-9.333-4.179-9.333-9.333v0
			c0-5.155,4.179-9.333,9.333-9.333h68.833c5.155,0,9.333,4.179,9.333,9.333v0C440.583,339.675,436.405,343.853,431.25,343.853z"/>
		
			<text id="XMLID_188_" transform="matrix(1 0 0 1 359.5 338.4032)" style="fill:#A6A8AA; font-family:'Alef-Regular'; font-size:14.7023px;">search</text>
		<circle id="XMLID_189_" style="fill:#D0D1D3;" cx="429.458" cy="334.228" r="5.125"/>
	</g>
	<g id="XMLID_198_">
		<g id="XMLID_193_">
			<g id="XMLID_11_">
				<polygon id="XMLID_22_" style="fill:#A8A8A8;" points="87.927,151.642 76.167,164.578 82.131,164.578 90.867,154.162 				"/>
				<rect id="XMLID_21_" x="82.131" y="164.368" style="fill:#BBBCBF;" width="19.782" height="17.64"/>
				<rect id="XMLID_19_" x="101.913" y="164.368" style="fill:#929496;" width="20.16" height="17.64"/>
				<polygon id="XMLID_17_" style="fill:#CED0D6;" points="90.867,154.162 82.131,164.578 101.913,164.578 				"/>
				<polygon id="XMLID_16_" style="fill:#BBBCBF;" points="87.927,151.642 102.071,165.029 126.484,164.998 115.144,151.81 				"/>
				<rect id="XMLID_15_" x="87.759" y="169.786" style="fill:#CED0D6;" width="7.392" height="12.096"/>
				<rect id="XMLID_13_" x="105.063" y="168.337" style="fill:#CED0D6;" width="5.103" height="2.835"/>
				<rect id="XMLID_12_" x="114.892" y="168.337" style="fill:#CED0D6;" width="5.103" height="2.835"/>
			</g>
			<polygon id="XMLID_120_" style="fill:#929496;" points="85.97,134.164 88.004,138.284 92.551,138.945 89.26,142.152 
				90.037,146.68 85.97,144.542 81.904,146.68 82.68,142.152 79.39,138.945 83.937,138.284 			"/>
			<polygon id="XMLID_119_" style="fill:#929496;" points="100.583,134.164 102.617,138.284 107.164,138.945 103.873,142.152 
				104.65,146.68 100.583,144.542 96.517,146.68 97.293,142.152 94.003,138.945 98.55,138.284 			"/>
			<polygon id="XMLID_118_" style="fill:#929496;" points="115.196,134.164 117.23,138.284 121.776,138.945 118.486,142.152 
				119.263,146.68 115.196,144.542 111.129,146.68 111.906,142.152 108.616,138.945 113.163,138.284 			"/>
		</g>
		<g id="XMLID_195_">
			<g id="XMLID_8_">
				<polygon id="XMLID_4_" style="fill:#A8A8A8;" points="132.796,325.942 121.414,338.462 127.186,338.462 135.641,328.381 				"/>
				<rect id="XMLID_1_" x="127.186" y="338.259" style="fill:#BBBCBF;" width="19.146" height="17.073"/>
				<rect id="XMLID_3_" x="146.332" y="338.259" style="fill:#929496;" width="19.512" height="17.073"/>
				<polygon id="XMLID_6_" style="fill:#CED0D6;" points="135.641,328.381 127.186,338.462 146.332,338.462 				"/>
				<polygon id="XMLID_2_" style="fill:#BBBCBF;" points="132.796,325.942 146.485,338.899 170.113,338.868 159.137,326.104 				"/>
				<rect id="XMLID_5_" x="132.633" y="343.503" style="fill:#CED0D6;" width="7.155" height="11.707"/>
				<rect id="XMLID_7_" x="149.381" y="342.1" style="fill:#CED0D6;" width="4.939" height="2.744"/>
				<rect id="XMLID_9_" x="158.893" y="342.1" style="fill:#CED0D6;" width="4.939" height="2.744"/>
			</g>
			<polygon id="XMLID_123_" style="fill:#929496;" points="139.97,309.497 142.004,313.618 146.551,314.278 143.26,317.485 
				144.037,322.014 139.97,319.876 135.904,322.014 136.68,317.485 133.39,314.278 137.937,313.618 			"/>
			<polygon id="XMLID_122_" style="fill:#929496;" points="154.583,309.497 156.617,313.618 161.164,314.278 157.873,317.485 
				158.65,322.014 154.583,319.876 150.517,322.014 151.293,317.485 148.003,314.278 152.55,313.618 			"/>
		</g>
		<g id="XMLID_194_">
			<g id="XMLID_10_">
				<rect id="XMLID_14_" x="74.583" y="258.353" style="fill:#BBBCBF;" width="29.345" height="58.167"/>
				<rect id="XMLID_86_" x="97.971" y="258.353" style="fill:#929496;" width="16.548" height="58.167"/>
				<rect id="XMLID_84_" x="77.562" y="262.022" style="fill:#929496;" width="3.751" height="5.737"/>
				<rect id="XMLID_88_" x="83.63" y="262.022" style="fill:#929496;" width="3.751" height="5.737"/>
				<rect id="XMLID_89_" x="90.028" y="262.022" style="fill:#929496;" width="3.751" height="5.737"/>
				<rect id="XMLID_98_" x="77.562" y="270.406" style="fill:#929496;" width="3.751" height="5.737"/>
				<rect id="XMLID_96_" x="83.63" y="270.406" style="fill:#929496;" width="3.751" height="5.737"/>
				<rect id="XMLID_90_" x="90.028" y="270.406" style="fill:#929496;" width="3.751" height="5.737"/>
				<rect id="XMLID_102_" x="77.562" y="278.79" style="fill:#929496;" width="3.751" height="5.737"/>
				<rect id="XMLID_101_" x="83.63" y="278.79" style="fill:#929496;" width="3.751" height="5.737"/>
				<rect id="XMLID_100_" x="90.028" y="278.79" style="fill:#929496;" width="3.751" height="5.737"/>
				<rect id="XMLID_105_" x="77.562" y="287.175" style="fill:#929496;" width="3.751" height="5.737"/>
				<rect id="XMLID_104_" x="83.63" y="287.175" style="fill:#929496;" width="3.751" height="5.737"/>
				<rect id="XMLID_103_" x="90.028" y="287.175" style="fill:#929496;" width="3.751" height="5.737"/>
				<rect id="XMLID_108_" x="77.562" y="295.559" style="fill:#929496;" width="3.751" height="5.737"/>
				<rect id="XMLID_107_" x="83.63" y="295.559" style="fill:#929496;" width="3.751" height="5.737"/>
				<rect id="XMLID_106_" x="90.028" y="295.559" style="fill:#929496;" width="3.751" height="5.737"/>
				<rect id="XMLID_111_" x="77.562" y="303.944" style="fill:#929496;" width="3.751" height="5.737"/>
				<rect id="XMLID_110_" x="83.63" y="303.944" style="fill:#929496;" width="3.751" height="5.737"/>
				<rect id="XMLID_109_" x="90.028" y="303.944" style="fill:#929496;" width="3.751" height="5.737"/>
			</g>
			<polygon id="XMLID_126_" style="fill:#929496;" points="80.22,240.331 82.254,244.451 86.801,245.112 83.51,248.319 
				84.287,252.847 80.22,250.709 76.154,252.847 76.93,248.319 73.64,245.112 78.187,244.451 			"/>
			<polygon id="XMLID_125_" style="fill:#929496;" points="94.833,240.331 96.867,244.451 101.414,245.112 98.123,248.319 
				98.9,252.847 94.833,250.709 90.767,252.847 91.543,248.319 88.253,245.112 92.8,244.451 			"/>
			<polygon id="XMLID_127_" style="fill:#929496;" points="107.833,240.331 109.867,244.451 114.414,245.112 111.123,248.319 
				111.9,252.847 107.833,250.709 103.767,252.847 104.543,248.319 101.253,245.112 105.8,244.451 			"/>
		</g>
		<g id="XMLID_196_">
			<g id="XMLID_51_">
				<polygon id="XMLID_59_" style="fill:#A8A8A8;" points="367.689,121.799 355.929,134.735 361.893,134.735 370.63,124.319 				"/>
				<rect id="XMLID_58_" x="361.893" y="134.525" style="fill:#BBBCBF;" width="19.782" height="17.64"/>
				<rect id="XMLID_57_" x="381.676" y="134.525" style="fill:#929496;" width="20.16" height="17.64"/>
				<polygon id="XMLID_56_" style="fill:#CED0D6;" points="370.63,124.319 361.893,134.735 381.676,134.735 				"/>
				<polygon id="XMLID_55_" style="fill:#BBBCBF;" points="367.689,121.799 381.833,135.187 406.246,135.155 394.906,121.967 				
					"/>
				<rect id="XMLID_54_" x="367.521" y="139.943" style="fill:#CED0D6;" width="7.392" height="12.096"/>
				<rect id="XMLID_53_" x="384.826" y="138.494" style="fill:#CED0D6;" width="5.103" height="2.835"/>
				<rect id="XMLID_52_" x="394.654" y="138.494" style="fill:#CED0D6;" width="5.103" height="2.835"/>
			</g>
			<polygon id="XMLID_124_" style="fill:#929496;" points="373.22,104.808 375.254,108.929 379.801,109.589 376.51,112.796 
				377.287,117.325 373.22,115.187 369.154,117.325 369.93,112.796 366.64,109.589 371.187,108.929 			"/>
			<polygon id="XMLID_121_" style="fill:#929496;" points="387.833,104.808 389.867,108.929 394.413,109.589 391.123,112.796 
				391.9,117.325 387.833,115.187 383.766,117.325 384.543,112.796 381.253,109.589 385.8,108.929 			"/>
		</g>
	</g>
	<g id="XMLID_191_">
		<g id="XMLID_28_">
			<path id="XMLID_201_" style="fill:#6D6E70;" d="M398.2,413.903c0,2.81-1.15,5.61-3.4,7.63c-0.34,0.31-0.7,0.58-1.07,0.83
				c-4.28,2.93-10.19,2.21-13.61-1.87l-83.75-99.58l14.97-11.97l7.38,8.6l77.01,89.68C397.39,409.153,398.2,411.533,398.2,413.903z"
				/>
			<path id="XMLID_199_" style="fill:#5D5E60;" d="M393.73,422.363c-4.28,2.93-10.19,2.21-13.61-1.87l-83.75-99.58l14.97-11.97
				l7.38,8.6l-8.887,9.643L393.73,422.363z"/>
			<ellipse id="XMLID_44_" style="opacity:0.44;fill:#98D8D6;" cx="245.75" cy="242.603" rx="87.75" ry="87.25"/>
			<g id="XMLID_27_">
				<path id="XMLID_26_" style="fill:#7E79E0;" d="M245.295,338.888c-53.549,0-97.114-42.475-97.114-94.684
					s43.565-94.684,97.114-94.684c53.549,0,97.113,42.475,97.113,94.684S298.844,338.888,245.295,338.888z M245.295,161.52
					c-46.932,0-85.114,37.092-85.114,82.684c0,45.593,38.182,82.684,85.114,82.684c46.932,0,85.113-37.092,85.113-82.684
					C330.408,198.612,292.227,161.52,245.295,161.52z"/>
			</g>
		</g>
		<g id="XMLID_99_">
			<g id="XMLID_30_">
				<rect id="XMLID_64_" x="175.241" y="238.555" style="fill:#FFBC8F;" width="109.134" height="34.893"/>
				<polygon id="XMLID_66_" style="fill:#874C00;" points="287.221,239.16 307.266,205.147 194.296,205.147 167.322,238.555 				"/>
				<polygon id="XMLID_50_" style="fill:#4F2903;" points="210.028,212.655 186.472,238.566 198.418,238.566 215.917,217.702 				
					"/>
				<polygon id="XMLID_49_" style="fill:#BC977E;" points="238.043,273.48 198.418,273.48 198.462,238.514 238.043,238.146 				"/>
				<rect id="XMLID_48_" x="238.043" y="238.146" style="fill:#A3836D;" width="17.873" height="35.334"/>
				<polygon id="XMLID_47_" style="fill:#FFBC8F;" points="215.917,217.702 198.418,238.566 238.043,238.566 				"/>
				<polygon id="XMLID_45_" style="fill:#683701;" points="210.028,212.655 238.358,239.471 261.555,239.408 237.191,212.991 				
					"/>
				<polygon id="XMLID_71_" style="fill:#BC977E;" points="283.07,218.523 277.465,225.811 277.465,218.43 				"/>
				<polygon id="XMLID_70_" style="fill:#FFBC8F;" points="262.243,218.48 262.243,225.811 277.465,225.811 277.465,217.495 
					268.628,210.867 				"/>
				<polygon id="XMLID_69_" style="fill:#4F2903;" points="266.479,209.025 257.885,218.48 262.243,218.48 268.628,210.867 				"/>
				<polygon id="XMLID_68_" style="fill:#683701;" points="266.479,209.025 276.816,218.809 285.279,218.786 276.992,209.148 				
					"/>
				<polygon id="XMLID_75_" style="fill:#BC977E;" points="202.688,217.344 197.825,223.666 197.825,217.263 				"/>
				<polygon id="XMLID_74_" style="fill:#FFBC8F;" points="184.62,217.306 184.62,223.666 197.825,223.666 197.825,216.452 
					190.159,210.702 				"/>
				<polygon id="XMLID_73_" style="fill:#4F2903;" points="188.295,209.105 180.839,217.306 184.62,217.306 190.159,210.702 				"/>
				<polygon id="XMLID_72_" style="fill:#683701;" points="188.295,209.105 197.262,217.592 204.605,217.572 197.415,209.211 				
					"/>
				<rect id="XMLID_43_" x="209.692" y="248.998" style="fill:#FFBC8F;" width="14.807" height="24.543"/>
				<polygon id="XMLID_61_" style="fill:#A3836D;" points="203.406,252.76 220.5,252.76 209.763,243.134 				"/>
				<path id="XMLID_35_" style="fill:#874C00;" d="M218.078,235.338h-4.339c-1.444,0-2.615-1.171-2.615-2.615v-4.792
					c0-1.444,1.171-2.615,2.615-2.615h4.339c1.444,0,2.615,1.171,2.615,2.615v4.792
					C220.693,234.168,219.522,235.338,218.078,235.338z"/>
				<rect id="XMLID_46_" x="219.803" y="252.78" style="fill:#FFFFFF;" width="1.864" height="21.117"/>
				<polygon id="XMLID_63_" style="fill:#683701;" points="208.449,241.856 198.515,252.783 203.553,252.783 210.932,243.984 				
					"/>
				<polygon id="XMLID_62_" style="fill:#874C00;" points="208.449,241.856 220.395,253.164 230.177,253.137 220.599,241.998 				
					"/>
				<rect id="XMLID_31_" x="203.553" y="252.78" style="fill:#FFFFFF;" width="1.864" height="21.117"/>
				<polygon id="XMLID_67_" style="fill:#683701;" points="307.266,205.147 327.104,238.803 320.01,238.803 303.842,210.921 				"/>
				<polygon id="XMLID_77_" style="fill:#BC977E;" points="319.845,238.514 319.845,272.789 284.375,273.449 284.375,238.803 
					303.842,210.921 				"/>
				<g id="XMLID_65_">
					<path id="XMLID_128_" style="fill:#FFFFFF;" d="M189.167,251.728h7.192v-4.05c0-0.893-0.724-1.617-1.617-1.617h-5.575V251.728z
						"/>
					<path id="XMLID_129_" style="fill:#FFFFFF;" d="M187.917,251.728v-5.666h-5.78c-0.893,0-1.617,0.724-1.617,1.617v4.05H187.917z
						"/>
					<path id="XMLID_130_" style="fill:#FFFFFF;" d="M187.917,252.978h-7.396v3.676c0,0.893,0.724,1.617,1.617,1.617h5.78V252.978z"
						/>
					<path id="XMLID_131_" style="fill:#FFFFFF;" d="M189.167,252.978v5.292h5.575c0.893,0,1.617-0.724,1.617-1.617v-3.676H189.167z
						"/>
				</g>
				<g id="XMLID_76_">
					<path id="XMLID_154_" style="fill:#FFFFFF;" d="M269.333,251.728h7.192v-4.05c0-0.893-0.724-1.617-1.616-1.617h-5.575V251.728z
						"/>
					<path id="XMLID_132_" style="fill:#FFFFFF;" d="M268.083,251.728v-5.666h-5.78c-0.893,0-1.616,0.724-1.616,1.617v4.05H268.083z
						"/>
					<path id="XMLID_113_" style="fill:#FFFFFF;" d="M268.083,252.978h-7.396v3.676c0,0.893,0.724,1.617,1.616,1.617h5.78V252.978z"
						/>
					<path id="XMLID_79_" style="fill:#FFFFFF;" d="M269.333,252.978v5.292h5.575c0.893,0,1.616-0.724,1.616-1.617v-3.676H269.333z"
						/>
				</g>
				<g id="XMLID_157_">
					<rect id="XMLID_159_" x="268.938" y="220.197" style="fill:#FFFFFF;" width="2.656" height="3.813"/>
					<path id="XMLID_160_" style="fill:#FFFFFF;" d="M268,219.26v-3.744c-1.339,0.287-2.344,1.475-2.344,2.9v0.844H268z"/>
					<path id="XMLID_161_" style="fill:#FFFFFF;" d="M268.938,219.26h2.656v-0.844c0-1.532-1.166-2.779-2.656-2.937V219.26z"/>
					<rect id="XMLID_162_" x="265.656" y="220.197" style="fill:#FFFFFF;" width="2.344" height="3.813"/>
				</g>
				<g id="XMLID_156_">
					<rect id="XMLID_165_" x="190.701" y="218.627" style="fill:#FFFFFF;" width="2.248" height="3.226"/>
					<path id="XMLID_164_" style="fill:#FFFFFF;" d="M189.908,217.834v-3.168c-1.133,0.243-1.983,1.248-1.983,2.454v0.714H189.908z"
						/>
					<path id="XMLID_163_" style="fill:#FFFFFF;" d="M190.701,217.834h2.248v-0.714c0-1.297-0.986-2.351-2.248-2.485V217.834z"/>
					<rect id="XMLID_158_" x="187.924" y="218.627" style="fill:#FFFFFF;" width="1.983" height="3.226"/>
				</g>
			</g>
			<g id="XMLID_97_">
				<path id="XMLID_206_" style="fill:#DD774A;" d="M265.71,160.113c0,10.52-15.94,39.41-15.94,39.41s-0.09-0.17-0.27-0.49
					c-2.09-3.84-15.67-29.21-15.67-38.92c0-10.42,6.99-18.03,15.67-18.18c0.09-0.01,0.18-0.01,0.27-0.01
					C258.58,141.923,265.71,149.583,265.71,160.113z"/>
				<path id="XMLID_204_" style="fill:#C16846;" d="M265.71,160.113c0,10.52-15.94,39.41-15.94,39.41s-0.09-0.17-0.27-0.49v-57.1
					c0.09-0.01,0.18-0.01,0.27-0.01C258.58,141.923,265.71,149.583,265.71,160.113z"/>
				
					<ellipse id="XMLID_80_" transform="matrix(0.2124 -0.9772 0.9772 0.2124 42.1878 368.7172)" style="fill:#FFFFFF;" cx="249.833" cy="158.187" rx="8.333" ry="8.333"/>
			</g>
			<g id="XMLID_190_">
				<polygon id="XMLID_112_" style="fill:#DD774A;" points="204.5,277.726 207.109,283.012 212.943,283.86 208.722,287.975 
					209.718,293.785 204.5,291.042 199.282,293.785 200.278,287.975 196.057,283.86 201.891,283.012 				"/>
				<polygon id="XMLID_114_" style="fill:#DD774A;" points="223.25,277.726 225.859,283.012 231.693,283.86 227.472,287.975 
					228.468,293.785 223.25,291.042 218.032,293.785 219.028,287.975 214.807,283.86 220.641,283.012 				"/>
				<polygon id="XMLID_115_" style="fill:#DD774A;" points="242,277.726 244.609,283.012 250.443,283.86 246.222,287.975 
					247.218,293.785 242,291.042 236.782,293.785 237.778,287.975 233.557,283.86 239.391,283.012 				"/>
				<polygon id="XMLID_116_" style="fill:#DD774A;" points="260.75,277.726 263.359,283.012 269.193,283.86 264.972,287.975 
					265.968,293.785 260.75,291.042 255.532,293.785 256.528,287.975 252.307,283.86 258.141,283.012 				"/>
				<polygon id="XMLID_117_" style="fill:#DD774A;" points="279.5,277.726 282.109,283.012 287.943,283.86 283.722,287.975 
					284.718,293.785 279.5,291.042 274.282,293.785 275.278,287.975 271.057,283.86 276.891,283.012 				"/>
			</g>
		</g>
	</g>
</g>
</svg>
