<?xml version="1.0" encoding="utf-8"?>
<!-- Generator: Adobe Illustrator 27.5.0, SVG Export Plug-In . SVG Version: 6.00 Build 0)  -->
<svg version="1.1" xmlns="http://www.w3.org/2000/svg" xmlns:xlink="http://www.w3.org/1999/xlink" x="0px" y="0px"
	 viewBox="0 0 500 500" style="enable-background:new 0 0 500 500;" xml:space="preserve">
<g id="BACKGROUND">
	<rect style="fill:#ECE6EA;" width="500" height="500"/>
</g>
<g id="OBJECTS">
	<g>
		<path style="fill:#FFC1A6;" d="M41.66,367.942c0,0-0.325-5.908,12.611-12.717c12.936-6.809,41.872-32.638,41.872-32.638
			l7.149,25.83l-37.047,59.915L41.66,367.942z"/>
		<path style="fill:#FFC1A6;" d="M458.628,367.942c0,0,0.325-5.908-12.612-12.717c-12.936-6.809-41.872-32.638-41.872-32.638
			l-7.149,25.83l37.047,59.915L458.628,367.942z"/>
	</g>
	<g>
		<path style="fill:#312A3C;" d="M62.401,396.221V188.678c0-12.878,10.439-23.317,23.317-23.317h328.565
			c12.878,0,23.317,10.439,23.317,23.317v207.543c0,12.878-10.439,23.317-23.317,23.317H85.717
			C72.84,419.538,62.401,409.098,62.401,396.221z"/>
		<path style="fill:#4C6674;" d="M411.189,405.721H88.811c-6.955,0-12.593-5.638-12.593-12.593V191.771
			c0-6.955,5.638-12.593,12.593-12.593h322.378c6.955,0,12.593,5.638,12.593,12.593v201.356
			C423.782,400.083,418.144,405.721,411.189,405.721z"/>
		<g>
			<defs>
				<path id="SVGID_1_" d="M411.189,405.721H88.811c-6.955,0-12.593-5.638-12.593-12.593L62.401,274.715L76.218,21.949h347.565
					v371.179C423.782,400.083,418.144,405.721,411.189,405.721z"/>
			</defs>
			<clipPath id="SVGID_00000029733255019999142470000017378159413405916558_">
				<use xlink:href="#SVGID_1_"  style="overflow:visible;"/>
			</clipPath>
			<g style="clip-path:url(#SVGID_00000029733255019999142470000017378159413405916558_);">
				<g>
					<g>
						<path style="fill:#A15F55;" d="M230.125,216.355c-12.674,11.973-21.044,17.687-19.283,30.006
							c3.394,23.745,57.346,34.788,109.674,50.618c34.475,10.429,34.213-104.988,41.872-147.881
							c1.172-6.564-27.575-2.543-27.575-2.543c-4.78,18.084-19.67,102.577-19.67,102.577
							C274.352,229.975,241.174,221.902,230.125,216.355z"/>
						<path style="fill:#7AB0B2;" d="M242.205,219.597c13.947,1.891,29.346,7.513,44.311,14.947
							c1.465,0.728,11.071,47.597,10.364,65.389c-8.119,0.003-28.616-4.148-30.545-5.413c-2.27-1.489-18.756-40.459-21.811-58.757
							C243.614,230.309,242.205,219.597,242.205,219.597z"/>
					</g>
					<path style="fill:#A15F55;" d="M219.334,152.046c-7.494,33.083,10.953,57.649,10.953,57.649s31.687,29.236,15.833,37.922
						c-12.054,6.605-80.924,19.54-130.49-26.149c-1.643-1.515,43.172-14.367,43.172-14.367s8.798-35.088,9.224-53.266
						C180.551,153.311,200.639,155.757,219.334,152.046z"/>
					<path style="fill:#ECE6EA;" d="M165.282,239.651c0,0,50.697,15.835,76.923-2.125c-6.598,49.307-20.173,46.38-20.173,46.38
						L165.282,239.651z"/>
					<path style="fill:#84C4BE;" d="M269.021,422.993c-0.259-16.807,0.936-45.587,2.725-95.486
						c1.176-32.81-16.771-93.327-29.541-107.91c0,0-14.052,46.587-20.173,45.214c-33.384-7.491-72.928-45.853-81.799-55.823
						c0,0-49.99,9.524-48.687,19.731c5.136,40.206,11.059,173.943,12.541,202.943C118.889,437.363,259.853,429.295,269.021,422.993z
						"/>
					<g>
						<path style="fill:#A15F55;" d="M112.335,216.355c-17.278,2.336-28.919,17.024-34.673,28.058
							c-11.089,21.269,4.842,92.35,28.843,139.179c16.428,32.053,99.737-2.376,127.058-14.279
							c6.113-2.663-3.438-23.263-3.438-23.263c-14.429,11.904-92.01,13.158-93.229,9.41
							C118.706,299.516,122.495,220.263,112.335,216.355z"/>
					</g>
					<g>
						<path style="fill:#C87E66;" d="M406.811,332.873H291.534c-5.428,0-9.829-4.401-9.829-9.829V152.007
							c0-5.428,4.401-9.829,9.829-9.829h115.277c5.428,0,9.829,4.401,9.829,9.829v171.036
							C416.64,328.472,412.239,332.873,406.811,332.873z"/>
						<rect x="291.198" y="149.454" style="fill:#ECE6EA;" width="115.948" height="172.33"/>
						<g>
							<rect x="300.973" y="183.233" style="fill:#C04C68;" width="21.734" height="5.732"/>
							
								<rect x="300.973" y="183.233" transform="matrix(-1.836970e-16 1 -1 -1.836970e-16 497.9384 -125.741)" style="fill:#C04C68;" width="21.734" height="5.732"/>
						</g>
						<rect x="296.917" y="248.057" style="fill:#4C6674;" width="65.808" height="1.509"/>
						<rect x="296.917" y="252.03" style="fill:#4C6674;" width="65.808" height="1.509"/>
						<rect x="296.917" y="256.004" style="fill:#4C6674;" width="65.808" height="1.509"/>
						<rect x="296.917" y="259.978" style="fill:#4C6674;" width="65.808" height="1.509"/>
						<rect x="296.917" y="263.951" style="fill:#4C6674;" width="65.808" height="1.509"/>
						<rect x="296.917" y="267.925" style="fill:#4C6674;" width="65.808" height="1.509"/>
						<rect x="296.917" y="271.899" style="fill:#4C6674;" width="37.634" height="1.509"/>
						<polyline style="fill:none;stroke:#4C6674;stroke-miterlimit:10;" points="332.704,186.099 346.71,186.099 352.61,200.332 
							356.451,180.587 360.44,190.459 364.275,183.803 368.475,192.161 373.365,174.087 378.142,196.247 381.205,186.099 
							396.525,186.099 						"/>
						<line style="fill:none;stroke:#4C6674;stroke-miterlimit:10;" x1="346.813" y1="302.544" x2="400.43" y2="302.544"/>
						<g>
							<g>
								<path style="fill:#4C6674;" d="M358.958,303.813c2.717-9.841,6.777-19.093,12.176-27.756
									c-0.411-0.054-0.822-0.107-1.233-0.161c0.953,4.261-4.295,10.314-6.385,13.882c-2.419,4.128-4.837,8.257-7.256,12.385
									c-0.406,0.693,0.557,1.466,1.124,0.867c2.754-2.907,6.084-6.534,10.427-6.485c3.138,0.035,4.835,3.073,7.69,2.841
									c4.276-0.348,5.917-8.024,7.191-10.998c-0.443-0.187-0.885-0.373-1.327-0.56c-0.614,3.523-2.15,6.116-5.058,8.242
									c0.328,0.328,0.656,0.656,0.984,0.984c0.587-0.918,4.132-6.186,5.687-5.775c1.698,0.449-0.594,5.152-0.864,6.109
									c-0.412,1.461-1.532,3.732-0.129,5.079c1.404,1.349,3.228,0.156,4.495-0.674c3.482-2.28,6.626-5.468,9.836-8.121
									c-0.335-0.259-0.67-0.517-1.005-0.775c-0.221,0.491-0.443,0.982-0.664,1.472c-0.331,0.735,0.75,1.38,1.093,0.639
									c0.225-0.488,0.451-0.977,0.676-1.465c0.31-0.672-0.432-1.24-1.005-0.775c-1.862,1.512-3.723,3.023-5.585,4.534
									c-1.504,1.221-5.815,6.021-6.874,2.171c-0.708-2.575,3.789-6.423,1.933-9.02c-2.353-3.292-7.713,4.124-8.836,5.876
									c-0.372,0.581,0.394,1.414,0.984,0.984c3.192-2.327,5.047-5.191,5.733-9.098c0.13-0.74-0.977-1.375-1.328-0.56
									c-1.44,3.349-2.81,10.645-8.185,9.362c-1.998-0.477-3.091-1.957-5.441-1.939c-4.796,0.036-8.393,3.708-11.439,6.94
									c0.375,0.289,0.749,0.578,1.124,0.867c3.21-5.513,6.42-11.026,9.63-16.54c1.92-3.298,4.983-6.804,4.076-10.808
									c-0.133-0.586-0.94-0.633-1.232-0.161c-5.438,8.78-9.51,18.138-12.232,28.101
									C357.523,304.263,358.742,304.598,358.958,303.813L358.958,303.813z"/>
							</g>
						</g>
						<rect x="296.917" y="210.374" style="fill:none;stroke:#4C6674;stroke-miterlimit:10;" width="9.223" height="9.223"/>
						<rect x="296.917" y="226.396" style="fill:none;stroke:#4C6674;stroke-miterlimit:10;" width="9.223" height="9.223"/>
						<line style="fill:none;stroke:#4C6674;stroke-miterlimit:10;" x1="309.648" y1="214.986" x2="344.77" y2="214.986"/>
						<line style="fill:none;stroke:#4C6674;stroke-miterlimit:10;" x1="309.648" y1="231.008" x2="344.77" y2="231.008"/>
						<rect x="354.108" y="210.374" style="fill:none;stroke:#4C6674;stroke-miterlimit:10;" width="9.223" height="9.223"/>
						<rect x="354.108" y="226.396" style="fill:none;stroke:#4C6674;stroke-miterlimit:10;" width="9.223" height="9.223"/>
						<line style="fill:none;stroke:#4C6674;stroke-miterlimit:10;" x1="366.84" y1="214.986" x2="401.962" y2="214.986"/>
						<line style="fill:none;stroke:#4C6674;stroke-miterlimit:10;" x1="366.84" y1="231.008" x2="401.962" y2="231.008"/>
						<polygon style="fill:#C04C68;" points="299.834,208.774 301.529,212.604 309.648,203.157 312.514,203.157 301.529,217.591 
							296.917,210.374 						"/>
						<polygon style="fill:#C04C68;" points="357.026,224.797 358.72,228.626 366.84,219.18 369.706,219.18 358.72,233.613 
							354.108,226.396 						"/>
						
							<line style="fill:none;stroke:#4C6674;stroke-width:2;stroke-miterlimit:10;" x1="319.552" y1="162.481" x2="381.245" y2="162.481"/>
					</g>
					<g>
						<path style="fill:#4486B4;" d="M334.83,160.325c-5.512-0.276-5.15-21.669-3.798-28.385c0.385-1.911,28.54-3.618,34.276,2.43
							c4.516,4.762,0.363,23.031-2.322,23.031c-4.578,0-2.731-8.006-3.434-11.242c0.17,7.617-2.829,14.566-5.089,14.903
							c-4.337,0.648-3.987-6.588-5.173-13.53c0,8.928-0.515,17.828-5.075,17.828c-3.892,0-5.425-9.923-4.12-18.515
							C339.641,154.172,339.408,160.554,334.83,160.325z"/>
						<g>
							<g>
								<path style="fill:#312A3C;" d="M340.517,135.305c-0.736,7.028-2.597,14.649-2.121,21.706
									c0.034,0.498,0.803,0.671,0.921,0.125c1.496-6.968,1.2-14.718,1.481-21.831
									C340.805,135.121,340.535,135.129,340.517,135.305L340.517,135.305z"/>
							</g>
						</g>
						<g>
							<g>
								<path style="fill:#312A3C;" d="M349.505,138.656c0.042,6.588-0.699,13.782,0.396,20.279
									c0.105,0.626,0.948,0.384,1.013-0.137c0.811-6.49-0.237-13.6-0.471-20.142C350.421,138.055,349.502,138.05,349.505,138.656
									L349.505,138.656z"/>
							</g>
						</g>
						<g>
							<g>
								<path style="fill:#312A3C;" d="M359.122,138.958c-0.041,3.179-0.12,6.357-0.261,9.533c-0.121,2.731-0.633,5.566-0.112,8.254
									c0.064,0.331,0.547,0.294,0.633,0c0.759-2.614,0.449-5.545,0.431-8.254c-0.022-3.179-0.103-6.357-0.223-9.533
									C359.58,138.657,359.126,138.655,359.122,138.958L359.122,138.958z"/>
							</g>
						</g>
					</g>
					<path style="fill:#84C4BE;" d="M79.31,228.538c-10.342,12.027-13.903,28.724-13.019,44.561
						c0.884,15.838,5.778,31.142,10.634,46.243c20.881,7.022,57.296-14.683,57.314-19.532c0.067-17.501,12.231-88.934,5.993-90.821
						C135.77,207.639,85.543,221.288,79.31,228.538z"/>
					<g>
						<path style="fill:#4486B4;" d="M270.974,318.351c-3.716-3.206-16.855,7.579-24.999,13.846
							c-4.456-1.715-10.501-3.465-13.509-1.812c-2.018,1.11-12.209,14.051-16.984,19.736c-0.795,0.947-3.895,1.584-4.327,2.04
							c0,4.653,4.672,23.35,8,24.255c0,0,7.348-3.695,9.27-3.96c6.653-0.917,21.937-3.503,25.939-8.336
							c1.789-2.161,1.789-8.344,1.789-8.344c1.532-3.202,1.109-8.34,1.109-8.34c1.242-2.531,1.47-8.14,0.562-10.72
							c-0.1-0.284-0.331-0.45-0.654-0.529C265.465,328.265,273.004,320.103,270.974,318.351z"/>
						<g>
							<g>
								<path style="fill:#312A3C;" d="M246.817,331.434c-4.53,3.116-9.259,6.022-13.585,9.414
									c-0.586,0.459,0.175,1.434,0.795,1.031c4.594-2.992,8.828-6.609,13.13-10.003
									C247.407,331.679,247.079,331.253,246.817,331.434L246.817,331.434z"/>
							</g>
						</g>
						<g>
							<g>
								<path style="fill:#312A3C;" d="M257.189,346.755c-1.069,0.464-1.963,1.12-2.884,1.819c-0.529,0.401-1.081,0.771-1.658,1.1
									c-0.704,0.401-1.487,0.572-1.887,1.309c-0.124,0.227-0.023,0.559,0.252,0.62c1.326,0.291,2.798-1.095,3.781-1.901
									c0.966-0.792,1.72-1.785,2.681-2.578C257.696,346.939,257.411,346.658,257.189,346.755L257.189,346.755z"/>
							</g>
						</g>
						<g>
							<g>
								<path style="fill:#312A3C;" d="M256.081,355.655c-1.034,0.623-2.268,0.848-3.39,1.264c-0.37,0.137-1.495,0.716-1.069,1.318
									c0.12,0.169,0.356,0.227,0.515,0.066c-0.184,0.185-0.29,0.049,0.003,0.134c0.224,0.065,0.439,0.007,0.646-0.072
									c0.399-0.154,0.816-0.42,1.179-0.643c0.813-0.499,1.665-1.116,2.286-1.846C256.35,355.759,256.225,355.568,256.081,355.655
									L256.081,355.655z"/>
							</g>
						</g>
						<g>
							<g>
								<path style="fill:#312A3C;" d="M257.759,336.146c-1.009-0.403-3.716,2.163-4.418,2.673
									c-1.229,0.893-2.447,1.803-3.652,2.728c-0.722,0.553-2.118,1.212-2.114,2.232c0.001,0.17,0.129,0.376,0.31,0.407
									c0.848,0.144,1.312-0.518,1.915-1.047c1.003-0.882,2.001-1.77,3.012-2.643c0.92-0.794,1.844-1.585,2.792-2.346
									c0.266-0.214,1.666-1.567,2.006-1.46C257.962,336.8,258.087,336.277,257.759,336.146L257.759,336.146z"/>
							</g>
						</g>
					</g>
				</g>
				<g>
					<path style="fill:#312A3C;" d="M258.706,94.135c-0.19,0.205-0.511-0.208-0.341-0.429c0.17-0.222,0.502-0.212,0.779-0.174
						c8.648,1.192,15.013,9.676,15.903,18.361c0.89,8.684-2.693,17.283-7.615,24.493c-2.194,3.214-4.971,6.435-8.776,7.251
						c-0.441-7.558-0.886-15.149-2.431-22.561c-0.898-4.311-2.17-8.574-2.417-12.97c-0.232-4.127,0.447-8.244,1.124-12.322
						c0.165-0.991,1.06-2.295,1.828-1.647"/>
					<g>
						<path style="fill:#A15F55;" d="M153.708,124.935c-4.68,39.92,5.188,57.894,71.141,65.625
							c31.209,3.659,39.374-31.018,43.033-62.227c3.658-31.21-19.831-49.625-51.04-53.283
							C185.632,71.391,159.117,78.794,153.708,124.935z"/>
						<g>
							<path style="fill:#312A3C;" d="M180.888,179.677c12.13,7.622,27.806,13.173,42.296,10.785
								c0.695-0.114,0.727-1.245-0.023-1.28c-15.259-0.717-28.301-2.208-41.755-10.193
								C180.937,178.71,180.414,179.379,180.888,179.677L180.888,179.677z"/>
						</g>
					</g>
					<g>
						<path style="fill:#312A3C;" d="M249.578,145.338c-0.358,3.054,0.837,5.704,2.67,5.919c1.833,0.215,3.608-2.087,3.966-5.141
							c0.358-3.054-0.837-5.704-2.67-5.919C251.712,139.982,249.936,142.284,249.578,145.338z"/>
						<path style="fill:#312A3C;" d="M219.163,141.772c-0.358,3.054,0.837,5.704,2.67,5.919c1.833,0.215,3.608-2.087,3.966-5.141
							c0.358-3.054-0.837-5.704-2.67-5.919C221.297,136.417,219.521,138.718,219.163,141.772z"/>
						<g>
							<path style="fill:#312A3C;" d="M228.857,127.467c-3.246-1.904-9.355-3.04-12.217,0.188c-0.437,0.493,0.095,1.319,0.717,1.199
								c1.708-0.331,3.139-1.27,4.942-1.406c2.062-0.156,4.012,0.349,5.82,1.32C228.865,129.168,229.593,127.899,228.857,127.467
								L228.857,127.467z"/>
						</g>
						<g>
							<path style="fill:#312A3C;" d="M261.516,133.825c-2.189-2.269-7.156-4.866-10.191-2.768c-0.565,0.391-0.227,1.245,0.38,1.34
								c1.453,0.228,2.9-0.274,4.4,0.011c1.725,0.328,3.225,1.162,4.516,2.334C261.158,135.23,262.026,134.354,261.516,133.825
								L261.516,133.825z"/>
						</g>
						<g>
							<path style="fill:#312A3C;" d="M240.691,169.137c-5.105,0.232-10.918-0.982-12.465-2.716
								c-0.46-0.516-1.519-0.205-1.336,0.582c1.467,6.316,10.298,6.361,14.202,2.641
								C241.387,169.362,241.021,168.871,240.691,169.137L240.691,169.137z"/>
						</g>
						<g>
							<path style="fill:#312A3C;" d="M241.968,133.876c-1.187,4.895-1.485,9.485-0.549,14.437c0.344,1.819,0.822,3.622,1.418,5.375
								c0.673,1.982,1.585,2.693,0.441,4.627c-1.014,1.713-2.415,2.007-4.225,2.657c-0.283,0.102-0.15,0.585,0.149,0.513
								c2.477-0.6,6.295-1.016,6.358-4.049c0.026-1.266-1.238-3.049-1.637-4.223c-0.755-2.22-1.298-4.539-1.625-6.859
								c-0.578-4.103-0.62-8.353-0.222-12.465C242.082,133.818,241.984,133.81,241.968,133.876L241.968,133.876z"/>
						</g>
					</g>
					<path style="fill:#312A3C;" d="M197.116,53.99c38.602-14.607,49.321,19.572,60.305,23.63
						c10.984,4.058,23.382,6.01,33.778,0.298c-1.355,12.137-9.656,22.192-19.409,27.288c-9.752,5.096-20.79,5.947-31.518,5.665
						c-8.748-0.23-17.482-1.161-26.117-2.784c-8.022-1.507-16.191-3.726-22.828-9.084c-5.333-4.304-18.455-10.029-17.244-18.166
						C175.266,72.888,180.456,60.294,197.116,53.99z"/>
					<path style="fill:#312A3C;" d="M188.092,98.785c4.447,14.709-0.278,30.855-8.327,43.945
						c-0.657-8.223-6.094-15.89-13.637-19.228c-2.239-0.991-5.207-1.477-6.853,0.336c-0.774,0.852-1.057,2.029-1.312,3.151
						c-1.177,5.165-2.354,10.33-3.532,15.495c-1.913-1.224-2.435-3.744-2.724-5.996c-1.711-13.376-1.13-27.043,1.711-40.225
						c1.158-5.375,2.739-10.777,5.867-15.299c3.128-4.522,8.037-8.084,13.524-8.433c3.445-0.219,7.273,1.13,8.803,4.224
						C182.886,79.329,186.5,93.519,188.092,98.785z"/>
					<g>
						<path style="fill:#A15F55;" d="M169.7,110.795c-5.37-2.45-10.94,0.606-12.902,5.67c-4.886,12.613,6.325,23.601,14.322,31.663
							C173.211,142.873,177.935,114.552,169.7,110.795z"/>
						<g>
							<g>
								<path style="fill:#312A3C;" d="M170.405,131.795c-0.073-4-0.379-8.211-2.585-11.68c-1.606-2.526-4.343-5.05-7.516-4.536
									c-0.661,0.107-0.698,0.962-0.145,1.238c2.973,1.482,5.455,2.495,7.134,5.586c1.58,2.908,1.978,6.281,2.261,9.524
									C169.603,132.491,170.415,132.333,170.405,131.795L170.405,131.795z"/>
							</g>
							<g>
								<path style="fill:#312A3C;" d="M166.066,120.688c-1.557,0.384-2.904,1.242-3.872,2.531c-0.784,1.044-1.85,2.988-0.995,4.194
									c0.243,0.343,0.783,0.306,1.023-0.012c0.354-0.468,0.312-0.791,0.383-1.367c0.08-0.642,0.283-1.269,0.583-1.842
									c0.666-1.275,1.78-2.188,3.116-2.683C166.754,121.341,166.544,120.57,166.066,120.688L166.066,120.688z"/>
							</g>
						</g>
					</g>
				</g>
			</g>
		</g>
	</g>
	<g>
		<g>
			<path style="fill:#FFC1A6;" d="M500,489.715v10.28h-60.3c0,0-27.21-71.36-29.27-78.91c-2.66-9.78-3.3-20.03-5.96-29.82
				c-1.34-4.91-3.16-9.66-4.99-14.4c-2.5-6.51-5.01-13.01-7.51-19.52c-1.81-4.69-3.54-10.26-0.79-14.47
				c3.04-4.65,10.24-4.77,14.9-1.74c4.65,3.03,7.37,8.2,9.89,13.15c6.39,12.54,17.19,35.16,17.38,36.36
				c9.1-4.56,18.06-33.25,24.24-25.21c3.41,4.43,11.47,64.47,20.75,84.46C479.53,452.075,492.38,475.695,500,489.715z"/>
			<g>
				<g>
					<path style="fill:#312A3C;" d="M431.97,386.59c2.248,6.104,5.105,13.899,11.816,16.275c0.475,0.168,0.892-0.533,0.502-0.862
						c-2.545-2.141-5-4.15-6.949-6.879c-1.953-2.734-3.563-5.667-5.111-8.643C432.155,386.343,431.915,386.439,431.97,386.59
						L431.97,386.59z"/>
				</g>
			</g>
			<g>
				<g>
					<path style="fill:#312A3C;" d="M443.293,374.343c-1.186,2.262-2.442,4.482-3.799,6.647c-1.235,1.969-2.675,3.781-3.515,5.959
						c-0.23,0.597,0.611,0.984,1.018,0.593c3.364-3.23,5.229-8.54,7.024-12.772C444.227,374.284,443.552,373.849,443.293,374.343
						L443.293,374.343z"/>
				</g>
			</g>
		</g>
		<g>
			<path style="fill:#FFC1A6;" d="M108.32,357.345c-2.5,6.51-5.01,13.01-7.51,19.52c-1.83,4.74-3.66,9.49-4.99,14.4
				c-2.66,9.79-3.3,20.04-5.97,29.82c-2.05,7.55-29.26,78.92-29.26,78.92L0,499.995v-9.74c7.58-13.94,20.75-38.15,21.95-40.36
				c9.28-19.99,17.34-80.03,20.75-84.46c6.18-8.04,15.14,20.65,24.24,25.21c0.19-1.2,10.99-23.82,17.38-36.36
				c2.52-4.95,5.24-10.12,9.89-13.15c4.66-3.03,11.86-2.91,14.9,1.74C111.86,347.085,110.13,352.655,108.32,357.345z"/>
			<g>
				<g>
					<path style="fill:#312A3C;" d="M68.06,386.482c-1.548,2.976-3.158,5.908-5.111,8.643c-1.945,2.723-4.41,4.742-6.949,6.879
						c-0.39,0.328,0.026,1.03,0.502,0.862c6.712-2.376,9.567-10.17,11.816-16.275C68.372,386.441,68.133,386.341,68.06,386.482
						L68.06,386.482z"/>
				</g>
			</g>
			<g>
				<g>
					<path style="fill:#312A3C;" d="M56.265,374.769c1.794,4.23,3.658,9.54,7.024,12.772c0.407,0.391,1.249,0.005,1.018-0.593
						c-0.84-2.179-2.28-3.989-3.515-5.959c-1.357-2.164-2.613-4.385-3.799-6.647C56.735,373.85,56.06,374.284,56.265,374.769
						L56.265,374.769z"/>
				</g>
			</g>
		</g>
	</g>
</g>
</svg>
