<?xml version="1.0" encoding="utf-8"?>
<!-- Generator: Adobe Illustrator 27.5.0, SVG Export Plug-In . SVG Version: 6.00 Build 0)  -->
<svg version="1.1" xmlns="http://www.w3.org/2000/svg" xmlns:xlink="http://www.w3.org/1999/xlink" x="0px" y="0px"
	 viewBox="0 0 500 500" style="enable-background:new 0 0 500 500;" xml:space="preserve">
<g id="BACKGROUND">
	<rect style="fill:#B2EBF2;" width="500" height="500"/>
</g>
<g id="OBJECTS">
	<g>
		<g>
			<path style="opacity:0.5;fill:#B2EBF2;" d="M476.779,335.032l-0.016-1.355l-0.069-1.262c-0.037-0.858-0.122-1.639-0.198-2.435
				c-0.069-0.807-0.172-1.564-0.27-2.328c-0.406-3.044-0.911-5.952-1.499-8.778c-1.15-5.67-2.547-11.085-4.017-16.403
				c-2.966-10.615-6.318-20.754-9.85-30.538c-7.079-19.554-14.888-37.658-22.972-54.339c-8.756-18.015-17.894-34.33-27.136-48.816
				c-13.075-26.74-29.341-49.53-49.234-63.611c-4.902-3.469-10.279-6.219-16.062-8.311c-1.57-1.032-3.095-1.986-4.558-2.845
				c-6.255-3.694-11.366-5.952-14.921-7.153c-1.352-0.454-3.434-1.18-5.507-1.883c-0.908-0.308-1.776-0.717-2.6-1.205
				c-0.004-0.003-0.009-0.005-0.013-0.008c-0.441-0.256-0.936-0.552-1.501-0.836c-0.578-0.256-1.212-0.536-1.899-0.841
				c-0.699-0.292-1.454-0.607-2.263-0.945c-0.834-0.271-1.724-0.56-2.67-0.867c-7.563-2.481-19.608-4.072-34.673-1.995
				c-7.514,1.037-15.761,2.906-24.462,5.813c-8.706,2.893-17.906,6.718-27.437,11.471c-19.029,9.567-39.391,22.784-60.129,39.484
				c-16.052,12.916-32.397,27.868-48.545,44.866c-40.028,31.481-73.082,66.786-89.089,97.707c-4.115,7.949-1.622,16.238,6.014,24.6
				c-0.011,0.029-0.023,0.056-0.035,0.085c-1.653,4.363-3.232,8.804-4.559,13.413l-0.505,1.726l-0.252,0.864
				c-0.091,0.344-0.196,0.815-0.288,1.217c-0.196,0.833-0.369,1.676-0.462,2.569l-0.156,1.321c-0.037,0.445-0.042,0.903-0.057,1.355
				c-0.12,3.623,0.613,7.387,1.979,10.646c1.358,3.28,3.25,6.058,5.272,8.401c2.032,2.348,4.21,4.301,6.421,6.036
				c4.438,3.417,9.017,5.976,13.619,8.201c9.217,4.38,18.586,7.432,28.047,10.041c18.928,5.116,38.251,8.332,57.872,10.841
				c19.623,2.462,39.548,4.095,59.714,5.158c20.547,1.075,40.843,1.511,60.841,1.45c96.538,19.178,187.686,24.995,195.035,3.064
				c1.622-4.839,2.323-14.817,1.958-28.295c2.376-1.106,4.752-2.342,7.133-3.796c2.689-1.682,5.412-3.597,8.047-6.396
				c1.313-1.43,2.582-3.054,3.688-5.105c1.117-2.147,1.863-4.508,2.136-6.915l0.106-1.648
				C476.795,335.913,476.777,335.497,476.779,335.032z M140.627,358.581c-18.997-2.351-37.629-5.384-55.146-9.989
				c-8.719-2.324-17.196-5.067-24.733-8.574c-3.743-1.757-7.238-3.727-10.086-5.879c-2.825-2.139-4.891-4.502-5.631-6.32
				c-0.39-0.918-0.542-1.686-0.538-2.57c0.004-0.111-0.013-0.219-0.004-0.334c0.02-0.118,0.036-0.237,0.048-0.356
				c0.002-0.232,0.062-0.489,0.124-0.751c0.033-0.145,0.035-0.227,0.083-0.427l0.212-0.755l0.423-1.51
				c0.531-1.941,1.126-3.873,1.757-5.796c23.846,15.83,63.371,31.417,108.67,44.944C150.719,359.75,145.656,359.193,140.627,358.581
				z M196.853,126.429c10.841-8.014,21.407-14.924,31.522-20.696c8.852-5.012,17.361-9.146,25.389-12.413
				c8.025-3.281,15.592-5.587,22.495-7.142c13.827-3.099,24.964-2.909,32.369-1.847c0.934,0.12,1.813,0.233,2.635,0.339
				c0.816,0.15,1.577,0.29,2.282,0.42c0.713,0.117,1.37,0.225,1.97,0.324c0.595,0.12,1.133,0.229,1.614,0.327
				c0.005,0.001,0.011,0.002,0.016,0.003c0.977,0.185,1.922,0.507,2.798,0.979c1.84,0.99,3.651,1.983,4.768,2.712
				c1.432,0.938,3.191,2.1,5.211,3.499C293.09,87.151,244.664,101.632,196.853,126.429z M458.74,334.896
				c-0.007,0.233,0.006,0.517-0.023,0.675l-0.025,0.278l-0.01,0.168c-0.053,0.159-0.11,0.283-0.184,0.442
				c-0.146,0.225-0.472,0.673-0.933,1.151c-0.728,0.752-1.816,1.6-3.083,2.428c-1.461-17.516-4.23-38.22-8.493-60.101
				c2.861,8.765,5.566,17.777,7.92,27.008c1.276,5.057,2.475,10.191,3.397,15.296c0.478,2.555,0.856,5.096,1.134,7.552
				c0.066,0.612,0.14,1.231,0.173,1.811c0.043,0.588,0.099,1.192,0.106,1.727l0.031,0.827L458.74,334.896z"/>
			<path style="opacity:0.5;fill:#B2EBF2;" d="M46.333,145.333c-11.582,0-11.601,18,0,18
				C57.916,163.333,57.935,145.333,46.333,145.333z"/>
			<path style="opacity:0.5;fill:#B2EBF2;" d="M35,191.333c-9.008,0-9.023,14,0,14C44.008,205.333,44.023,191.333,35,191.333z"/>
			<path style="opacity:0.5;fill:#B2EBF2;" d="M171,63.167c-10.939,0-10.957,17,0,17C181.939,80.167,181.957,63.167,171,63.167z"/>
			<path style="opacity:0.5;fill:#B2EBF2;" d="M476.781,239.212c-10.939,0-10.957,17,0,17
				C487.72,256.212,487.738,239.212,476.781,239.212z"/>
			<path style="opacity:0.5;fill:#B2EBF2;" d="M169.667,99.167c-8.365,0-8.379,13,0,13
				C178.032,112.167,178.045,99.167,169.667,99.167z"/>
			<path style="opacity:0.5;fill:#B2EBF2;" d="M445.99,56.667c-8.365,0-8.379,13,0,13C454.354,69.667,454.368,56.667,445.99,56.667z
				"/>
			<path style="opacity:0.5;fill:#B2EBF2;" d="M465.029,206.749c-8.365,0-8.379,13,0,13
				C473.394,219.749,473.408,206.749,465.029,206.749z"/>
			<path style="opacity:0.5;fill:#B2EBF2;" d="M458.75,95.084c-5.255,0-5.263,8.166,0,8.166
				C464.005,103.25,464.014,95.084,458.75,95.084z"/>
		</g>
		<g>
			<path style="opacity:0.5;fill:#78909C;" d="M474.333,442.892c0,0-96.557,8.779-215.667,8.779S43,442.892,43,442.892
				s96.557-8.779,215.667-8.779S474.333,442.892,474.333,442.892z"/>
			<g>
				<g>
					<g>
						<path style="fill:#C27E3B;" d="M443.435,103.048l0.196,323.381c0.003,4.831-2.271,9.124-5.822,11.841
							c-2.534,1.978-5.708,3.138-9.141,3.14l-231.057,0.14c-8.265,0.005-14.975-6.698-14.98-14.962l-0.196-323.38
							c-0.005-8.264,6.698-14.975,14.962-14.98l231.057-0.14C436.738,88.081,443.43,94.784,443.435,103.048z"/>
					</g>
					<g>
						<g>
							<polygon style="fill:#FFFFFF;" points="422.971,116.036 423.112,348.929 380.539,390.197 203.079,390.304 202.914,116.169 
															"/>
							<polygon style="fill:#EAEAEA;" points="423.112,348.929 380.539,390.197 380.514,348.955 							"/>
						</g>
						<rect x="224.23" y="132.741" style="fill:#D1D1D1;" width="177.46" height="23.289"/>
						<g>
							<rect x="224.245" y="168.03" style="fill:#090909;" width="85.877" height="4.242"/>
						</g>
						<g>
							<rect x="224.252" y="179.524" style="fill:#090909;" width="177.46" height="4.242"/>
						</g>
						<g>
							<rect x="224.259" y="191.045" style="fill:#090909;" width="177.46" height="4.242"/>
						</g>
						<g>
							<rect x="224.266" y="202.565" style="fill:#090909;" width="177.46" height="4.242"/>
						</g>
						<g>
							<rect x="224.273" y="214.086" style="fill:#090909;" width="177.46" height="4.242"/>
						</g>
						<g>
							<rect x="224.28" y="225.607" style="fill:#090909;" width="177.46" height="4.242"/>
						</g>
						<g>
							<rect x="224.287" y="237.128" style="fill:#090909;" width="177.46" height="4.242"/>
						</g>
						<g>
							<rect x="224.294" y="248.649" style="fill:#090909;" width="177.46" height="4.242"/>
						</g>
						<g>
							<rect x="224.301" y="260.17" style="fill:#090909;" width="177.46" height="4.242"/>
						</g>
						<g>
							
								<ellipse transform="matrix(0.1602 -0.9871 0.9871 0.1602 -127.365 526.3886)" style="fill:#DF2B2B;" cx="245.665" cy="338.044" rx="21.421" ry="21.421"/>
							<polygon style="fill:#FFFFFF;" points="259.201,333.955 249.754,333.955 249.754,324.508 241.576,324.508 241.576,333.955 
								232.13,333.955 232.13,342.133 241.576,342.133 241.576,351.58 249.754,351.58 249.754,342.133 259.201,342.133 							"/>
						</g>
					</g>
					<g>
						<path style="fill:#005E7C;" d="M365.155,82.055l-0.003-5.656c-0.005-8.452-6.861-15.3-15.313-15.295l-73.859,0.045
							c-8.452,0.005-15.299,6.861-15.294,15.314l0.003,5.655l-28.09,0.017l0.025,40.589l160.645-0.097l-0.025-40.589L365.155,82.055
							z"/>
						<rect x="232.62" y="110.114" style="fill:#047C9D;" width="160.645" height="12.562"/>
						<path style="fill:#143358;" d="M342.036,80.154l-58.231,0.035c-2.067,0.001-3.744-1.674-3.745-3.741l0,0
							c-0.001-2.067,1.673-3.744,3.741-3.745l58.231-0.035c2.067-0.001,3.744,1.674,3.745,3.741l0,0
							C345.778,78.476,344.103,80.152,342.036,80.154z"/>
					</g>
					<path style="opacity:0.3;fill:#B3B3B3;" d="M437.809,438.269c-2.534,1.978-5.708,3.138-9.141,3.14l-231.057,0.14
						c-8.265,0.005-14.975-6.698-14.98-14.962l-0.196-323.38c-0.005-8.264,6.698-14.975,14.962-14.98l18.664-0.011
						c-2.672,6.23-5.522,12.12-6.817,16.592c-12.292,42.366-14.26,87.76-5.211,130.972c12.352,59.04,45.162,113.595,91.517,152.193
						c21.409,17.833,45.951,32.45,72.884,39.6c21.981,5.835,44.978,6.56,67.397,10.339
						C436.491,438.031,437.15,438.13,437.809,438.269z"/>
				</g>
				<g>
					<g>
						<g>
							<g>
								<g>
									<g>
										<polygon style="fill:#FFA07F;" points="131.839,127.176 115.605,127.176 116.01,118.486 116.468,108.681 116.474,108.55 
											130.885,108.55 131.392,118.471 										"/>
										<path style="fill:#FF7D6F;" d="M131.392,118.471c-4.592,2.834-10.539,2.709-15.382,0.014l0.459-9.805l0.008-0.131h14.408
											L131.392,118.471z"/>
									</g>
									<path style="fill:#FFD39C;" d="M117.808,127.176c-0.326-2.971-0.566-15.401-0.713-18.626h-0.619l-0.87,18.626H117.808z"/>
									<path style="fill:#FFD39C;" d="M131.838,127.176l-0.953-18.626h-0.761c0.147,3.256,0.261,15.726,0.341,18.626H131.838z"/>
								</g>
								<g>
									<g>
										<g>
											<g>
												<g>
													<g>
														<g>
															<g>
																<path style="fill:#FFBF90;" d="M110.478,105.025c-2.77-0.277-4.787-2.363-5.866-4.11
																	c-0.243-0.394-0.438-0.771-0.584-1.105c-0.791-1.821-1.019-8.138,1.018-9.606c1.428-1.027,2.466,0.463,2.96,1.45
																	c0,0.002,0,0.003,0,0.003c0.211,0.419,0.323,0.747,0.323,0.747L110.478,105.025z"/>
																<path style="fill:#FFA07F;" d="M110.478,105.025c-2.77-0.277-4.787-2.363-5.866-4.11
																	c-0.093-0.178-0.175-0.348-0.245-0.509c-0.791-1.821-1.018-8.137,1.019-9.604c1.156-0.834,2.057-0.014,2.621,0.852
																	c0,0.002,0,0.003,0,0.003c0.211,0.419,0.323,0.747,0.323,0.747L110.478,105.025z"/>
																<path style="fill:#FF7D6F;" d="M104.404,95.222c-0.102,0.505-0.038,1.031,0.093,1.53
																	c0.556,2.12,2.224,3.737,3.821,5.239c-0.481-1.028-0.659-2.188-0.56-3.319c0.034-0.393,0.101-0.785,0.104-1.179
																	C107.874,95.903,105.007,92.235,104.404,95.222z"/>
																<g>
																	<path style="fill:#CF4A57;" d="M109.119,102.594c0,0-0.031-0.022-0.091-0.065
																		c-0.058-0.045-0.151-0.103-0.257-0.195c-0.214-0.181-0.509-0.472-0.788-0.903
																		c-0.277-0.429-0.529-1.003-0.648-1.683c-0.108-0.677-0.086-1.466,0.201-2.227c0.03-0.096,0.073-0.188,0.116-0.278
																		l0.032-0.068c0.008-0.017,0.003-0.006,0.004-0.008l-0.001,0.002l0.002-0.001h0c0,0,0.002,0.003-0.005-0.011
																		l-0.026-0.061l-0.054-0.121c-0.037-0.079-0.073-0.159-0.111-0.236c-0.151-0.311-0.314-0.602-0.481-0.873
																		c-0.168-0.271-0.341-0.52-0.513-0.748c-0.173-0.226-0.339-0.439-0.505-0.596c-0.165-0.159-0.347-0.262-0.517-0.29
																		c-0.17-0.024-0.331,0.025-0.44,0.092c-0.11,0.07-0.171,0.159-0.196,0.225c-0.027,0.067-0.025,0.107-0.028,0.106
																		c0,0-0.008-0.039,0.005-0.113c0.011-0.074,0.055-0.185,0.164-0.288c0.109-0.1,0.279-0.194,0.504-0.202
																		c0.225-0.002,0.468,0.093,0.685,0.249c0.219,0.156,0.415,0.352,0.622,0.566c0.205,0.216,0.414,0.46,0.614,0.731
																		c0.2,0.271,0.393,0.57,0.567,0.893c0.044,0.081,0.086,0.164,0.128,0.247l0.061,0.127l0.081,0.179l0.056,0.126
																		c-0.015,0.042-0.037,0.084-0.055,0.126l-0.081,0.18c-0.037,0.079-0.074,0.158-0.1,0.242
																		c-0.249,0.659-0.305,1.35-0.258,1.969c0.058,0.62,0.222,1.171,0.422,1.608c0.201,0.438,0.43,0.763,0.602,0.977
																		c0.085,0.108,0.163,0.183,0.21,0.239C109.094,102.565,109.119,102.594,109.119,102.594z"/>
																</g>
															</g>
															<g>
																<path style="fill:#FFBF90;" d="M136.873,105.025c2.77-0.277,4.787-2.363,5.866-4.11
																	c0.243-0.394,0.438-0.771,0.584-1.105c0.791-1.821,1.018-8.138-1.018-9.606c-1.428-1.027-2.466,0.463-2.96,1.45
																	c0,0.002,0,0.003,0,0.003c-0.21,0.419-0.323,0.747-0.323,0.747L136.873,105.025z"/>
																<path style="fill:#FFA07F;" d="M136.873,105.025c2.77-0.277,4.787-2.363,5.866-4.11
																	c0.093-0.178,0.175-0.348,0.244-0.509c0.791-1.821,1.018-8.137-1.018-9.604c-1.156-0.834-2.057-0.014-2.621,0.852
																	c0,0.002,0,0.003,0,0.003c-0.21,0.419-0.323,0.747-0.323,0.747L136.873,105.025z"/>
																<path style="fill:#FF7D6F;" d="M142.947,95.222c0.102,0.505,0.038,1.031-0.093,1.53
																	c-0.557,2.12-2.224,3.737-3.821,5.239c0.481-1.028,0.658-2.188,0.56-3.319c-0.034-0.393-0.101-0.785-0.104-1.179
																	C139.477,95.903,142.344,92.235,142.947,95.222z"/>
																<g>
																	<path style="fill:#CF4A57;" d="M138.231,102.594c0,0,0.031-0.022,0.091-0.065c0.058-0.045,0.151-0.103,0.257-0.195
																		c0.214-0.181,0.509-0.472,0.788-0.903c0.277-0.429,0.529-1.003,0.648-1.683c0.108-0.677,0.086-1.466-0.201-2.227
																		c-0.03-0.096-0.073-0.188-0.116-0.278l-0.032-0.068c-0.008-0.017-0.003-0.006-0.004-0.008l0.001,0.002
																		l-0.002-0.001h0c0,0-0.002,0.003,0.005-0.011l0.026-0.061l0.054-0.121c0.037-0.079,0.073-0.159,0.111-0.236
																		c0.151-0.311,0.314-0.602,0.481-0.873c0.168-0.271,0.341-0.52,0.513-0.748c0.173-0.226,0.34-0.439,0.505-0.596
																		c0.165-0.159,0.347-0.262,0.517-0.29c0.171-0.024,0.331,0.025,0.44,0.092c0.11,0.07,0.171,0.159,0.196,0.225
																		c0.027,0.067,0.025,0.107,0.028,0.106c0,0,0.008-0.039-0.005-0.113c-0.011-0.074-0.055-0.185-0.165-0.288
																		c-0.109-0.1-0.279-0.194-0.504-0.202c-0.225-0.002-0.468,0.093-0.685,0.249c-0.219,0.156-0.415,0.352-0.622,0.566
																		c-0.205,0.216-0.414,0.46-0.613,0.731c-0.2,0.271-0.393,0.57-0.568,0.893c-0.044,0.081-0.086,0.164-0.128,0.247
																		l-0.061,0.127l-0.081,0.179l-0.056,0.126c0.015,0.042,0.037,0.084,0.055,0.126l0.081,0.18
																		c0.036,0.079,0.074,0.158,0.1,0.242c0.249,0.659,0.304,1.35,0.258,1.969c-0.058,0.62-0.222,1.171-0.422,1.608
																		c-0.201,0.438-0.43,0.763-0.603,0.977c-0.085,0.108-0.163,0.183-0.21,0.239
																		C138.257,102.565,138.231,102.594,138.231,102.594z"/>
																</g>
															</g>
														</g>
														<g>
															<path style="fill:#FFA07F;" d="M139.334,95.442c0,0-2.69,13.678-5.719,17.058c-3.023,3.38-10.066,4.02-10.066,4.02
																s-7.036-0.64-10.059-4.02c-3.029-3.38-5.299-17.096-5.299-17.096c-0.382-1.123-0.615-2.534-0.746-3.989v-0.025
																c-0.345-3.819-0.019-7.952-0.019-7.952s0.157-7.946,4.007-11.326c1.649-1.449,4.108-1.656,6.384-1.418
																c3.819,0.395,7.651,0.395,11.47,0c2.277-0.238,4.735-0.031,6.384,1.418c1.938,1.7,2.941,4.559,3.456,6.974
																c0.514,2.389,0.552,4.352,0.552,4.352S140.72,91.385,139.334,95.442z"/>
															<path style="fill:#FFD39C;" d="M133.405,111.118c-3.831,6.499-14.989,5.022-19.315,0.695
																c-6.804-10.353-6.47-24.615-4.131-37.947c-2.42,3.797-2.534,9.57-2.534,9.57s-0.623,7.906,0.767,11.968
																c0,0,2.271,13.716,5.297,17.095c3.025,3.379,10.063,4.023,10.063,4.023s7.038-0.644,10.063-4.023
																c3.025-3.379,5.716-17.055,5.716-17.055c0.955-2.791,0.762-7.414,0.547-10.035
																C139.103,93.945,138.597,102.31,133.405,111.118z"/>
															<g>
																<g>
																	<g>
																		<g>
																			<path style="fill:#FF7D6F;" d="M121.699,98.386c0.102-0.033,0.205,0.01,0.382,0.039
																				c0.433,0.07,0.916,0.139,1.355,0.122c0.638-0.025,1.212-0.188,1.813-0.383c0.769-0.249,0.466,0.308,0.255,0.835
																				c-0.237,0.592-0.547,1.156-0.921,1.673c-1.214-0.061-2.412-0.428-3.452-1.057c0-0.184,0.317-1.042,0.452-1.161
																				C121.625,98.42,121.662,98.398,121.699,98.386z"/>
																			<g>
																				<path style="fill:#FC5B68;" d="M122.719,88.284c0,0,0.239,0.781,0.414,2.094
																					c0.166,1.308,0.237,3.166-0.136,5.167c-0.183,0.999-0.451,1.932-0.754,2.756
																					c-0.079,0.204-0.157,0.404-0.232,0.598c-0.041,0.095-0.082,0.19-0.122,0.282l-0.054,0.086
																					c-0.033,0.035-0.019,0.057,0.007,0.078c0.023,0.024,0.039,0.044,0.076,0.076
																					c0.137,0.102,0.273,0.194,0.405,0.281c0.531,0.341,1.008,0.558,1.344,0.695
																					c0.337,0.134,0.533,0.196,0.533,0.196s-0.204,0.003-0.573-0.04c-0.368-0.046-0.905-0.144-1.537-0.392
																					c-0.157-0.063-0.322-0.133-0.488-0.217c-0.115-0.06-0.248-0.14-0.38-0.217l-0.203-0.122
																					c-0.056-0.014-0.007-0.063-0.008-0.096l0.032-0.111c0.045-0.152,0.091-0.307,0.138-0.464
																					c0.026-0.094,0.052-0.19,0.078-0.287c0.049-0.195,0.1-0.396,0.151-0.601c0.201-0.823,0.397-1.73,0.572-2.686
																					c0.356-1.912,0.541-3.673,0.634-4.967C122.702,89.102,122.719,88.284,122.719,88.284z"/>
																			</g>
																		</g>
																		<g>
																			<g>
																				<g>
																					<g>
																						<path style="fill:#161818;" d="M118.443,91.216c0,0-0.087-0.102-0.242-0.286
																							c-0.157-0.181-0.385-0.437-0.68-0.727c-0.028-0.029-0.059-0.055-0.088-0.084
																							c-0.585-0.56-1.426-1.227-2.452-1.579c-0.337-0.12-0.676-0.189-1.007-0.218
																							c-0.715-0.066-1.387,0.055-1.895,0.255c-0.374,0.143-0.669,0.311-0.867,0.441
																							c-0.1,0.063-0.172,0.121-0.224,0.157c-0.054,0.036-0.081,0.055-0.081,0.055s0.016-0.029,0.048-0.084
																							c0.033-0.055,0.075-0.142,0.145-0.242c0.136-0.204,0.365-0.488,0.724-0.769
																							c0.18-0.142,0.394-0.275,0.639-0.398c0.247-0.115,0.524-0.217,0.829-0.283
																							c0.305-0.064,0.635-0.096,0.977-0.081c0.04,0.002,0.079,0.005,0.12,0.009c0.305,0.024,0.62,0.09,0.922,0.193
																							c0.688,0.233,1.251,0.641,1.678,1.063c0.103,0.102,0.199,0.206,0.287,0.31
																							c0.282,0.326,0.491,0.657,0.653,0.95c0.21,0.391,0.334,0.723,0.41,0.955
																							C118.413,91.086,118.443,91.216,118.443,91.216z"/>
																					</g>
																					<path style="fill:#161818;" d="M117.45,90.661c0,2.272-0.855,4.115-1.908,4.115
																						c-1.054,0-1.908-1.842-1.908-4.115c0-0.87,0.126-1.676,0.34-2.339c0.114-0.359,0.255-0.677,0.416-0.94
																						c0.305,0.024,0.62,0.09,0.922,0.193c0.688,0.233,1.251,0.641,1.678,1.063c0.103,0.102,0.199,0.206,0.287,0.31
																						c0.078,0.364,0.132,0.757,0.156,1.172C117.444,90.296,117.45,90.477,117.45,90.661z"/>
																					<polygon style="fill:#FFFFFF;" points="111.665,88.386 111.174,90.734 115.102,90.293 																					
																						"/>
																				</g>
																				<g>
																					<path style="fill:#FC5B68;" d="M117.886,88.296c0,0-0.016-0.019-0.047-0.056
																						c-0.032-0.036-0.073-0.092-0.134-0.158c-0.118-0.135-0.3-0.319-0.544-0.516
																						c-0.483-0.396-1.255-0.819-2.173-0.943c-0.918-0.123-1.774,0.08-2.345,0.334
																						c-0.287,0.125-0.512,0.254-0.662,0.353c-0.077,0.047-0.131,0.09-0.171,0.116
																						c-0.039,0.027-0.06,0.041-0.06,0.041s0.016-0.019,0.047-0.056c0.032-0.035,0.075-0.093,0.14-0.157
																						c0.125-0.133,0.322-0.313,0.599-0.497c0.276-0.184,0.636-0.363,1.067-0.481
																						c0.429-0.119,0.929-0.168,1.446-0.101c0.516,0.072,0.986,0.253,1.368,0.481
																						c0.384,0.228,0.684,0.496,0.901,0.747c0.218,0.251,0.361,0.476,0.446,0.638
																						c0.046,0.079,0.072,0.146,0.093,0.188C117.875,88.273,117.886,88.296,117.886,88.296z"/>
																				</g>
																			</g>
																			<g>
																				<g>
																					<g>
																						<path style="fill:#161818;" d="M128.736,91.216c0,0,0.087-0.102,0.243-0.286
																							c0.157-0.181,0.385-0.437,0.679-0.727c0.029-0.029,0.059-0.055,0.088-0.084
																							c0.585-0.56,1.426-1.227,2.452-1.579c0.337-0.12,0.676-0.189,1.007-0.218
																							c0.715-0.066,1.388,0.055,1.895,0.255c0.374,0.143,0.669,0.311,0.867,0.441
																							c0.1,0.063,0.172,0.121,0.224,0.157c0.054,0.036,0.081,0.055,0.081,0.055s-0.017-0.029-0.048-0.084
																							c-0.033-0.055-0.075-0.142-0.145-0.242c-0.136-0.204-0.365-0.488-0.724-0.769
																							c-0.18-0.142-0.394-0.275-0.639-0.398c-0.247-0.115-0.524-0.217-0.829-0.283
																							c-0.305-0.064-0.635-0.096-0.977-0.081c-0.04,0.002-0.079,0.005-0.12,0.009
																							c-0.305,0.024-0.62,0.09-0.922,0.193c-0.688,0.233-1.251,0.641-1.678,1.063
																							c-0.103,0.102-0.199,0.206-0.287,0.31c-0.281,0.326-0.491,0.657-0.653,0.95
																							c-0.21,0.391-0.334,0.723-0.41,0.955C128.766,91.086,128.736,91.216,128.736,91.216z"/>
																					</g>
																					<path style="fill:#161818;" d="M129.728,90.661c0,2.272,0.855,4.115,1.908,4.115
																						c1.054,0,1.908-1.842,1.908-4.115c0-0.87-0.126-1.676-0.34-2.339c-0.114-0.359-0.254-0.677-0.416-0.94
																						c-0.305,0.024-0.62,0.09-0.922,0.193c-0.688,0.233-1.251,0.641-1.678,1.063
																						c-0.103,0.102-0.199,0.206-0.287,0.31c-0.078,0.364-0.132,0.757-0.156,1.172
																						C129.734,90.296,129.728,90.477,129.728,90.661z"/>
																					<polygon style="fill:#FFFFFF;" points="135.514,88.386 136.004,90.734 132.076,90.293 																					
																						"/>
																				</g>
																				<g>
																					<path style="fill:#FC5B68;" d="M129.293,88.296c0,0,0.016-0.019,0.047-0.056
																						c0.032-0.036,0.072-0.092,0.135-0.158c0.118-0.135,0.3-0.319,0.544-0.516c0.483-0.396,1.255-0.819,2.173-0.943
																						c0.918-0.123,1.775,0.08,2.345,0.334c0.288,0.125,0.512,0.254,0.662,0.353c0.077,0.047,0.131,0.09,0.171,0.116
																						c0.039,0.027,0.06,0.041,0.06,0.041s-0.016-0.019-0.047-0.056c-0.032-0.035-0.075-0.093-0.14-0.157
																						c-0.125-0.133-0.322-0.313-0.599-0.497c-0.276-0.184-0.636-0.363-1.067-0.481
																						c-0.429-0.119-0.929-0.168-1.446-0.101c-0.516,0.072-0.986,0.253-1.368,0.481
																						c-0.383,0.228-0.684,0.496-0.901,0.747c-0.218,0.251-0.361,0.476-0.446,0.638
																						c-0.046,0.079-0.072,0.146-0.093,0.188C129.303,88.273,129.293,88.296,129.293,88.296z"/>
																				</g>
																			</g>
																		</g>
																	</g>
																	<g>
																		<path style="fill:#FF7D6F;" d="M114.902,98.601c-0.267,0.714-2.227,0.64-4.377-0.165
																			c-2.151-0.805-3.677-2.036-3.41-2.75c0.267-0.714,2.227-0.64,4.378,0.165
																			C113.643,96.656,115.17,97.887,114.902,98.601z"/>
																		<path style="fill:#FF7D6F;" d="M140.908,95.545c0.293,0.703-1.188,1.989-3.308,2.872
																			c-2.12,0.883-4.076,1.028-4.369,0.324c-0.293-0.703,1.188-1.989,3.308-2.872
																			C138.66,94.987,140.615,94.842,140.908,95.545z"/>
																	</g>
																</g>
															</g>
														</g>
													</g>
												</g>
												<g>
													<path style="fill:#FF7D6F;" d="M131.41,102.363c0,0-0.032,0.049-0.092,0.143c-0.063,0.092-0.161,0.226-0.306,0.385
														c-0.286,0.322-0.783,0.727-1.466,1.092c-0.682,0.364-1.507,0.719-2.473,1.027c-0.963,0.304-2.066,0.543-3.248,0.609
														c-1.181,0.068-2.323-0.049-3.32-0.297c-0.999-0.247-1.855-0.612-2.525-0.991c-0.672-0.379-1.16-0.763-1.477-1.043
														c-0.16-0.138-0.276-0.255-0.354-0.334c-0.078-0.079-0.119-0.12-0.119-0.12s0.053,0.024,0.154,0.07
														c0.1,0.047,0.246,0.116,0.439,0.196c0.382,0.163,0.938,0.378,1.633,0.574c1.392,0.4,3.34,0.659,5.49,0.522
														c2.147-0.124,4.126-0.528,5.536-0.875c0.696-0.18,1.237-0.4,1.591-0.604c0.178-0.1,0.312-0.19,0.402-0.254
														C131.363,102.397,131.41,102.363,131.41,102.363z"/>
												</g>
												<g>
													<path style="fill:#FF7D6F;" d="M125.573,106.459c0,0-0.038,0.054-0.102,0.147c-0.067,0.095-0.177,0.222-0.33,0.363
														c-0.302,0.282-0.814,0.601-1.451,0.716c-0.637,0.112-1.228-0.011-1.609-0.171c-0.193-0.079-0.339-0.161-0.435-0.226
														c-0.092-0.065-0.146-0.102-0.146-0.102s0.259,0,0.642-0.023c0.385-0.021,0.886-0.086,1.423-0.18
														c0.538-0.097,1.029-0.21,1.398-0.323C125.33,106.549,125.573,106.459,125.573,106.459z"/>
												</g>
											</g>
											<g>
												<path style="fill:#161818;" d="M119.004,86.546c0,0-0.123-0.076-0.343-0.212c-0.219-0.131-0.523-0.314-0.896-0.499
													c-0.742-0.385-1.719-0.76-2.757-1.085c-1.036-0.328-2.031-0.576-2.826-0.62c-0.396-0.025-0.741-0.005-0.987,0.03
													c-0.246,0.035-0.392,0.069-0.392,0.069s0.058-0.135,0.218-0.354c0.16-0.216,0.439-0.51,0.866-0.773
													c0.84-0.537,2.303-0.858,3.763-0.393c0.723,0.229,1.348,0.613,1.829,1.045c0.484,0.432,0.826,0.91,1.052,1.334
													c0.23,0.422,0.341,0.797,0.404,1.053C118.988,86.402,119.004,86.546,119.004,86.546z"/>
											</g>
											<g>
												<path style="fill:#161818;" d="M135.445,81.697c0,0-0.14,0.014-0.389,0.039c-0.244,0.023-0.589,0.066-0.984,0.132
													c-0.799,0.128-1.768,0.388-2.714,0.732c-0.94,0.341-1.825,0.761-2.48,1.206c-0.326,0.218-0.597,0.428-0.781,0.587
													c-0.188,0.164-0.294,0.256-0.294,0.256s-0.018-0.141-0.008-0.399c0.009-0.258,0.062-0.634,0.223-1.08
													c0.16-0.445,0.442-0.953,0.877-1.424c0.433-0.47,1.025-0.896,1.732-1.156c0.706-0.253,1.425-0.31,2.05-0.239
													c0.628,0.069,1.163,0.254,1.577,0.464c0.415,0.21,0.714,0.434,0.906,0.605
													C135.353,81.589,135.445,81.697,135.445,81.697z"/>
											</g>
										</g>
									</g>
									<path style="fill:#161818;" d="M131.95,83.852c-3.247,0-5.967,2.291-6.633,5.342c-1.201-0.605-2.901-0.761-3.989,0.058
										c-0.934-2.634-3.45-4.526-6.4-4.526c-3.744,0-6.79,3.046-6.79,6.79c0,3.744,3.046,6.79,6.79,6.79
										c3.744,0,6.79-3.046,6.79-6.79c0-0.423-0.041-0.836-0.115-1.237c0.525-0.253,0.997-0.49,1.617-0.518
										c0.671-0.031,1.348,0.15,1.892,0.55c0.019,0.014,0.038,0.026,0.057,0.037c-0.004,0.098-0.007,0.196-0.007,0.295
										c0,3.744,3.046,6.79,6.789,6.79s6.79-3.046,6.79-6.79C138.739,86.898,135.693,83.852,131.95,83.852z M114.927,97.391
										c-3.24,0-5.876-2.636-5.876-5.876s2.636-5.876,5.876-5.876s5.876,2.636,5.876,5.876S118.167,97.391,114.927,97.391z
										 M131.95,96.518c-3.24,0-5.876-2.636-5.876-5.876s2.636-5.876,5.876-5.876c3.24,0,5.876,2.636,5.876,5.876
										S135.189,96.518,131.95,96.518z"/>
								</g>
							</g>
						</g>
						<g>
							<path style="fill:#161818;" d="M144.832,80.602c-0.428,4.261-2.315,8.379-5.463,11.283c-0.111-3.103-0.243-6.291-1.475-9.143
								c-1.229-2.849-3.827-5.331-6.928-5.487c0.515,0.603,1.033,1.205,1.551,1.808c-4.993,0.661-10.115,0.33-14.981-0.965
								c0.545,1.081,1.089,2.165,1.633,3.246c-2.492-0.402-5.001-1.052-7.11-2.442c-0.946-0.624-1.758-1.409-2.426-2.302
								c-0.814-1.094-1.414-2.347-1.776-3.663c-0.309-1.115-0.449-2.275-0.41-3.417c0.077-2.217,0.835-4.369,2.344-5.994
								c4.882-5.249,9.211-5.376,12.803-4.89c6.727,0.912,19.321,8.117,21.451,14.561C144.832,75.572,145.081,78.112,144.832,80.602
								z"/>
							<path style="fill:#161818;" d="M113.139,68.547c-1.234,0.669-2.165,2.659-2.868,5.246c-0.238,0.877-0.449,1.821-0.637,2.807
								c-1.403,7.366-1.496,16.966-1.496,16.966l-1.802-1.401c0,0-0.941-2.448-1.948-5.516c-1.404-4.271-2.939-9.745-2.247-11.481
								c0.666-1.671,3.204-3.959,5.307-5.648c1.646-1.327,3.029-2.284,3.029-2.284L113.139,68.547z"/>
							<path style="fill:#2C2C2C;" d="M121.848,71.552l3.322,3.473c-4.533-0.217-9.018-1.372-13.089-3.373
								c0.407,1.073,0.817,2.146,1.224,3.219c-1.01-0.359-2.022-0.719-3.034-1.078c-0.803-0.285-1.607-0.571-2.413-0.856
								c-0.291-0.103-0.579-0.206-0.87-0.309c0.063,2.979,0.124,5.992-0.505,8.904c-0.391,1.808-1.073,3.589-2.096,5.117
								c-0.584-1.784-1.195-3.774-1.655-5.617c-0.642-2.572-0.996-4.853-0.592-5.865c0.391-0.983,1.433-2.181,2.651-3.344
								c0.851-0.811,1.789-1.61,2.656-2.305c0.01-0.304,0.034-0.608,0.071-0.907c0.227-1.89,0.97-3.685,2.273-5.088
								c4.882-5.249,9.211-5.376,12.803-4.89c6.396,0.867,18.097,7.424,21.06,13.606c0.156,0.32,0.285,0.637,0.391,0.954
								c0.785,2.376,1.033,4.916,0.785,7.406C138.872,74.589,130.327,71.113,121.848,71.552z"/>
							<g>
								<g>
									<path style="fill:#474747;" d="M104.792,71.824c0.209,3.18-0.508,6.425-2.059,9.209c-0.642-2.572-0.996-4.853-0.592-5.865
										C102.533,74.184,103.574,72.987,104.792,71.824z"/>
									<path style="fill:#474747;" d="M128.107,67.677c-5.558-0.748-11.119-1.496-16.678-2.241c0.566,0.759,1.134,1.517,1.7,2.276
										c-1.837,0.484-3.716,0.785-5.609,0.901c0.227-1.89,0.97-3.685,2.273-5.088c4.882-5.249,9.211-5.376,12.803-4.89
										c6.396,0.867,18.097,7.424,21.06,13.606c-5.754-3.872-12.256-6.634-19.043-8.061
										C125.778,65.346,126.941,66.512,128.107,67.677z"/>
								</g>
							</g>
						</g>
					</g>
					<g>
						<g>
							<path style="fill:#691205;" d="M111.89,437.538c0,0-10.229,4.669-12.674,3.932c-2.445-0.737-6.671-3.042-7.838-4.376
								c-1.171-1.334,5.024-18.159,5.024-18.159l0.057-0.007l12.174-1.498c0.76,1.254,1.727,11.939,2.591,16.501
								C111.623,436.04,111.89,437.538,111.89,437.538z"/>
							<path style="fill:#4E0601;" d="M111.89,437.538c0,0-10.229,4.669-12.674,3.932c-2.445-0.737-6.671-3.042-7.838-4.376
								c-1.171-1.334,5.024-18.159,5.024-18.159l0.057-0.007c0.253,1.227-0.471,6.329-0.281,7.446
								c0.38,2.241,1.344,4.459,3.078,5.93c2.071,1.754,4.943,2.221,7.658,2.195c1.431-0.017,2.918-0.18,4.309-0.567
								C111.623,436.04,111.89,437.538,111.89,437.538z"/>
						</g>
						<g>
							<path style="fill:#691205;" d="M142.198,414.669c0,0-6.353,19.407-5.718,22.579c0.635,3.172,0.635,3.172,0.635,3.172
								s34.894,2.538,39.018,0c0,0,0.952-4.441-2.221-5.075c-3.172-0.634-9.516-0.952-12.372-2.538
								c-2.855-1.586-10.785-10.151-8.565-14.909L142.198,414.669z"/>
							<path style="fill:#4E0601;" d="M173.911,435.345c-1.725-0.345-4.387-0.597-6.917-1.01
								c-5.491,1.469-11.256,1.935-17.297,0.955c-5.479-1.142-9.077-5.504-10.563-10.64c-1.521,5.282-2.975,11-2.656,12.598
								c0.635,3.172,0.635,3.172,0.635,3.172s34.894,2.538,39.018,0C176.132,440.421,177.083,435.98,173.911,435.345z"/>
						</g>
					</g>
					<path style="fill:#D1D1D1;" d="M157.549,306.814c0,0-12.365,17.589-53.289,2.09c0,0-14.977-21.246-9.404-26.993
						c5.573-5.747,26.819-42.666,28.038-44.756c1.219-2.09,26.645-20.375,26.645-20.375l10.101,35.526l3.831,43.363L157.549,306.814
						z"/>
					<g>
						<path style="fill:#DF2B2B;" d="M154.938,263.889c0,0-19.285,4.894-42.907,0l0.387-4.843l2.104-26.359l1.755-21.996
							l-12.016-37.728l-5.224-36.15l7.217-10.731l7.412-4.739l13.322,4.739l5.137-3.318L142.159,127l2.678,1.13l8.533,51.462
							l-0.167,3.962l-2.271,53.34l2.978,20.061L154.938,263.889z"/>
						<path style="fill:#BE1B1B;" d="M153.91,256.956c-14.103,0.77-31.249,1.604-41.493,2.09l2.104-26.359
							c6.356,5.591,14.764,11.274,17.732,5.471c5.005-9.787,12.19-70.705,12.19-70.705l8.76,16.102l-2.271,53.34L153.91,256.956z"/>
						<polygon style="fill:#171228;" points="122.455,131.414 125.794,135.985 128.889,220.583 138.712,229.634 146.765,219.683 
							132.09,134.919 133.274,131.414 126.986,126.081 						"/>
						<polygon style="fill:#BE1B1B;" points="142.159,127 140.87,139.995 128.54,132.867 120.139,142.404 106.253,126.082 
							113.664,121.343 126.987,126.082 132.124,122.764 						"/>
						<g>
							<polygon style="fill:#DF2B2B;" points="132.646,121.343 142.166,126.921 137.406,134.919 126.986,126.081 							"/>
							<polygon style="fill:#DF2B2B;" points="126.986,126.081 118.54,136.024 106.254,126.081 113.315,119.449 							"/>
						</g>
					</g>
					<g>
						<path style="fill:#006D93;" d="M157.073,424.649l-24.078,0.934c0,0-4.528-47.02-6.269-54.683
							c-1.741-7.663,7.488-48.762,7.488-48.762l0.937-41.566c0,0-11.908,50.273-10.863,54.801
							c1.045,4.528-11.494,90.209-11.494,90.209H91.548c-0.359-2.382-0.54-5.608-0.578-9.421
							c-0.254-25.729,5.886-78.158,5.886-78.158l6.569-19l6.531-52.133l3.068-24.492c15.231,6.13,39.953,0.933,39.953,0.933
							l4.719,49.267l2.929,30.605c-2.936,10.393-3.56,50.001-3.629,76.545C156.951,414.106,157.073,424.649,157.073,424.649z"/>
						<path style="fill:#005E7C;" d="M157.073,424.649l-24.078,0.934c0,0-4.528-47.02-6.269-54.683
							c-1.741-7.663,7.488-48.762,7.488-48.762l0.937-41.566c0,0-11.908,50.273-10.863,54.801
							c1.045,4.528-11.494,90.209-11.494,90.209H91.548c-0.359-2.382-0.54-5.608-0.578-9.421
							c10.745-10.177,28.86-37.118,28.146-102.709l-9.16-46.581l3.068-24.492c15.231,6.13,39.953,0.933,39.953,0.933l4.719,49.267
							c-7.603,19.111-21.775,57.8-18.39,72.749c2.194,9.7,10.083,23.096,17.69,34.401
							C156.951,414.106,157.073,424.649,157.073,424.649z"/>
						<path style="fill:#143358;" d="M155.554,272.826c-0.976,0.278-2.37,0.749-4.052,1.334c-0.841,0.289-1.754,0.604-2.726,0.898
							c-0.485,0.152-0.986,0.291-1.504,0.41c-0.52,0.116-1.035,0.284-1.59,0.367c-2.183,0.448-4.61,0.7-7.161,0.692
							c-0.996-0.002-1.974-0.043-2.927-0.117c0.111-0.609,0.235-1.33,0.361-2.15c0.298-1.931,0.601-4.402,0.776-7.172
							c0.58-0.111,1.355-0.305,2.247-0.679c1.02-0.427,2.196-1.091,3.322-2.082c0.138-0.127,0.277-0.256,0.418-0.387l0.204-0.206
							l0.133-0.14c0.058-0.061,0.115-0.126,0.171-0.193c0.228-0.27,0.459-0.542,0.691-0.817c0.05-0.034-0.002-0.071-0.007-0.107
							l-0.047-0.109l-0.095-0.219c-0.065-0.147-0.13-0.295-0.195-0.444c-0.066-0.15-0.133-0.301-0.2-0.452l-0.051-0.114
							l-0.024-0.066l-0.045-0.126c-0.061-0.167-0.123-0.335-0.185-0.505c-0.112-0.344-0.23-0.692-0.331-1.052
							c-0.821-2.873-1.067-5.735-1.306-7.827c-0.113-1.048-0.202-1.907-0.278-2.501c-0.071-0.595-0.123-0.925-0.123-0.925
							s-0.093,0.321-0.239,0.902c-0.142,0.583-0.342,1.427-0.52,2.486c-0.177,1.059-0.34,2.336-0.359,3.783
							c-0.023,1.443,0.123,3.067,0.594,4.725c0.117,0.414,0.262,0.817,0.411,1.21c0.083,0.194,0.166,0.387,0.248,0.578l0.062,0.142
							l0.03,0.068l0.01,0.016l0.043,0.064l0.091,0.134c0.003,0.011,0.005,0.026,0.004,0.045c0,0.004-0.001,0.009-0.003,0.016
							c-0.003,0.005,0.003,0.001-0.007,0.015l-0.038,0.05l-0.15,0.199c-0.104,0.129-0.206,0.257-0.307,0.384
							c-0.829,0.999-1.708,1.816-2.508,2.45c-0.609,0.485-1.171,0.859-1.63,1.144c0.051-0.912,0.088-1.853,0.105-2.818
							c0.072-4.124-0.224-7.859-0.543-10.554c-0.319-2.696-0.649-4.356-0.649-4.356s-0.263,1.673-0.538,4.365
							c-0.274,2.694-0.573,6.404-0.644,10.503c-0.073,4.099,0.095,7.818,0.275,10.519c0.054,0.814,0.111,1.533,0.163,2.143
							c-1.25-0.119-2.455-0.293-3.595-0.515c-2.198-0.429-4.167-1.006-5.797-1.616c-0.411-0.145-0.785-0.32-1.154-0.464
							c-0.364-0.152-0.72-0.279-1.029-0.44c-0.318-0.15-0.613-0.29-0.886-0.419c-0.275-0.127-0.53-0.243-0.744-0.368
							c-0.876-0.477-1.383-0.735-1.383-0.735s0.359,0.424,1.05,1.18c0.168,0.195,0.375,0.388,0.603,0.599
							c0.23,0.212,0.479,0.442,0.748,0.689c0.265,0.257,0.579,0.484,0.906,0.742c0.331,0.249,0.673,0.535,1.057,0.791
							c1.521,1.056,3.491,2.126,5.84,2.941c2.344,0.813,5.076,1.347,7.967,1.351c2.891,0.009,5.637-0.518,7.984-1.362
							c0.595-0.181,1.146-0.456,1.688-0.682c0.543-0.229,1.054-0.481,1.532-0.743c0.962-0.516,1.809-1.048,2.568-1.544
							c1.513-0.998,2.681-1.854,3.507-2.43c0.827-0.581,1.284-0.902,1.284-0.902S156.529,272.543,155.554,272.826z"/>
						<path style="fill:#047C9D;" d="M150.931,325.738c0,0-10.464,19.737-4.812,24.613c0,0,9.256-3.019,9.66-11.378
							C156.182,330.614,150.931,325.738,150.931,325.738z"/>
						<path style="fill:#047C9D;" d="M103.58,332.529c0,0-5.847,7.178-4.544,9.714c1.303,2.535,10.242,8.108,10.242,8.108
							s10.672-6.232,7.832-12.346C114.271,331.891,103.58,332.529,103.58,332.529z"/>
					</g>
					<g>
						<g>
							<g>
								<path style="fill:#FFA07F;" d="M209.736,159.467c0.053-0.203,0.102-0.402,0.151-0.602c0.077-0.149,0.15-0.293,0.227-0.442
									c0.203-0.394,0.415-0.784,0.64-1.163c0-0.008,0.004-0.008,0.008-0.012c1.448-2.481,3.268-4.693,5.086-6.501
									c2.788-2.788,5.556-4.607,6.878-4.914c2.511-0.578,12.174-5.533,12.234-4.669c0.055,0.868-0.537,2.697-2.203,3.485
									c-1.67,0.788-7.881,3.906-7.996,5.661c-0.115,1.751,14.244-1.397,16.21-2.87c1.754-1.313,10.821-5.007,11.528-4.315
									c0.091,0.088,0.044,0.244-0.156,0.475c-1.823,2.129-17.173,12.486-17.173,12.486s-7.41,2.326-13.589,4.577c0,0,0,0-0.004,0
									c-0.636,0.234-1.264,0.463-1.866,0.692c-0.267,0.099-0.524,0.199-0.778,0.297c-0.309,0.121-0.605,0.237-0.898,0.353
									c-1.203,0.477-2.254,0.925-3.049,1.318l-3.815-2.804L209.736,159.467z"/>
								<polygon style="fill:#BE1B1B;" points="208.427,156.598 210.633,153.441 222.939,160.432 217.715,165.161 								"/>
							</g>
							<path style="fill:#FFFFFF;" d="M221.692,162.913c0,0-17.415,30.097-27.397,33.466c-6.235,2.103-23.151-7.776-34.979-15.492
								c-0.32-0.208-0.637-0.417-0.947-0.619c-0.341-0.224-0.676-0.445-1.003-0.663c0,0,0,0,0-0.003
								c-6.109-4.048-10.438-7.217-10.438-7.217l-1.627-30.732l11.727-7.997l32.392,38.937l18.111-19.467l10.062,6.952
								L221.692,162.913z"/>
							<path style="fill:#EAEAEA;" d="M221.692,162.913c0,0-17.415,30.097-27.397,33.466c-6.235,2.103-23.151-7.776-34.979-15.492
								c-0.32-0.208-0.637-0.417-0.947-0.619l0.282-4.306c0,0,18.895,13.68,26.324,13.26c7.429-0.42,19.968-20.31,19.968-20.31
								s4.528,6.548,7.663,1.746c2.295-3.514,4.155-8.278,4.988-10.58L221.692,162.913z"/>
							<path style="fill:#D1D1D1;" d="M159.316,180.887c-0.669-0.436-1.32-0.865-1.951-1.282c0,0,0,0,0-0.003
								c0.049-0.246,2.515-12.673,1.142-19.17C158.623,160.763,161.05,168.047,159.316,180.887z"/>
							<path style="fill:#D1D1D1;" d="M188.806,176.097c0,0,1.368,13.038-5.31,14.104
								C183.496,190.201,193.334,189.492,188.806,176.097z"/>
						</g>
						<g>
							<path style="fill:#FFFFFF;" d="M175.487,306.668c0,0-11.145,10.103-28.56,12.629l-0.808-27.287l-1.63-55.115l-5.183-81.13
								l3.41-10.848c0,0-0.665-14.207-0.55-17.996l14.862,6.734c0,0,0.731,53.555,0.045,71.497
								c-0.404,10.627,5.43,41.236,10.637,66.089C171.792,290.725,175.487,306.668,175.487,306.668z"/>
							<polygon style="fill:#B0B0B0;" points="150.931,236.895 160.626,247.712 157.395,249.032 150.931,239.224 							"/>
							<path style="fill:#EAEAEA;" d="M175.487,306.668c0,0-11.145,10.103-28.56,12.629l-0.808-27.287
								c3.135,1.402,7.367,2.242,10.992-0.707c3.796-3.085,7.816-12.468,10.599-20.061
								C171.792,290.725,175.487,306.668,175.487,306.668z"/>
						</g>
					</g>
					<g>
						<path style="fill:#FFFFFF;" d="M127.422,322.139c0,0-40.751-4.736-49.458-14.207c0,0,2.25-5.901,5.527-14.725
							c9.153-24.651,26.314-72.116,24.774-77.464c-2.09-7.262-18.808-77.035-18.808-77.035l16.795-12.625l5.346,12.414l7.516,20.228
							l1.341,19.132c0,0,7.642,65.944,8.377,111.83C129.042,302.82,128.683,314.309,127.422,322.139z"/>
						<polygon style="fill:#B0B0B0;" points="113.999,239.224 100.339,253.788 101.647,256.74 118.218,238.684 						"/>
						<path style="fill:#EAEAEA;" d="M127.422,322.139c0,0-40.751-4.736-49.458-14.207c0,0,2.25-5.901,5.527-14.725
							c4.733,3.94,10.634,7.208,15.545,4.834c10.01-4.843,13.956-13.759,13.956-13.759s8.819,11.221,15.841,5.405
							C129.042,302.82,128.683,314.309,127.422,322.139z"/>
						<path style="fill:#D1D1D1;" d="M115.838,173.436c-2.017,0-2.02,2.842,0,2.842
							C117.855,176.278,117.858,173.436,115.838,173.436z"/>
						<path style="fill:#D1D1D1;" d="M118.624,199.798c-2.017,0-2.02,2.841,0,2.841C120.641,202.64,120.645,199.798,118.624,199.798
							z"/>
						<path style="fill:#D1D1D1;" d="M121.933,231.528c-2.017,0-2.02,2.841,0,2.841C123.95,234.369,123.953,231.528,121.933,231.528
							z"/>
						<path style="fill:#D1D1D1;" d="M122.804,258.048c-2.017,0-2.02,2.841,0,2.841C124.821,260.89,124.824,258.048,122.804,258.048
							z"/>
						<path style="fill:#D1D1D1;" d="M122.455,283.937c-2.017,0-2.02,2.841,0,2.841
							C124.473,286.778,124.476,283.937,122.455,283.937z"/>
					</g>
					<g>
						<polygon style="fill:#FFFFFF;" points="94.916,212.935 99.036,217.636 88.876,229.634 56.37,201.851 62.026,190.201 
							85.393,142.076 96.177,133.656 100.718,141.864 101.648,167.122 97.796,173.335 97.796,173.338 96.497,175.431 
							82.227,198.457 						"/>
						<polygon style="fill:#D1D1D1;" points="97.796,173.335 97.796,173.338 96.497,175.431 93.613,163.324 						"/>
						<path style="fill:#EAEAEA;" d="M99.036,217.636l-10.16,11.997L56.37,201.851l5.656-11.65
							c-0.011,5.282,1.031,10.141,4.179,12.815c6.363,5.405,20.337,8.49,28.71,9.92L99.036,217.636z"/>
						<path style="fill:#D1D1D1;" d="M79.009,198.851c0,0-7.927-0.579-12.223,1.526C66.786,200.377,70.624,196.22,79.009,198.851z"
							/>
						<g>
							<g>
								<path style="fill:#FF7D6F;" d="M100.627,219.265c0,0,5.645-4.672,7.206-3.175c1.562,1.497-2.674,5.656-2.674,5.656
									L100.627,219.265z"/>
								<path style="fill:#FFA07F;" d="M118.715,224.109c-0.522,1.579-10.95-3.239-10.95-3.239l-2.274,2.238l4.169,2.422
									l3.657,5.999c0,0-0.763,1.133-1.78,2.466c-0.125,0.167-0.258,0.335-0.39,0.505c-0.616,0.789-1.299,1.604-1.947,2.264
									c-0.059,0.066-0.125,0.129-0.185,0.193c-0.331,0.322-0.648,0.6-0.937,0.808c-0.324,0.23-0.613,0.373-0.857,0.395
									l-3.796-3.947c0,0-7.523,0.631-8.568,0.158c-0.414-0.189-1.519-1.85-2.699-3.782c-0.564-0.928-1.149-1.92-1.682-2.841
									l2.184-2.579l4.946-5.841c0.714-0.212,1.665-0.474,2.734-0.729v-0.003c0.526-0.126,1.08-0.249,1.647-0.366
									c2.059-0.42,4.301-0.723,6.074-0.575c0.752,0.06,1.418,0.205,1.947,0.458C113.664,219.846,119.237,222.533,118.715,224.109z
									"/>
								<g>
									<g>
										<path style="fill:#CD4A57;" d="M109.199,236.762c-0.059,0.066-0.125,0.129-0.185,0.193
											c-0.136-0.183-0.31-0.426-0.522-0.717c-0.484-0.657-1.153-1.534-1.895-2.469c-0.749-0.928-1.48-1.721-2.097-2.254
											c-0.157-0.133-0.299-0.253-0.425-0.36c-0.136-0.095-0.251-0.18-0.348-0.246c-0.192-0.142-0.303-0.224-0.303-0.224
											s0.136,0.022,0.383,0.076c0.122,0.025,0.275,0.06,0.449,0.104c0.167,0.06,0.355,0.129,0.568,0.215
											c0.829,0.341,1.888,1.048,2.71,2.068c0.811,1.023,1.257,2.09,1.487,2.873C109.105,236.311,109.161,236.56,109.199,236.762
											z"/>
									</g>
									<g>
										<path style="fill:#CD4A57;" d="M111.536,233.994c-0.125,0.167-0.258,0.335-0.39,0.505
											c-0.031-0.035-0.059-0.076-0.087-0.114c-0.484-0.657-1.153-1.534-1.895-2.466c-0.749-0.931-1.48-1.724-2.097-2.257
											c-0.157-0.133-0.296-0.253-0.422-0.357c-0.136-0.098-0.254-0.18-0.348-0.249c-0.195-0.142-0.303-0.221-0.303-0.221
											s0.132,0.022,0.38,0.073c0.122,0.028,0.275,0.06,0.449,0.107c0.167,0.057,0.359,0.129,0.568,0.212
											c0.832,0.344,1.891,1.051,2.71,2.071C110.857,232.245,111.296,233.233,111.536,233.994z"/>
									</g>
									<path style="fill:#FF7D6F;" d="M108.078,237.763c-0.324,0.23-0.613,0.373-0.857,0.395l-3.796-3.947
										c0,0-7.523,0.631-8.568,0.158c-0.414-0.189-1.519-1.85-2.699-3.782c-0.564-0.928-1.149-1.92-1.682-2.841l2.184-2.579
										c0.456,0.875,0.937,1.762,1.428,2.595c1.355,2.321,2.748,4.237,3.709,4.398c2.543,0.42,6.698,0.789,6.698,0.789
										L108.078,237.763z"/>
								</g>
							</g>
							<polygon style="fill:#BE1B1B;" points="100.339,218.593 100.339,218.596 94.087,227.761 92.157,230.587 91.516,231.528 
								89.726,228.63 90.475,227.746 92.659,225.166 97.604,219.325 98.239,218.577 							"/>
						</g>
					</g>
					<g>
						<g>
							<path style="fill:#090909;" d="M117.52,178.173c-1.784-1.983-4.139-2.714-6.245-2.157c-2.216-6.202-4.316-12.15-5.147-18.731
								c-0.821-6.495-0.546-12.988,0.352-19.457c0.126-0.908-1.23-0.94-1.396-0.081c-2.418,12.476-1.182,27.463,4.755,38.882
								c-0.912,0.552-1.73,1.382-2.358,2.519c-2.768,5.006-0.797,11.403,1.68,16.084c1.082,2.045,5.703,11.661,8.924,6.678
								c0.623-0.964-0.735-2.107-1.422-1.136c-1.273,1.801-4.063-3.493-4.333-3.949c-1.03-1.739-2.013-3.515-2.75-5.401
								c-1.34-3.427-2.883-10.635,1.278-12.86c4.491-2.401,7.44,4.422,9.117,7.589c1.683,3.178,3.085,6.478,4.291,9.861
								c-0.366,0.166-0.731,0.332-1.096,0.499c-1.312,0.597-0.527,2.707,0.789,2.105c0.702-0.322,1.405-0.643,2.107-0.965
								c0.562-0.257,0.866-0.837,0.657-1.443C124.629,190.155,121.869,183.009,117.52,178.173z"/>
							<g>
								<path style="fill:#090909;" d="M156.979,174.771c-1.17-3.52-4.283-5.841-7.751-6.182c1.922-10.695-0.2-21.712-5.772-31.082
									c-0.492-0.828-1.743-0.026-1.258,0.8c5.396,9.209,7.069,19.889,5.074,30.296c-0.601,0.072-1.203,0.205-1.8,0.403
									c-4.77,1.586-7.351,6.738-5.765,11.507s6.738,7.351,11.507,5.765C155.984,184.693,158.565,179.541,156.979,174.771z"/>
								<g>
									<path style="fill:#D1D1D1;" d="M152.849,176.145c0.827,2.489-0.519,5.177-3.008,6.004c-2.489,0.827-5.177-0.52-6.004-3.008
										c-0.827-2.489,0.52-5.177,3.008-6.004C149.334,172.309,152.022,173.656,152.849,176.145z"/>
									<path style="fill:#FFFFFF;" d="M148.575,181.363c0.76,0.008,1.565-0.227,2.052-0.811c-1.462-0.365-2.999-1.322-3.171-2.818
										c-0.134-1.166,0.269-2.58-1.35-2.531c-1.131,0.034-1.534,0.981-1.591,1.936
										C144.386,179.306,146.454,181.339,148.575,181.363z"/>
								</g>
							</g>
						</g>
						<path style="fill:#D1D1D1;" d="M142.166,126.921l8.386,2.315c0,0-5.252,19.17-11.247,26.529L142.166,126.921z"/>
						<path style="fill:#D1D1D1;" d="M106.254,126.081l-14.39,7.575l27.252,25.069C119.115,158.725,117.394,138.291,106.254,126.081
							z"/>
					</g>
				</g>
			</g>
		</g>
	</g>
</g>
<g id="DESIGNED_BY_FREEPIK">
	<g id="_x32_">
		<g>
			<path style="fill:#FFFFFF;" d="M175.682,486.647v-0.171c-0.232,0.266-0.461,0.482-0.687,0.648
				c-0.225,0.167-0.471,0.294-0.734,0.38c-0.264,0.088-0.551,0.13-0.864,0.13c-0.414,0-0.797-0.087-1.149-0.262
				c-0.352-0.175-0.657-0.426-0.914-0.751c-0.258-0.325-0.453-0.706-0.586-1.145s-0.2-0.914-0.2-1.424
				c0-1.08,0.264-1.923,0.791-2.527c0.527-0.603,1.222-0.905,2.083-0.905c0.498,0,0.918,0.086,1.259,0.256
				c0.342,0.171,0.675,0.435,1,0.788v-2.551c0-0.355,0.07-0.622,0.212-0.804c0.141-0.182,0.342-0.272,0.604-0.272
				c0.262,0,0.463,0.083,0.604,0.25c0.142,0.167,0.212,0.412,0.212,0.737v7.622c0,0.329-0.076,0.576-0.228,0.741
				c-0.152,0.164-0.348,0.247-0.589,0.247c-0.236,0-0.431-0.085-0.586-0.256C175.759,487.207,175.682,486.963,175.682,486.647z
				 M172.283,484.109c0,0.469,0.073,0.867,0.218,1.196c0.146,0.329,0.345,0.577,0.598,0.743c0.253,0.167,0.53,0.251,0.829,0.251
				c0.304,0,0.581-0.079,0.833-0.238c0.251-0.158,0.451-0.401,0.601-0.727c0.15-0.327,0.225-0.737,0.225-1.225
				c0-0.46-0.074-0.856-0.225-1.188c-0.15-0.331-0.352-0.584-0.608-0.759c-0.256-0.174-0.535-0.262-0.839-0.262
				c-0.316,0-0.599,0.09-0.848,0.269c-0.249,0.179-0.442,0.436-0.579,0.772C172.351,483.276,172.283,483.665,172.283,484.109z"/>
			<path style="fill:#FFFFFF;" d="M183.303,484.546h-3.38c0.004,0.392,0.083,0.738,0.238,1.038c0.154,0.3,0.359,0.526,0.614,0.678
				c0.255,0.152,0.537,0.227,0.845,0.227c0.207,0,0.395-0.023,0.567-0.072c0.171-0.049,0.336-0.124,0.497-0.229
				c0.16-0.103,0.308-0.214,0.443-0.332c0.135-0.118,0.31-0.279,0.525-0.482c0.089-0.076,0.215-0.114,0.38-0.114
				c0.177,0,0.32,0.049,0.43,0.146c0.11,0.098,0.165,0.234,0.165,0.411c0,0.156-0.062,0.338-0.184,0.547
				c-0.123,0.209-0.308,0.409-0.554,0.601c-0.248,0.192-0.557,0.351-0.931,0.478c-0.373,0.127-0.802,0.19-1.288,0.19
				c-1.109,0-1.973-0.317-2.589-0.95c-0.616-0.633-0.924-1.492-0.924-2.576c0-0.511,0.076-0.985,0.228-1.421
				c0.152-0.437,0.374-0.812,0.664-1.124c0.291-0.312,0.65-0.551,1.077-0.719c0.426-0.167,0.899-0.249,1.418-0.249
				c0.675,0,1.254,0.141,1.737,0.427c0.484,0.284,0.846,0.653,1.086,1.104c0.24,0.452,0.361,0.913,0.361,1.38
				c0,0.435-0.125,0.717-0.373,0.846C184.105,484.481,183.755,484.546,183.303,484.546z M179.923,483.564h3.133
				c-0.042-0.591-0.202-1.033-0.478-1.326c-0.277-0.294-0.64-0.44-1.092-0.44c-0.43,0-0.784,0.148-1.06,0.446
				C180.15,482.541,179.982,482.982,179.923,483.564z"/>
			<path style="fill:#FFFFFF;" d="M191.177,485.374c0,0.477-0.116,0.886-0.348,1.226c-0.232,0.34-0.575,0.598-1.029,0.773
				c-0.453,0.175-1.005,0.262-1.655,0.262c-0.62,0-1.152-0.095-1.595-0.285c-0.443-0.189-0.77-0.428-0.981-0.711
				c-0.211-0.286-0.317-0.571-0.317-0.858c0-0.19,0.067-0.352,0.203-0.487c0.135-0.135,0.306-0.202,0.513-0.202
				c0.181,0,0.32,0.044,0.417,0.133c0.097,0.089,0.19,0.214,0.278,0.373c0.177,0.309,0.39,0.538,0.637,0.691
				c0.247,0.152,0.583,0.228,1.01,0.228c0.346,0,0.63-0.077,0.851-0.231c0.221-0.155,0.332-0.331,0.332-0.529
				c0-0.304-0.115-0.525-0.345-0.664c-0.23-0.139-0.609-0.273-1.136-0.4c-0.595-0.147-1.079-0.303-1.453-0.465
				c-0.374-0.161-0.672-0.376-0.896-0.642c-0.223-0.266-0.335-0.594-0.335-0.982c0-0.346,0.103-0.673,0.31-0.982
				c0.207-0.307,0.512-0.553,0.915-0.737c0.402-0.184,0.888-0.276,1.458-0.276c0.447,0,0.85,0.046,1.206,0.14
				c0.357,0.092,0.655,0.217,0.893,0.374c0.239,0.156,0.42,0.329,0.544,0.518c0.124,0.19,0.186,0.376,0.186,0.558
				c0,0.198-0.066,0.361-0.199,0.488c-0.133,0.125-0.322,0.19-0.567,0.19c-0.177,0-0.328-0.051-0.452-0.153
				c-0.124-0.101-0.267-0.253-0.427-0.455c-0.131-0.169-0.284-0.304-0.462-0.405c-0.177-0.102-0.418-0.152-0.722-0.152
				c-0.313,0-0.572,0.066-0.779,0.2c-0.207,0.132-0.31,0.297-0.31,0.496c0,0.182,0.076,0.331,0.228,0.447
				c0.152,0.116,0.357,0.213,0.615,0.288c0.257,0.076,0.611,0.168,1.063,0.278c0.535,0.132,0.973,0.288,1.313,0.469
				c0.339,0.181,0.597,0.396,0.773,0.643C191.09,484.776,191.177,485.057,191.177,485.374z"/>
			<path style="fill:#FFFFFF;" d="M192.942,479.804c-0.24,0-0.446-0.074-0.617-0.222c-0.171-0.147-0.256-0.356-0.256-0.627
				c0-0.245,0.087-0.446,0.263-0.605c0.175-0.159,0.379-0.238,0.611-0.238c0.224,0,0.422,0.072,0.595,0.215
				c0.173,0.144,0.26,0.352,0.26,0.627c0,0.266-0.085,0.474-0.254,0.624C193.375,479.729,193.174,479.804,192.942,479.804z
				 M193.797,481.589v4.994c0,0.346-0.082,0.608-0.247,0.786c-0.165,0.177-0.373,0.265-0.627,0.265c-0.254,0-0.459-0.09-0.617-0.272
				c-0.158-0.182-0.237-0.441-0.237-0.779v-4.944c0-0.341,0.079-0.599,0.237-0.772c0.158-0.173,0.364-0.26,0.617-0.26
				c0.253,0,0.462,0.087,0.627,0.26C193.715,481.04,193.797,481.281,193.797,481.589z"/>
			<path style="fill:#FFFFFF;" d="M201.368,481.874v5.019c0,0.574-0.062,1.068-0.184,1.482c-0.121,0.413-0.318,0.755-0.588,1.025
				c-0.27,0.269-0.623,0.471-1.06,0.601c-0.437,0.132-0.98,0.197-1.63,0.197c-0.595,0-1.127-0.083-1.595-0.25
				c-0.468-0.167-0.828-0.382-1.082-0.646c-0.253-0.264-0.38-0.535-0.38-0.814c0-0.211,0.072-0.383,0.216-0.516
				c0.143-0.133,0.317-0.2,0.519-0.2c0.253,0,0.475,0.112,0.665,0.335c0.092,0.114,0.188,0.23,0.288,0.346
				c0.099,0.116,0.209,0.215,0.329,0.298c0.12,0.081,0.265,0.142,0.434,0.183c0.169,0.039,0.363,0.06,0.582,0.06
				c0.447,0,0.795-0.062,1.042-0.187c0.247-0.124,0.42-0.299,0.519-0.523c0.099-0.223,0.157-0.462,0.174-0.718
				c0.017-0.256,0.029-0.666,0.038-1.232c-0.266,0.372-0.572,0.655-0.921,0.849c-0.348,0.194-0.763,0.291-1.243,0.291
				c-0.578,0-1.083-0.148-1.517-0.443c-0.432-0.296-0.765-0.709-0.996-1.241c-0.232-0.532-0.348-1.146-0.348-1.842
				c0-0.519,0.07-0.988,0.212-1.405c0.142-0.419,0.343-0.771,0.605-1.058c0.262-0.287,0.563-0.503,0.905-0.649
				c0.342-0.145,0.717-0.218,1.127-0.218c0.489,0,0.913,0.094,1.272,0.281c0.358,0.189,0.692,0.483,1,0.884v-0.235
				c0-0.299,0.074-0.531,0.221-0.696c0.148-0.164,0.338-0.247,0.57-0.247c0.333,0,0.555,0.109,0.664,0.326
				C201.313,481.151,201.368,481.465,201.368,481.874z M196.36,484.064c0,0.7,0.153,1.23,0.458,1.589
				c0.306,0.359,0.702,0.538,1.187,0.538c0.287,0,0.558-0.077,0.813-0.231c0.256-0.154,0.463-0.387,0.624-0.696
				c0.16-0.31,0.24-0.687,0.24-1.13c0-0.704-0.155-1.254-0.465-1.645c-0.31-0.392-0.719-0.589-1.225-0.589
				c-0.494,0-0.889,0.188-1.187,0.564C196.509,482.838,196.36,483.372,196.36,484.064z"/>
			<path style="fill:#FFFFFF;" d="M204.114,481.564v0.209c0.303-0.401,0.636-0.695,0.997-0.883c0.361-0.188,0.775-0.282,1.244-0.282
				c0.456,0,0.863,0.1,1.222,0.298c0.358,0.199,0.627,0.479,0.803,0.841c0.115,0.212,0.188,0.44,0.222,0.684
				c0.034,0.245,0.051,0.557,0.051,0.937v3.215c0,0.346-0.079,0.608-0.238,0.786c-0.158,0.177-0.364,0.265-0.617,0.265
				c-0.258,0-0.466-0.09-0.627-0.272c-0.161-0.182-0.24-0.441-0.24-0.779v-2.88c0-0.569-0.079-1.006-0.238-1.307
				c-0.158-0.301-0.473-0.453-0.947-0.453c-0.307,0-0.588,0.092-0.842,0.275c-0.253,0.184-0.439,0.437-0.557,0.757
				c-0.084,0.258-0.127,0.738-0.127,1.443v2.165c0,0.35-0.082,0.614-0.243,0.789c-0.162,0.175-0.372,0.262-0.63,0.262
				c-0.25,0-0.454-0.09-0.615-0.272c-0.16-0.182-0.24-0.441-0.24-0.779v-4.994c0-0.329,0.072-0.575,0.215-0.738
				c0.143-0.162,0.34-0.243,0.588-0.243c0.152,0,0.29,0.036,0.412,0.108c0.122,0.072,0.22,0.18,0.294,0.322
				C204.077,481.182,204.114,481.357,204.114,481.564z"/>
			<path style="fill:#FFFFFF;" d="M214.627,484.546h-3.38c0.005,0.392,0.083,0.738,0.238,1.038c0.154,0.3,0.358,0.526,0.614,0.678
				c0.255,0.152,0.537,0.227,0.844,0.227c0.207,0,0.396-0.023,0.567-0.072c0.17-0.049,0.336-0.124,0.497-0.229
				c0.16-0.103,0.307-0.214,0.443-0.332c0.134-0.118,0.309-0.279,0.525-0.482c0.089-0.076,0.215-0.114,0.38-0.114
				c0.177,0,0.321,0.049,0.43,0.146c0.11,0.098,0.164,0.234,0.164,0.411c0,0.156-0.061,0.338-0.184,0.547
				c-0.123,0.209-0.307,0.409-0.554,0.601c-0.247,0.192-0.557,0.351-0.93,0.478c-0.374,0.127-0.803,0.19-1.288,0.19
				c-1.11,0-1.973-0.317-2.589-0.95c-0.615-0.633-0.924-1.492-0.924-2.576c0-0.511,0.076-0.985,0.228-1.421
				c0.152-0.437,0.374-0.812,0.665-1.124c0.291-0.312,0.65-0.551,1.076-0.719c0.426-0.167,0.899-0.249,1.418-0.249
				c0.675,0,1.254,0.141,1.737,0.427c0.484,0.284,0.846,0.653,1.086,1.104c0.24,0.452,0.361,0.913,0.361,1.38
				c0,0.435-0.124,0.717-0.374,0.846C215.43,484.481,215.079,484.546,214.627,484.546z M211.247,483.564h3.133
				c-0.042-0.591-0.201-1.033-0.478-1.326c-0.277-0.294-0.64-0.44-1.092-0.44c-0.431,0-0.785,0.148-1.061,0.446
				C211.474,482.541,211.307,482.982,211.247,483.564z"/>
			<path style="fill:#FFFFFF;" d="M221.672,486.647v-0.171c-0.232,0.266-0.461,0.482-0.687,0.648
				c-0.226,0.167-0.47,0.294-0.734,0.38c-0.263,0.088-0.552,0.13-0.864,0.13c-0.414,0-0.797-0.087-1.149-0.262
				c-0.352-0.175-0.657-0.426-0.915-0.751c-0.258-0.325-0.453-0.706-0.585-1.145c-0.133-0.439-0.2-0.914-0.2-1.424
				c0-1.08,0.264-1.923,0.791-2.527c0.527-0.603,1.222-0.905,2.083-0.905c0.498,0,0.918,0.086,1.26,0.256
				c0.342,0.171,0.675,0.435,1,0.788v-2.551c0-0.355,0.071-0.622,0.212-0.804c0.141-0.182,0.343-0.272,0.605-0.272
				c0.261,0,0.463,0.083,0.604,0.25c0.141,0.167,0.212,0.412,0.212,0.737v7.622c0,0.329-0.076,0.576-0.228,0.741
				c-0.152,0.164-0.348,0.247-0.589,0.247c-0.236,0-0.432-0.085-0.586-0.256C221.749,487.207,221.672,486.963,221.672,486.647z
				 M218.273,484.109c0,0.469,0.072,0.867,0.218,1.196c0.145,0.329,0.345,0.577,0.599,0.743c0.253,0.167,0.529,0.251,0.829,0.251
				c0.304,0,0.582-0.079,0.832-0.238c0.251-0.158,0.452-0.401,0.601-0.727c0.15-0.327,0.225-0.737,0.225-1.225
				c0-0.46-0.075-0.856-0.225-1.188c-0.149-0.331-0.352-0.584-0.608-0.759c-0.256-0.174-0.535-0.262-0.839-0.262
				c-0.316,0-0.599,0.09-0.848,0.269c-0.249,0.179-0.442,0.436-0.579,0.772C218.341,483.276,218.273,483.665,218.273,484.109z"/>
			<path style="fill:#FFFFFF;" d="M228.736,479.025v2.639c0.325-0.337,0.656-0.596,0.994-0.775c0.338-0.179,0.756-0.269,1.254-0.269
				c0.574,0,1.077,0.136,1.51,0.407c0.432,0.273,0.767,0.668,1.006,1.184c0.238,0.516,0.358,1.13,0.358,1.839
				c0,0.523-0.067,1.002-0.2,1.44c-0.133,0.437-0.326,0.815-0.579,1.136c-0.253,0.321-0.56,0.569-0.921,0.745
				c-0.361,0.175-0.759,0.262-1.193,0.262c-0.266,0-0.517-0.031-0.75-0.095c-0.235-0.063-0.434-0.146-0.598-0.25
				c-0.164-0.103-0.305-0.21-0.421-0.32c-0.116-0.109-0.27-0.275-0.459-0.494v0.171c0,0.325-0.078,0.571-0.234,0.738
				c-0.156,0.167-0.354,0.249-0.595,0.249c-0.245,0-0.44-0.083-0.585-0.249c-0.146-0.167-0.218-0.413-0.218-0.738v-7.546
				c0-0.35,0.071-0.615,0.212-0.794c0.142-0.179,0.339-0.269,0.592-0.269c0.266,0,0.471,0.085,0.614,0.256
				C228.664,478.466,228.736,478.708,228.736,479.025z M228.818,484.159c0,0.688,0.157,1.216,0.472,1.585
				c0.314,0.37,0.727,0.555,1.238,0.555c0.434,0,0.809-0.189,1.123-0.567c0.314-0.378,0.472-0.919,0.472-1.624
				c0-0.456-0.065-0.849-0.196-1.178c-0.131-0.329-0.316-0.584-0.557-0.763c-0.241-0.179-0.522-0.269-0.842-0.269
				c-0.329,0-0.623,0.09-0.88,0.269c-0.257,0.179-0.46,0.439-0.608,0.778C228.892,483.286,228.818,483.691,228.818,484.159z"/>
			<path style="fill:#FFFFFF;" d="M236.097,487.85l0.158-0.387l-2.127-5.355c-0.13-0.307-0.196-0.532-0.196-0.671
				c0-0.148,0.038-0.284,0.114-0.411c0.076-0.127,0.18-0.228,0.313-0.304c0.133-0.077,0.271-0.115,0.415-0.115
				c0.249,0,0.436,0.079,0.564,0.238c0.127,0.158,0.238,0.385,0.335,0.68l1.462,4.254l1.386-3.957
				c0.109-0.32,0.209-0.571,0.298-0.753c0.089-0.182,0.182-0.304,0.281-0.367c0.099-0.064,0.24-0.096,0.421-0.096
				c0.131,0,0.256,0.035,0.377,0.105c0.12,0.07,0.213,0.163,0.278,0.282c0.065,0.118,0.099,0.242,0.099,0.373
				c-0.018,0.08-0.044,0.194-0.083,0.342c-0.038,0.147-0.084,0.298-0.139,0.449l-2.254,5.9c-0.195,0.519-0.384,0.926-0.57,1.221
				c-0.186,0.296-0.431,0.523-0.737,0.681c-0.306,0.159-0.719,0.238-1.238,0.238c-0.506,0-0.886-0.055-1.139-0.164
				c-0.254-0.111-0.38-0.311-0.38-0.602c0-0.198,0.06-0.351,0.181-0.459c0.12-0.107,0.298-0.162,0.534-0.162
				c0.093,0,0.184,0.013,0.273,0.039c0.11,0.025,0.204,0.038,0.284,0.038c0.198,0,0.355-0.029,0.469-0.089
				c0.114-0.059,0.216-0.161,0.307-0.307C235.874,488.347,235.979,488.132,236.097,487.85z"/>
		</g>
		<g>
			<path style="fill:#FFFFFF;" d="M261.132,480.757h0.412v-0.519c0-0.543,0.066-0.971,0.204-1.291
				c0.136-0.319,0.37-0.551,0.698-0.696c0.327-0.145,0.775-0.217,1.344-0.217c1.013,0,1.515,0.245,1.515,0.743
				c0,0.159-0.053,0.296-0.16,0.41c-0.103,0.113-0.228,0.171-0.372,0.171c-0.066,0-0.185-0.012-0.351-0.04
				c-0.158-0.022-0.301-0.037-0.415-0.037c-0.312,0-0.511,0.094-0.603,0.277c-0.085,0.184-0.13,0.446-0.13,0.789v0.411h0.422
				c0.661,0,0.987,0.198,0.987,0.597c0,0.279-0.085,0.46-0.262,0.536c-0.174,0.076-0.416,0.114-0.726,0.114h-0.422v4.579
				c0,0.34-0.08,0.6-0.246,0.779c-0.161,0.182-0.369,0.271-0.628,0.271c-0.245,0-0.447-0.089-0.612-0.271
				c-0.163-0.178-0.243-0.438-0.243-0.779v-4.579h-0.476c-0.259,0-0.455-0.056-0.595-0.174c-0.139-0.114-0.21-0.266-0.21-0.452
				C260.263,480.962,260.553,480.757,261.132,480.757"/>
			<path style="fill:#FFFFFF;" d="M266.79,485.139v1.445c0,0.349-0.089,0.612-0.249,0.786c-0.165,0.177-0.372,0.263-0.625,0.263
				c-0.255,0-0.458-0.087-0.618-0.267c-0.158-0.176-0.24-0.437-0.24-0.782v-4.814c0-0.777,0.28-1.166,0.84-1.166
				c0.289,0,0.495,0.09,0.622,0.272c0.126,0.182,0.197,0.449,0.212,0.805c0.205-0.356,0.416-0.623,0.632-0.805
				c0.221-0.182,0.508-0.272,0.873-0.272c0.366,0,0.715,0.09,1.056,0.272c0.344,0.182,0.514,0.424,0.514,0.723
				c0,0.21-0.073,0.387-0.217,0.521c-0.147,0.139-0.303,0.208-0.471,0.208c-0.066,0-0.221-0.042-0.461-0.12
				c-0.243-0.076-0.459-0.115-0.642-0.115c-0.253,0-0.461,0.068-0.621,0.198c-0.161,0.137-0.287,0.331-0.376,0.591
				c-0.086,0.263-0.146,0.577-0.182,0.936C266.805,484.18,266.79,484.62,266.79,485.139"/>
			<path style="fill:#FFFFFF;" d="M274.735,484.544h-3.382c0.006,0.392,0.083,0.74,0.236,1.039c0.157,0.297,0.36,0.524,0.616,0.678
				c0.256,0.152,0.536,0.226,0.845,0.226c0.207,0,0.395-0.022,0.566-0.074c0.169-0.046,0.336-0.124,0.497-0.227
				c0.161-0.102,0.307-0.212,0.443-0.333c0.135-0.117,0.311-0.277,0.527-0.479c0.09-0.075,0.216-0.116,0.379-0.116
				c0.179,0,0.321,0.049,0.433,0.148c0.111,0.098,0.162,0.234,0.162,0.411c0,0.157-0.059,0.338-0.178,0.546
				c-0.125,0.212-0.309,0.411-0.557,0.604c-0.249,0.19-0.559,0.351-0.931,0.476c-0.373,0.127-0.804,0.191-1.287,0.191
				c-1.114,0-1.975-0.315-2.59-0.948c-0.616-0.635-0.928-1.494-0.928-2.578c0-0.511,0.078-0.985,0.232-1.423
				c0.15-0.439,0.372-0.81,0.666-1.125c0.29-0.314,0.646-0.552,1.074-0.719c0.425-0.166,0.898-0.249,1.418-0.249
				c0.674,0,1.253,0.143,1.737,0.43c0.482,0.282,0.849,0.651,1.086,1.103c0.241,0.454,0.361,0.912,0.361,1.382
				c0,0.432-0.126,0.713-0.374,0.844C275.536,484.479,275.187,484.544,274.735,484.544 M271.353,483.561h3.133
				c-0.042-0.59-0.199-1.033-0.476-1.324c-0.279-0.295-0.639-0.44-1.093-0.44c-0.43,0-0.784,0.146-1.061,0.446
				C271.581,482.541,271.411,482.979,271.353,483.561"/>
			<path style="fill:#FFFFFF;" d="M281.925,484.544h-3.381c0.004,0.392,0.083,0.74,0.236,1.039c0.154,0.297,0.359,0.524,0.614,0.678
				c0.255,0.152,0.537,0.226,0.847,0.226c0.205,0,0.395-0.022,0.563-0.074c0.172-0.046,0.337-0.124,0.5-0.227
				c0.161-0.102,0.306-0.212,0.443-0.333c0.133-0.117,0.309-0.277,0.525-0.479c0.09-0.075,0.217-0.116,0.379-0.116
				c0.179,0,0.322,0.049,0.434,0.148c0.11,0.098,0.16,0.234,0.16,0.411c0,0.157-0.058,0.338-0.182,0.546
				c-0.118,0.212-0.303,0.411-0.553,0.604c-0.247,0.19-0.56,0.351-0.93,0.476c-0.372,0.127-0.805,0.191-1.289,0.191
				c-1.111,0-1.972-0.315-2.59-0.948c-0.616-0.635-0.926-1.494-0.926-2.578c0-0.511,0.077-0.985,0.232-1.423
				c0.151-0.439,0.372-0.81,0.664-1.125c0.29-0.314,0.648-0.552,1.076-0.719c0.425-0.166,0.9-0.249,1.419-0.249
				c0.672,0,1.252,0.143,1.742,0.43c0.48,0.282,0.844,0.651,1.08,1.103c0.24,0.454,0.363,0.912,0.363,1.382
				c0,0.432-0.128,0.713-0.374,0.844C282.724,484.479,282.375,484.544,281.925,484.544 M278.543,483.561h3.133
				c-0.042-0.59-0.202-1.033-0.476-1.324c-0.28-0.295-0.641-0.44-1.095-0.44c-0.43,0-0.784,0.146-1.061,0.446
				C278.769,482.541,278.599,482.979,278.543,483.561"/>
			<path style="fill:#FFFFFF;" d="M285.71,481.577v0.207c0.324-0.4,0.663-0.694,1.016-0.883c0.346-0.189,0.745-0.284,1.188-0.284
				c0.53,0,1.023,0.139,1.471,0.411c0.447,0.276,0.799,0.677,1.059,1.204c0.26,0.53,0.391,1.153,0.391,1.875
				c0,0.53-0.075,1.021-0.224,1.467c-0.149,0.445-0.358,0.818-0.619,1.119c-0.262,0.3-0.57,0.534-0.926,0.697
				c-0.361,0.161-0.741,0.242-1.151,0.242c-0.492,0-0.909-0.099-1.243-0.298c-0.335-0.195-0.655-0.489-0.961-0.87v2.594
				c0,0.757-0.277,1.14-0.829,1.14c-0.327,0-0.539-0.098-0.648-0.293c-0.101-0.199-0.155-0.482-0.155-0.86v-7.46
				c0-0.33,0.071-0.573,0.213-0.738c0.143-0.16,0.341-0.243,0.59-0.243c0.246,0,0.444,0.083,0.597,0.249
				C285.634,481.023,285.71,481.26,285.71,481.577 M289.098,484.088c0-0.456-0.071-0.849-0.21-1.175
				c-0.139-0.328-0.333-0.578-0.577-0.752c-0.245-0.175-0.521-0.264-0.821-0.264c-0.476,0-0.879,0.189-1.205,0.562
				c-0.328,0.378-0.493,0.93-0.493,1.662c0,0.684,0.163,1.222,0.49,1.604c0.325,0.382,0.724,0.572,1.208,0.572
				c0.286,0,0.553-0.084,0.798-0.248c0.247-0.169,0.443-0.418,0.589-0.751C289.024,484.963,289.098,484.56,289.098,484.088"/>
			<path style="fill:#FFFFFF;" d="M292.575,479.8c-0.241,0-0.446-0.076-0.615-0.223c-0.173-0.148-0.258-0.355-0.258-0.624
				c0-0.245,0.087-0.447,0.264-0.607c0.174-0.156,0.378-0.237,0.609-0.237c0.227,0,0.424,0.071,0.596,0.213
				c0.173,0.146,0.26,0.356,0.26,0.631c0,0.266-0.085,0.474-0.252,0.624C293.009,479.724,292.809,479.8,292.575,479.8
				 M293.431,481.585v5c0,0.344-0.083,0.605-0.247,0.781c-0.167,0.18-0.374,0.267-0.628,0.267c-0.254,0-0.456-0.089-0.618-0.271
				c-0.156-0.184-0.237-0.443-0.237-0.777v-4.951c0-0.34,0.081-0.596,0.237-0.769c0.162-0.176,0.365-0.261,0.618-0.261
				c0.254,0,0.461,0.085,0.628,0.261C293.348,481.038,293.431,481.28,293.431,481.585"/>
			<path style="fill:#FFFFFF;" d="M299.002,486.844l-1.522-2.51l-0.939,0.885v1.376c0,0.333-0.088,0.588-0.264,0.766
				c-0.171,0.182-0.378,0.271-0.604,0.271c-0.266,0-0.476-0.087-0.627-0.267c-0.151-0.176-0.229-0.437-0.229-0.782v-7.374
				c0-0.382,0.076-0.674,0.221-0.875c0.148-0.203,0.363-0.301,0.635-0.301c0.266,0,0.475,0.091,0.633,0.274
				c0.156,0.18,0.236,0.449,0.236,0.801v4.194l1.943-2.041c0.241-0.251,0.422-0.427,0.551-0.519c0.126-0.092,0.279-0.139,0.46-0.139
				c0.217,0,0.396,0.069,0.543,0.206c0.141,0.137,0.213,0.311,0.213,0.516c0,0.253-0.236,0.592-0.703,1.014l-0.918,0.842
				l1.772,2.788c0.129,0.209,0.226,0.363,0.283,0.471c0.056,0.106,0.087,0.213,0.087,0.308c0,0.275-0.076,0.489-0.227,0.65
				c-0.15,0.158-0.349,0.236-0.59,0.236c-0.211,0-0.376-0.054-0.489-0.171C299.353,487.347,299.195,487.14,299.002,486.844"/>
			<path style="fill:#FFFFFF;" d="M302.758,487.633c-0.261,0-0.485-0.084-0.676-0.254c-0.189-0.166-0.286-0.404-0.286-0.71
				c0-0.257,0.092-0.479,0.273-0.663c0.183-0.186,0.405-0.279,0.672-0.279c0.265,0,0.49,0.093,0.681,0.275
				c0.186,0.184,0.281,0.408,0.281,0.668c0,0.301-0.095,0.538-0.281,0.706C303.232,487.549,303.01,487.633,302.758,487.633"/>
			<path style="fill:#FFFFFF;" d="M311.354,485.494c0,0.213-0.064,0.445-0.194,0.689c-0.128,0.247-0.326,0.478-0.59,0.7
				c-0.263,0.221-0.594,0.402-0.997,0.536c-0.4,0.135-0.853,0.204-1.353,0.204c-1.071,0-1.905-0.313-2.505-0.934
				c-0.597-0.624-0.897-1.459-0.897-2.506c0-0.711,0.136-1.337,0.413-1.882c0.271-0.543,0.669-0.965,1.187-1.262
				c0.519-0.299,1.143-0.447,1.862-0.447c0.449,0,0.859,0.065,1.235,0.197c0.374,0.13,0.688,0.301,0.95,0.506
				c0.258,0.21,0.457,0.429,0.593,0.661c0.138,0.234,0.205,0.454,0.205,0.658c0,0.205-0.076,0.381-0.228,0.525
				c-0.157,0.143-0.344,0.216-0.559,0.216c-0.146,0-0.265-0.038-0.361-0.111c-0.096-0.075-0.203-0.193-0.319-0.361
				c-0.211-0.319-0.431-0.561-0.664-0.719c-0.228-0.162-0.52-0.241-0.875-0.241c-0.508,0-0.922,0.199-1.235,0.598
				c-0.312,0.397-0.469,0.946-0.469,1.636c0,0.325,0.042,0.626,0.122,0.898c0.078,0.271,0.194,0.504,0.347,0.696
				c0.154,0.191,0.336,0.337,0.551,0.436c0.216,0.102,0.454,0.15,0.709,0.15c0.348,0,0.644-0.08,0.891-0.24
				c0.251-0.161,0.468-0.405,0.657-0.735c0.105-0.194,0.218-0.345,0.339-0.456c0.122-0.109,0.273-0.166,0.45-0.166
				c0.211,0,0.387,0.082,0.524,0.242C311.284,485.141,311.354,485.313,311.354,485.494"/>
			<path style="fill:#FFFFFF;" d="M318.813,484.12c0,0.513-0.081,0.989-0.237,1.425c-0.165,0.435-0.394,0.808-0.7,1.119
				c-0.303,0.313-0.668,0.552-1.088,0.72c-0.426,0.165-0.9,0.25-1.425,0.25c-0.523,0-0.995-0.085-1.414-0.255
				c-0.415-0.166-0.78-0.409-1.084-0.721c-0.307-0.318-0.539-0.689-0.701-1.118c-0.153-0.429-0.234-0.903-0.234-1.42
				c0-0.524,0.083-1.004,0.239-1.439c0.161-0.436,0.392-0.808,0.693-1.115c0.301-0.308,0.662-0.545,1.087-0.713
				c0.429-0.166,0.9-0.249,1.414-0.249c0.523,0,0.998,0.083,1.425,0.254c0.425,0.167,0.788,0.409,1.095,0.719
				c0.305,0.316,0.535,0.686,0.693,1.114C318.733,483.126,318.813,483.599,318.813,484.12 M317.078,484.12
				c0-0.706-0.156-1.254-0.465-1.645c-0.309-0.397-0.726-0.592-1.249-0.592c-0.338,0-0.637,0.088-0.895,0.262
				c-0.258,0.174-0.454,0.433-0.593,0.776c-0.139,0.342-0.21,0.742-0.21,1.199c0,0.452,0.068,0.845,0.206,1.182
				c0.139,0.34,0.335,0.598,0.59,0.777c0.257,0.178,0.556,0.269,0.901,0.269c0.523,0,0.941-0.197,1.249-0.594
				C316.921,485.361,317.078,484.814,317.078,484.12"/>
			<path style="fill:#FFFFFF;" d="M325.405,484.247v2.297c0,0.364-0.08,0.634-0.246,0.818c-0.167,0.182-0.381,0.272-0.651,0.272
				c-0.262,0-0.476-0.09-0.634-0.272c-0.165-0.184-0.248-0.454-0.248-0.818v-2.753c0-0.435-0.014-0.775-0.042-1.016
				c-0.031-0.236-0.112-0.437-0.241-0.588c-0.131-0.157-0.339-0.234-0.62-0.234c-0.567,0-0.938,0.193-1.118,0.587
				c-0.178,0.384-0.271,0.942-0.271,1.671v2.334c0,0.359-0.081,0.631-0.241,0.815c-0.166,0.182-0.378,0.275-0.643,0.275
				c-0.264,0-0.478-0.092-0.644-0.275c-0.168-0.185-0.251-0.457-0.251-0.815v-4.945c0-0.326,0.074-0.573,0.223-0.741
				c0.153-0.171,0.351-0.254,0.593-0.254c0.238,0,0.434,0.082,0.594,0.237c0.157,0.159,0.236,0.378,0.236,0.656v0.163
				c0.302-0.357,0.623-0.621,0.963-0.787c0.344-0.173,0.721-0.257,1.142-0.257c0.434,0,0.807,0.087,1.118,0.26
				c0.313,0.174,0.569,0.437,0.773,0.784c0.293-0.352,0.606-0.615,0.94-0.787c0.333-0.171,0.702-0.257,1.108-0.257
				c0.471,0,0.881,0.095,1.222,0.279c0.34,0.185,0.595,0.453,0.765,0.797c0.147,0.315,0.22,0.806,0.22,1.477v3.374
				c0,0.364-0.081,0.634-0.245,0.818c-0.164,0.182-0.383,0.272-0.653,0.272c-0.263,0-0.476-0.092-0.643-0.275
				c-0.167-0.185-0.25-0.457-0.25-0.815v-2.907c0-0.372-0.016-0.668-0.046-0.892c-0.031-0.225-0.118-0.413-0.255-0.564
				c-0.141-0.152-0.353-0.229-0.635-0.229c-0.228,0-0.444,0.071-0.649,0.205c-0.204,0.132-0.364,0.318-0.48,0.542
				C325.471,482.991,325.405,483.507,325.405,484.247"/>
		</g>
		<g>
			<path style="fill:#FFFFFF;" d="M244.958,483.702c-0.001-0.003-0.001-0.006-0.001-0.012
				C244.957,483.695,244.957,483.698,244.958,483.702z"/>
			<path style="fill:#FFFFFF;" d="M245.045,484.254c0.001,0,0.001,0,0.001,0c-0.033-0.158-0.058-0.314-0.079-0.468
				C244.988,483.942,245.014,484.099,245.045,484.254z"/>
			<path style="fill:#FFFFFF;" d="M245.617,485.858c-0.004-0.007-0.007-0.014-0.011-0.022
				C245.61,485.844,245.613,485.852,245.617,485.858z"/>
			<path style="fill:#FFFFFF;" d="M245.563,485.751c-0.015-0.029-0.029-0.06-0.044-0.089
				C245.533,485.693,245.548,485.722,245.563,485.751z"/>
			<path style="fill:#FFFFFF;" d="M245.206,484.872c0.085,0.267,0.187,0.525,0.305,0.772c-0.12-0.252-0.22-0.511-0.302-0.772
				C245.208,484.872,245.207,484.872,245.206,484.872z"/>
			<path style="fill:#FFFFFF;" d="M251.648,477.079c0.334,0,0.581,0.027,0.863,0.074l0.08-0.508c0,0-0.78-0.24-1.806-0.156
				l-0.081-0.277c0.319-0.067,0.558-0.351,0.558-0.689c0-0.388-0.316-0.702-0.705-0.702c-0.388,0-0.703,0.314-0.703,0.702
				c0,0.339,0.239,0.622,0.557,0.689l0.089,0.309c-1.089,0.15-1.956,0.575-1.956,0.575l0.154,0.47
				c0.659-0.219,1.23-0.353,1.749-0.409C250.954,477.103,251.337,477.079,251.648,477.079z"/>
			<path style="fill:#FFFFFF;" d="M245.604,479.651l0.004-0.005c0.026-0.033,0.05-0.064,0.075-0.095l-0.208-0.15l-0.325-0.238
				c-0.018,0.025-0.53,0.496-0.934,1.365c-0.017-0.027-0.037-0.054-0.06-0.079c-0.121-0.132-0.29-0.2-0.505-0.196
				c-0.003,0-0.006,0-0.01,0c-0.133,0-0.225-0.044-0.284-0.098c0.06-0.076,0.095-0.171,0.095-0.275c0-0.245-0.2-0.446-0.446-0.446
				c-0.246,0-0.445,0.201-0.445,0.446c0,0.247,0.2,0.446,0.445,0.446c0.039,0,0.076-0.007,0.111-0.014
				c0.11,0.122,0.284,0.228,0.538,0.223c0.131-0.001,0.227,0.033,0.292,0.104c0.074,0.081,0.099,0.197,0.106,0.285
				c-0.001,0.001-0.001,0.003-0.002,0.003c-0.29,0.793-0.207,1.779-0.207,1.779l0.705,0.028c0.014-0.359,0.066-0.988,0.248-1.487
				C245.147,480.28,245.586,479.676,245.604,479.651z"/>
			<path style="fill:#FFFFFF;" d="M257.779,477.668c-0.245,0-0.446,0.199-0.446,0.446c0,0.038,0.006,0.075,0.016,0.11
				c-0.122,0.111-0.228,0.285-0.224,0.54c0.002,0.132-0.032,0.227-0.103,0.291c-0.057,0.05-0.128,0.077-0.197,0.094
				c-0.525-0.735-1.17-1.183-1.17-1.183l-0.506,0.542c0.382,0.348,0.773,0.783,1.152,1.326c0.262,0.376,0.533,0.86,0.757,1.343
				l0.683-0.324c0,0-0.312-0.77-0.75-1.461c0.076-0.027,0.153-0.068,0.221-0.128c0.133-0.12,0.199-0.291,0.195-0.505
				c-0.001-0.139,0.044-0.232,0.099-0.294c0.076,0.058,0.171,0.095,0.275,0.095c0.247,0,0.447-0.2,0.447-0.446
				C258.225,477.867,258.026,477.668,257.779,477.668z"/>
			<path style="fill:#FFFFFF;" d="M256.008,483.801c-0.939,0.458-2.485,1.062-4.52,1.346c-0.799,0.111-1.572,0.152-2.285,0.152
				c-0.927,0-1.746-0.069-2.374-0.148c-0.717-0.09-1.278-0.201-1.621-0.279c0.082,0.261,0.182,0.52,0.302,0.772
				c0.002,0.007,0.005,0.014,0.008,0.018c0.014,0.029,0.029,0.06,0.044,0.089c0.014,0.029,0.029,0.058,0.043,0.085
				c0.004,0.008,0.007,0.016,0.011,0.022c0.202,0.38,0.444,0.73,0.72,1.032c0.96,1.05,1.938,1.216,1.947,1.217l0.015,0.002
				l0.014,0.005c0.009,0.003,0.876,0.283,2.194,0.283c1.296,0,2.569-0.262,3.781-0.778c0.898-0.46,1.747-1.157,2.169-1.779
				c0.325-0.482,0.56-0.995,0.7-1.529c0.074-0.284,0.133-0.738,0.098-1.216C256.991,483.273,256.574,483.526,256.008,483.801z"/>
			<path style="fill:#FFFFFF;" d="M245.906,479.873c-0.027,0.04-0.435,0.616-0.757,1.501c-0.241,0.663-0.23,1.628-0.23,1.64v0.002
				c0,0.227,0.013,0.451,0.038,0.674c0,0.005,0,0.008,0.001,0.012c0.003,0.029,0.007,0.056,0.01,0.085
				c0.02,0.154,0.046,0.31,0.079,0.468c0.467,0.118,3.251,0.768,6.364,0.335c1.951-0.271,3.432-0.848,4.331-1.284
				c0.747-0.362,1.228-0.69,1.413-0.825c-0.185-0.685-0.694-1.76-1.162-2.43c-1.336-1.91-2.777-2.4-3.517-2.521
				c-0.282-0.046-0.508-0.073-0.828-0.073c-0.298,0-0.668,0.024-1.162,0.076c-0.495,0.051-1.048,0.182-1.688,0.397
				c-0.898,0.301-1.711,0.773-2.351,1.365l-0.022,0.02C246.331,479.4,246.133,479.584,245.906,479.873z M254.083,479.429
				c0.64,0,1.162,0.521,1.162,1.162c0,0.641-0.521,1.162-1.162,1.162c-0.641,0-1.161-0.521-1.161-1.162
				C252.922,479.949,253.442,479.429,254.083,479.429z M248.59,479.383c1.038,0,1.877,0.841,1.877,1.878
				c0,1.037-0.84,1.876-1.877,1.876c-1.036,0-1.877-0.839-1.877-1.876C246.714,480.224,247.554,479.383,248.59,479.383z"/>
		</g>
	</g>
</g>
</svg>
