<?xml version="1.0" encoding="utf-8"?>
<!-- Generator: Adobe Illustrator 27.5.0, SVG Export Plug-In . SVG Version: 6.00 Build 0)  -->
<svg version="1.1" xmlns="http://www.w3.org/2000/svg" xmlns:xlink="http://www.w3.org/1999/xlink" x="0px" y="0px"
	 viewBox="0 0 750 500" style="enable-background:new 0 0 750 500;" xml:space="preserve">
<g id="BACKGROUND">
	<linearGradient id="SVGID_1_" gradientUnits="userSpaceOnUse" x1="814.0452" y1="509.8213" x2="-13.9555" y2="19.8211">
		<stop  offset="0.1081" style="stop-color:#9EE1FF"/>
		<stop  offset="1" style="stop-color:#43B3DF"/>
	</linearGradient>
	<rect style="fill:url(#SVGID_1_);" width="750" height="500"/>
	
		<linearGradient id="SVGID_00000111164974159048979340000005916120622782543542_" gradientUnits="userSpaceOnUse" x1="866.6036" y1="360.58" x2="462.4656" y2="121.4163">
		<stop  offset="0.1081" style="stop-color:#9EE1FF"/>
		<stop  offset="1" style="stop-color:#43B3DF"/>
	</linearGradient>
	<path style="fill:url(#SVGID_00000111164974159048979340000005916120622782543542_);" d="M750,500h-72
		c-138.071,0-250-111.929-250-250V250C428,111.929,539.929,0,678,0h72V500z"/>
</g>
<g id="OBJECTS">
	
		<text transform="matrix(1 0 0 1 255.0181 37.5721)" style="fill:#FFFFFF; font-family:'Montserrat-Regular'; font-size:19.9209px;">MEDICAL INFOGRAPHIC</text>
	<g>
		<path style="fill:none;stroke:#DBDDDF;stroke-width:3.4835;stroke-miterlimit:10;" d="M163.638,92.717"/>
		<path style="fill:none;stroke:#DBDDDF;stroke-width:3.4835;stroke-miterlimit:10;" d="M63.774,192.581"/>
	</g>
	<g>
		<path style="fill:none;stroke:#DBDDDF;stroke-width:3.4835;stroke-miterlimit:10;" d="M163.653,386.651"/>
		<path style="fill:none;stroke:#DBDDDF;stroke-width:3.4835;stroke-miterlimit:10;" d="M66.062,289.061"/>
	</g>
	<g>
		<path style="fill:none;stroke:#DBDDDF;stroke-width:3.4835;stroke-miterlimit:10;" d="M224.58,239.544"/>
		<path style="fill:none;stroke:#DBDDDF;stroke-width:3.4835;stroke-miterlimit:10;" d="M93.355,239.572"/>
	</g>
	<g>
		<g>
			<g>
				<g>
					<g>
						<text transform="matrix(1 0 0 1 195.4854 410.1738)"><tspan x="0" y="0" style="fill:#FFFFFF; font-family:'Montserrat-Regular'; font-size:8.1543px;">Lorem ipsum dolor</tspan><tspan x="0" y="9.785" style="fill:#FFFFFF; font-family:'Montserrat-Regular'; font-size:8.1543px;">amet, consectetIur</tspan></text>
					</g>
					<g>
						<path style="fill:none;stroke:#FFFFFF;stroke-width:2;stroke-miterlimit:10;" d="M267.484,374.691h-76.201
							c6.997,0,12.669,5.672,12.669,12.669c0,6.997-5.672,12.669-12.669,12.669h76.201c6.997,0,12.669-5.672,12.669-12.669v0
							C280.154,380.363,274.482,374.691,267.484,374.691z"/>
						
							<ellipse transform="matrix(0.9735 -0.2285 0.2285 0.9735 -83.456 53.9603)" style="fill:none;stroke:#FFFFFF;stroke-width:2;stroke-miterlimit:10;" cx="191.284" cy="387.36" rx="12.669" ry="12.669"/>
					</g>
					
						<text transform="matrix(1 0 0 1 206.5611 390.707)" style="fill:#FFFFFF; font-family:'Montserrat-SemiBold'; font-size:9.7102px;">YOUR TITTLE</text>
					
						<text transform="matrix(1 0 0 1 184.0025 390.707)" style="fill:#FFFFFF; font-family:'Montserrat-SemiBold'; font-size:9.7102px;">04</text>
				</g>
			</g>
			<path style="fill:#FFFFFF;stroke:#FFFFFF;stroke-width:2;stroke-miterlimit:10;" d="M128.597,337.914
				c-3.454,3.339-7.046,6.449-10.745,9.355h23.427l-10.977-10.977C129.745,336.851,129.162,337.368,128.597,337.914z"/>
			<path style="fill:#FFFFFF;stroke:#FFFFFF;stroke-width:2;stroke-miterlimit:10;" d="M141.279,324.378
				c-3.368,4.301-7.016,8.454-10.977,12.415h0l10.977,10.977l0,0V324.378z"/>
			<path style="fill:#FFFFFF;fill-opacity:0.25;stroke:#FFFFFF;stroke-width:3.4835;stroke-miterlimit:10;" d="M170.371,239.549
				l-80.23,0.005c0,0.001,0,0.003,0,0.004c0,0.001,0,0.003,0,0.004c0,5.064-0.676,9.969-1.924,14.639
				c-0.567,2.123-1.277,4.187-2.078,6.203c-0.105,0.266-0.194,0.537-0.303,0.803c-0.116,0.278-0.251,0.546-0.371,0.822
				c-0.855,1.979-1.806,3.927-2.899,5.818c-1.826,3.159-3.98,6.18-6.465,9.012c-0.813,0.929-1.656,1.83-2.529,2.703l0,0
				l56.731,56.731h0c3.961-3.961,7.608-8.114,10.977-12.415v-0.054c3.927-5.03,7.537-10.319,10.75-15.873
				c2.804-4.845,5.31-9.882,7.515-15.077c0.137-0.324,0.284-0.645,0.419-0.97c0.118-0.284,0.225-0.572,0.34-0.857
				c2.134-5.268,3.937-10.639,5.391-16.087c1.654-6.198,2.843-12.491,3.622-18.824l0.038-0.038c0.66-5.423,1.017-10.939,1.017-16.54
				C170.372,239.555,170.371,239.552,170.371,239.549z"/>
			
				<line style="fill:none;stroke:#FFFFFF;stroke-width:3.4835;stroke-miterlimit:10;" x1="83.07" y1="289.061" x2="178.915" y2="384.905"/>
			<g>
				<path style="fill:none;stroke:#FFFFFF;stroke-miterlimit:10;" d="M301.247,385.478c-1.729-2.163-2.029-4.626-2.091-6.146h-1.926
					h-0.8h-1.926c-0.062,1.52-0.362,3.983-2.091,6.146c-0.924,1.132-1.403,2.55-1.397,4.011v10.362c0,1.142,0.925,2.067,2.067,2.067
					h3.346h0.8h3.346c1.142,0,2.067-0.925,2.067-2.067v-10.362C302.65,388.028,302.171,386.61,301.247,385.478z"/>
				<rect x="294.042" y="378.424" style="fill:none;stroke:#FFFFFF;stroke-miterlimit:10;" width="5.496" height="0.908"/>
				<rect x="294.495" y="376.559" style="fill:none;stroke:#FFFFFF;stroke-miterlimit:10;" width="4.613" height="1.865"/>
				<path style="fill:none;stroke:#FFFFFF;stroke-miterlimit:10;" d="M299.096,372.803h-4.587c-0.397,0-0.719,0.322-0.719,0.719
					v3.037h6.025v-3.037C299.814,373.124,299.493,372.803,299.096,372.803z"/>
				<g>
					<line style="fill:none;stroke:#FFFFFF;stroke-miterlimit:10;" x1="295.189" y1="373.836" x2="295.189" y2="375.626"/>
				</g>
				<g>
					<line style="fill:none;stroke:#FFFFFF;stroke-miterlimit:10;" x1="296.789" y1="373.836" x2="296.789" y2="375.626"/>
				</g>
				<g>
					<line style="fill:none;stroke:#FFFFFF;stroke-miterlimit:10;" x1="298.39" y1="373.836" x2="298.39" y2="375.626"/>
				</g>
				<rect x="293.847" y="389.208" style="fill:none;stroke:#FFFFFF;stroke-miterlimit:10;" width="5.968" height="9.073"/>
			</g>
		</g>
		<g>
			<path style="fill:#FFFFFF;stroke:#FFFFFF;stroke-width:2;stroke-miterlimit:10;" d="M141.279,155.238v-23.154l-10.86,10.86
				C134.335,146.868,137.945,150.98,141.279,155.238z"/>
			<path style="fill:#FFFFFF;stroke:#FFFFFF;stroke-width:2;stroke-miterlimit:10;" d="M130.419,143.444l10.86-10.86v-0.238h-23.392
				c4.301,3.368,8.454,7.016,12.415,10.977C130.342,143.363,130.38,143.404,130.419,143.444z"/>
			<path style="fill:#FFFFFF;fill-opacity:0.25;stroke:#FFFFFF;stroke-width:3.4835;stroke-miterlimit:10;" d="M33.558,102.755
				l0.006,80.23c0.001,0,0.003,0,0.004,0c0.005,0,0.011,0.001,0.016,0.001c5.06,0.001,9.96,0.677,14.627,1.924
				c2.118,0.566,4.176,1.273,6.188,2.072c0.272,0.107,0.548,0.198,0.819,0.309c0.272,0.113,0.534,0.246,0.804,0.363
				c1.985,0.857,3.939,1.811,5.835,2.907c3.159,1.827,6.181,3.981,9.013,6.466c0.928,0.813,1.829,1.656,2.701,2.528
				c0.04,0.04,0.075,0.083,0.115,0.122l56.734-56.734c-0.04-0.04-0.077-0.081-0.117-0.121c-3.961-3.961-8.114-7.608-12.415-10.977
				h-0.054c-5.029-3.927-10.319-7.536-15.872-10.75c-4.882-2.825-9.957-5.349-15.194-7.566c-0.28-0.118-0.558-0.246-0.839-0.362
				c-0.331-0.138-0.669-0.262-1.001-0.397c-5.227-2.111-10.555-3.898-15.957-5.34c-6.199-1.655-12.491-2.842-18.825-3.622
				l-0.038-0.038c-5.423-0.66-10.938-1.017-16.54-1.017C33.565,102.755,33.562,102.755,33.558,102.755z"/>
			
				<line style="fill:none;stroke:#FFFFFF;stroke-width:3.4835;stroke-miterlimit:10;" x1="80.782" y1="192.581" x2="180.646" y2="92.717"/>
			<g>
				<g>
					<g>
						<g>
							<text transform="matrix(1 0 0 1 195.4854 109.6211)"><tspan x="0" y="0" style="fill:#FFFFFF; font-family:'Montserrat-Regular'; font-size:8.1543px;">Lorem ipsum dolor</tspan><tspan x="0" y="9.785" style="fill:#FFFFFF; font-family:'Montserrat-Regular'; font-size:8.1543px;">amet, consectetIur</tspan></text>
						</g>
						<path style="fill:none;stroke:#FFFFFF;stroke-width:2;stroke-miterlimit:10;" d="M267.484,74.139h-76.201
							c6.997,0,12.669,5.672,12.669,12.669c0,6.997-5.672,12.669-12.669,12.669h76.201c6.997,0,12.669-5.672,12.669-12.669
							C280.154,79.812,274.481,74.139,267.484,74.139z"/>
						
							<ellipse transform="matrix(0.2285 -0.9735 0.9735 0.2285 63.0613 253.1942)" style="fill:none;stroke:#FFFFFF;stroke-width:2;stroke-miterlimit:10;" cx="191.284" cy="86.809" rx="12.669" ry="12.669"/>
						
							<text transform="matrix(1 0 0 1 206.5611 90.1548)" style="fill:#FFFFFF; font-family:'Montserrat-SemiBold'; font-size:9.7102px;">YOUR TITTLE</text>
						
							<text transform="matrix(1 0 0 1 184.9444 90.1548)" style="fill:#FFFFFF; font-family:'Montserrat-SemiBold'; font-size:9.7102px;">02</text>
					</g>
				</g>
				<g>
					
						<rect x="297.225" y="76.995" transform="matrix(-0.7071 -0.7071 0.7071 -0.7071 454.6284 359.7851)" style="fill:none;stroke:#FFFFFF;stroke-miterlimit:10;" width="9.206" height="17.482"/>
					<line style="fill:none;stroke:#FFFFFF;stroke-miterlimit:10;" x1="300.71" y1="93.363" x2="296.732" y2="89.385"/>
					<line style="fill:none;stroke:#FFFFFF;stroke-miterlimit:10;" x1="302.469" y1="91.604" x2="300.48" y2="89.615"/>
					<line style="fill:none;stroke:#FFFFFF;stroke-miterlimit:10;" x1="304.228" y1="89.845" x2="300.25" y2="85.867"/>
					<line style="fill:none;stroke:#FFFFFF;stroke-miterlimit:10;" x1="305.987" y1="88.087" x2="303.998" y2="86.098"/>
					<line style="fill:none;stroke:#FFFFFF;stroke-miterlimit:10;" x1="307.746" y1="86.328" x2="303.768" y2="82.35"/>
					<line style="fill:none;stroke:#FFFFFF;stroke-miterlimit:10;" x1="309.505" y1="84.569" x2="307.516" y2="82.58"/>
					
						<rect x="292.024" y="91.525" transform="matrix(-0.7071 -0.7071 0.7071 -0.7071 437.4218 366.9123)" style="fill:none;stroke:#FFFFFF;stroke-miterlimit:10;" width="5.354" height="2.677"/>
					
						<rect x="306.561" y="76.987" transform="matrix(-0.7071 -0.7071 0.7071 -0.7071 472.5145 352.3771)" style="fill:none;stroke:#FFFFFF;stroke-miterlimit:10;" width="5.354" height="2.677"/>
					
						<rect x="305.878" y="75.094" transform="matrix(-0.7071 -0.7071 0.7071 -0.7071 477.0865 350.483)" style="fill:none;stroke:#FFFFFF;stroke-miterlimit:10;" width="10.508" height="2.677"/>
					<line style="fill:none;stroke:#FFFFFF;stroke-miterlimit:10;" x1="293.737" y1="93.827" x2="287.872" y2="99.692"/>
				</g>
			</g>
		</g>
		<g>
			<g>
				<path style="fill:#FFFFFF;fill-opacity:0.25;stroke:#FFFFFF;stroke-width:3.4835;stroke-miterlimit:10;" d="M130.303,336.293
					l-56.731-56.731c-0.008,0.009-0.018,0.016-0.026,0.025c-0.502,0.501-1.018,0.98-1.534,1.458
					c-0.083,0.077-0.17,0.146-0.254,0.222c-0.039,0.035-0.079,0.067-0.118,0.103c-0.587,0.534-1.187,1.052-1.797,1.561
					c-0.324,0.272-0.65,0.538-0.978,0.801c-0.465,0.371-0.931,0.739-1.408,1.096c-0.637,0.48-1.285,0.937-1.937,1.386
					c-0.225,0.154-0.444,0.315-0.672,0.466c-0.983,0.656-1.978,1.288-2.992,1.874l0,0c-1.881,1.087-3.819,2.034-5.787,2.886
					c-0.287,0.125-0.565,0.265-0.854,0.385c-0.258,0.106-0.521,0.192-0.78,0.295c-2.023,0.805-4.093,1.517-6.224,2.086
					c-4.671,1.249-9.575,1.924-14.639,1.924l0.005,80.231c5.598,0,11.111-0.358,16.531-1.017l0.038-0.038
					c6.333-0.78,12.626-1.967,18.825-3.622c5.431-1.45,10.787-3.247,16.04-5.373c0.301-0.123,0.608-0.236,0.908-0.361
					c0.311-0.128,0.618-0.27,0.928-0.401c5.208-2.209,10.257-4.721,15.114-7.531c5.553-3.213,10.843-6.823,15.872-10.75h0.018
					c3.699-2.906,7.291-6.016,10.745-9.355C129.162,337.368,129.745,336.851,130.303,336.293z"/>
				<g>
					<g>
						<g>
							<text transform="matrix(1 0 0 1 71.0894 470.335)"><tspan x="0" y="0" style="fill:#FFFFFF; font-family:'Montserrat-Regular'; font-size:8.1543px;">Lorem ipsum dolor</tspan><tspan x="0" y="9.785" style="fill:#FFFFFF; font-family:'Montserrat-Regular'; font-size:8.1543px;">amet, consectetIur</tspan></text>
						</g>
						<g>
							<path style="fill:none;stroke:#FFFFFF;stroke-width:2;stroke-miterlimit:10;" d="M143.089,434.853H66.888
								c6.997,0,12.669,5.672,12.669,12.669c0,6.997-5.672,12.669-12.669,12.669h76.201c6.997,0,12.669-5.672,12.669-12.669
								C155.758,440.525,150.086,434.853,143.089,434.853z"/>
							
								<ellipse transform="matrix(0.975 -0.2221 0.2221 0.975 -97.7136 26.0291)" style="fill:none;stroke:#FFFFFF;stroke-width:2;stroke-miterlimit:10;" cx="66.888" cy="447.522" rx="12.669" ry="12.669"/>
						</g>
						
							<text transform="matrix(1 0 0 1 82.1651 450.8682)" style="fill:#FFFFFF; font-family:'Montserrat-SemiBold'; font-size:9.7102px;">YOUR TITTLE</text>
						
							<text transform="matrix(1 0 0 1 60.5288 450.8682)" style="fill:#FFFFFF; font-family:'Montserrat-SemiBold'; font-size:9.7102px;">05</text>
					</g>
				</g>
				<path style="fill:#FFFFFF;stroke:#FFFFFF;stroke-width:2;stroke-miterlimit:10;" d="M33.578,391.875l16.53-16.53
					c-5.42,0.659-10.933,1.017-16.531,1.017L33.578,391.875z"/>
				<path style="fill:none;stroke:#FFFFFF;stroke-width:3.4835;stroke-miterlimit:10;" d="M33.569,296.1l0.011,130.329
					c0.001,11.681,9.471,21.15,21.152,21.15l0,0"/>
			</g>
			<g>
				<path style="fill:none;stroke:#FFFFFF;stroke-width:2;stroke-miterlimit:10;" d="M176.012,460.708v-6.554
					c0-1.872,0.744-3.667,2.067-4.99l3.194-3.194"/>
				<path style="fill:none;stroke:#FFFFFF;stroke-miterlimit:10;" d="M180.612,446.612l2.366-2.366
					c1.853-1.853,2.894-4.367,2.894-6.988v-0.494c0-1.895-1.536-3.431-3.431-3.431l0,0c-0.748,0-1.466,0.297-1.996,0.827l-1.04,1.04
					"/>
				
					<line style="fill:none;stroke:#FFFFFF;stroke-width:3;stroke-linecap:round;stroke-miterlimit:10;" x1="179.251" y1="435.353" x2="177.917" y2="436.687"/>
				<path style="fill:none;stroke:#FFFFFF;stroke-width:2;stroke-miterlimit:10;" d="M175.94,460.708v-6.554
					c0-1.872-0.743-3.667-2.067-4.99l-3.194-3.194"/>
				<path style="fill:none;stroke:#FFFFFF;stroke-miterlimit:10;" d="M171.339,446.612l-2.367-2.366
					c-1.853-1.853-2.894-4.367-2.894-6.988v-0.494c0-1.895,1.536-3.431,3.431-3.431l0,0c0.749,0,1.466,0.297,1.996,0.827l1.04,1.04"
					/>
				
					<line style="fill:none;stroke:#FFFFFF;stroke-width:3;stroke-linecap:round;stroke-miterlimit:10;" x1="172.7" y1="435.353" x2="174.035" y2="436.687"/>
			</g>
		</g>
		<g>
			<path style="fill:#FFFFFF;stroke:#FFFFFF;stroke-width:2;stroke-miterlimit:10;" d="M33.568,102.755
				c5.601,0,11.117,0.357,16.54,1.017l-16.54-16.54l-0.01,0.01l0.001,15.513C33.562,102.755,33.565,102.755,33.568,102.755z"/>
			<path style="fill:none;stroke:#FFFFFF;stroke-width:3.4835;stroke-miterlimit:10;" d="M33.564,182.985l-0.008-122.75
				c-0.001-11.696,9.48-21.179,21.177-21.179l0,0"/>
			<g>
				<g>
					<g>
						<g>
							<text transform="matrix(1 0 0 1 71.0894 61.4922)"><tspan x="0" y="0" style="fill:#FFFFFF; font-family:'Montserrat-Regular'; font-size:8.1543px;">Lorem ipsum dolor</tspan><tspan x="0" y="9.785" style="fill:#FFFFFF; font-family:'Montserrat-Regular'; font-size:8.1543px;">amet, consectetIur</tspan></text>
						</g>
						<path style="fill:none;stroke:#FFFFFF;stroke-width:2;stroke-miterlimit:10;" d="M143.089,26.01H66.888
							c6.997,0,12.669,5.672,12.669,12.669s-5.672,12.669-12.669,12.669h76.201c6.997,0,12.669-5.672,12.669-12.669
							C155.758,31.682,150.086,26.01,143.089,26.01z"/>
						
							<ellipse transform="matrix(0.7071 -0.7071 0.7071 0.7071 -7.7595 58.6257)" style="fill:none;stroke:#FFFFFF;stroke-width:2;stroke-miterlimit:10;" cx="66.888" cy="38.679" rx="12.669" ry="12.669"/>
						
							<text transform="matrix(1 0 0 1 82.1651 42.0259)" style="fill:#FFFFFF; font-family:'Montserrat-SemiBold'; font-size:9.7102px;">YOUR TITTLE</text>
						
							<text transform="matrix(1 0 0 1 62.5 42.0259)" style="fill:#FFFFFF; font-family:'Montserrat-SemiBold'; font-size:9.7102px;">01</text>
					</g>
				</g>
				<g>
					<polygon style="fill:none;stroke:#FFFFFF;stroke-miterlimit:10;" points="174.528,35.567 178.931,39.931 185.704,33.053 
						181.301,28.69 					"/>
					<g>
						
							<rect x="183.39" y="27.801" transform="matrix(0.7039 -0.7103 0.7103 0.7039 32.6812 139.597)" style="fill:none;stroke:#FFFFFF;stroke-miterlimit:10;" width="0.761" height="5.6"/>
						<path style="fill:none;stroke:#FFFFFF;stroke-miterlimit:10;" d="M186.316,32.436c1.205-1.216,1.196-3.178-0.019-4.383
							c-1.216-1.205-3.178-1.196-4.383,0.02l-0.077,0.077l4.402,4.363L186.316,32.436z"/>
					</g>
					<polygon style="fill:none;stroke:#FFFFFF;stroke-miterlimit:10;" points="175.069,36.103 178.39,39.395 168.018,49.886 
						164.697,46.594 					"/>
					<path style="fill:none;stroke:#FFFFFF;stroke-miterlimit:10;" d="M164.018,48.83l1.77,1.754
						c0.199,0.197,0.521,0.196,0.718-0.003l1.097-1.107l-2.491-2.469l-1.097,1.107C163.817,48.312,163.819,48.633,164.018,48.83z"/>
					<g>
						<line style="fill:none;stroke:#FFFFFF;stroke-miterlimit:10;" x1="175.324" y1="42.514" x2="173.664" y2="40.868"/>
						<line style="fill:none;stroke:#FFFFFF;stroke-miterlimit:10;" x1="174.265" y1="43.583" x2="173.435" y2="42.761"/>
						<line style="fill:none;stroke:#FFFFFF;stroke-miterlimit:10;" x1="173.205" y1="44.652" x2="171.545" y2="43.006"/>
						<line style="fill:none;stroke:#FFFFFF;stroke-miterlimit:10;" x1="172.146" y1="45.721" x2="171.315" y2="44.898"/>
						<line style="fill:none;stroke:#FFFFFF;stroke-miterlimit:10;" x1="171.086" y1="46.79" x2="169.425" y2="45.144"/>
						<line style="fill:none;stroke:#FFFFFF;stroke-miterlimit:10;" x1="171.086" y1="46.79" x2="169.425" y2="45.144"/>
						<line style="fill:none;stroke:#FFFFFF;stroke-miterlimit:10;" x1="170.026" y1="47.859" x2="169.196" y2="47.036"/>
					</g>
					<g>
						<line style="fill:none;stroke:#FFFFFF;stroke-miterlimit:10;" x1="176.384" y1="41.445" x2="175.554" y2="40.622"/>
					</g>
					<polygon style="fill:none;stroke:#FFFFFF;stroke-miterlimit:10;" points="162.445,50.853 163.757,52.154 165.553,50.352 
						164.241,49.052 					"/>
					<polygon style="fill:none;stroke:#FFFFFF;stroke-miterlimit:10;" points="176.666,30.867 177.914,32.108 180.44,29.559 
						179.193,28.318 					"/>
					<polygon style="fill:none;stroke:#FFFFFF;stroke-miterlimit:10;" points="173.307,31.939 174.486,33.11 180.054,27.449 
						178.875,26.278 					"/>
				</g>
			</g>
		</g>
		<g>
			<path style="fill:#FFFFFF;stroke:#FFFFFF;stroke-width:2;stroke-miterlimit:10;" d="M170.372,240.058
				c0,5.602-0.358,11.117-1.017,16.54l16.54-16.54l-0.01-0.01l-15.513,0.001C170.371,240.052,170.372,240.055,170.372,240.058z"/>
			<path style="fill:#FFFFFF;stroke:#FFFFFF;stroke-width:2;stroke-miterlimit:10;" d="M185.884,240.048l-16.53-16.53
				c0.659,5.42,1.017,10.933,1.017,16.531L185.884,240.048z"/>
			<path style="fill:#FFFFFF;fill-opacity:0.25;stroke:#FFFFFF;stroke-width:3.4835;stroke-miterlimit:10;" d="M73.686,199.677
				c0.83,0.835,1.636,1.692,2.412,2.577c2.486,2.833,4.64,5.855,6.467,9.015c1.095,1.893,2.048,3.844,2.903,5.826
				c0.119,0.273,0.253,0.538,0.367,0.814c0.109,0.264,0.197,0.533,0.302,0.798c0.802,2.018,1.512,4.082,2.08,6.208
				c1.248,4.671,1.924,9.575,1.924,14.639c0,0,0,0,0,0l80.23-0.005c0-5.598-0.358-11.111-1.017-16.531l-0.038-0.038
				c-0.78-6.334-1.968-12.626-3.622-18.825c-1.451-5.436-3.25-10.796-5.378-16.054c-0.121-0.297-0.232-0.598-0.355-0.893
				c-0.13-0.314-0.272-0.623-0.404-0.936c-2.208-5.206-4.719-10.253-7.528-15.107c-3.213-5.553-6.823-10.842-10.75-15.872v-0.054
				c-3.334-4.258-6.944-8.37-10.86-12.294L73.686,199.677z"/>
			
				<line style="fill:none;stroke:#FFFFFF;stroke-width:3.4835;stroke-miterlimit:10;" x1="110.363" y1="239.572" x2="241.588" y2="239.544"/>
			<g>
				<g>
					<g>
						<g>
							<text transform="matrix(1 0 0 1 258.127 262.4834)"><tspan x="0" y="0" style="fill:#FFFFFF; font-family:'Montserrat-Regular'; font-size:8.1543px;">Lorem ipsum dolor</tspan><tspan x="0" y="9.785" style="fill:#FFFFFF; font-family:'Montserrat-Regular'; font-size:8.1543px;">amet, consectetIur</tspan></text>
						</g>
						<path style="fill:none;stroke:#FFFFFF;stroke-width:2;stroke-miterlimit:10;" d="M330.126,227.001h-76.201
							c6.997,0,12.669,5.672,12.669,12.669c0,6.997-5.672,12.669-12.669,12.669h76.201c6.997,0,12.669-5.672,12.669-12.669
							C342.795,232.673,337.123,227.001,330.126,227.001z"/>
						
							<ellipse transform="matrix(0.9226 -0.3857 0.3857 0.9226 -72.7873 116.4682)" style="fill:none;stroke:#FFFFFF;stroke-width:2;stroke-miterlimit:10;" cx="253.925" cy="239.67" rx="12.669" ry="12.669"/>
						
							<text transform="matrix(1 0 0 1 269.2022 243.0161)" style="fill:#FFFFFF; font-family:'Montserrat-SemiBold'; font-size:9.7102px;">YOUR TITTLE</text>
						
							<text transform="matrix(1 0 0 1 247.5855 243.0161)" style="fill:#FFFFFF; font-family:'Montserrat-SemiBold'; font-size:9.7102px;">03</text>
					</g>
				</g>
				<g>
					<g>
						<path style="fill:none;stroke:#FFFFFF;stroke-width:1.2;stroke-miterlimit:10;" d="M371.158,227.312
							c-2.929,0-5.444,1.768-6.539,4.294c-1.095-2.526-3.611-4.294-6.539-4.294c-3.935,0-7.124,3.19-7.124,7.124
							c0,10.66,13.664,16.641,13.664,16.641s13.664-6.436,13.664-16.641C378.282,230.502,375.092,227.312,371.158,227.312z"/>
					</g>
				</g>
			</g>
		</g>
	</g>
	<g>
		<g>
			<g>
				<g>
					<g>
						<text transform="matrix(1 0 0 1 591.819 330.8462)"><tspan x="0" y="0" style="fill:#FFFFFF; font-family:'Montserrat-Regular'; font-size:9.0484px;">Lorem ipsum dolor</tspan><tspan x="0" y="10.858" style="fill:#FFFFFF; font-family:'Montserrat-Regular'; font-size:9.0484px;">amet, consectetIur</tspan></text>
					</g>
					<g>
						<path style="fill:none;stroke:#FFFFFF;stroke-width:2;stroke-miterlimit:10;" d="M671.713,291.473h-84.556
							c7.764,0,14.058,6.294,14.058,14.058c0,7.764-6.294,14.058-14.058,14.058h84.556c7.764,0,14.058-6.294,14.058-14.058v0
							C685.771,297.767,679.477,291.473,671.713,291.473z"/>
						
							<ellipse transform="matrix(0.8321 -0.5546 0.5546 0.8321 -70.8739 376.9336)" style="fill:none;stroke:#FFFFFF;stroke-width:2;stroke-miterlimit:10;" cx="587.157" cy="305.532" rx="14.058" ry="14.058"/>
					</g>
					
						<text transform="matrix(1 0 0 1 604.11 309.2456)" style="fill:#FFFFFF; font-family:'Montserrat-SemiBold'; font-size:10.7749px;">YOUR TITTLE</text>
					
						<text transform="matrix(1 0 0 1 579.0768 309.2456)" style="fill:#FFFFFF; font-family:'Montserrat-SemiBold'; font-size:10.7749px;">04</text>
				</g>
			</g>
			<g>
				<path style="fill:none;stroke:#FFFFFF;stroke-miterlimit:10;" d="M544.781,303.443c-1.918-2.4-2.251-5.133-2.32-6.82h-2.137
					h-0.888h-2.137c-0.069,1.687-0.402,4.42-2.32,6.82c-1.025,1.256-1.557,2.83-1.55,4.451v11.499c0,1.267,1.027,2.293,2.293,2.293
					h3.713h0.888h3.713c1.267,0,2.293-1.027,2.293-2.293v-11.499C546.338,306.272,545.806,304.699,544.781,303.443z"/>
				<rect x="536.785" y="295.615" style="fill:none;stroke:#FFFFFF;stroke-miterlimit:10;" width="6.098" height="1.007"/>
				<rect x="537.289" y="293.546" style="fill:none;stroke:#FFFFFF;stroke-miterlimit:10;" width="5.119" height="2.07"/>
				<path style="fill:none;stroke:#FFFFFF;stroke-miterlimit:10;" d="M542.472,289.378h-5.248c-0.397,0-0.719,0.322-0.719,0.719
					v3.449h6.685v-3.449C543.191,289.699,542.869,289.378,542.472,289.378z"/>
				<g>
					<line style="fill:none;stroke:#FFFFFF;stroke-miterlimit:10;" x1="538.058" y1="290.525" x2="538.058" y2="292.51"/>
				</g>
				<g>
					<line style="fill:none;stroke:#FFFFFF;stroke-miterlimit:10;" x1="539.834" y1="290.525" x2="539.834" y2="292.51"/>
				</g>
				<g>
					<line style="fill:none;stroke:#FFFFFF;stroke-miterlimit:10;" x1="541.611" y1="290.525" x2="541.611" y2="292.51"/>
				</g>
				<rect x="536.569" y="307.582" style="fill:none;stroke:#FFFFFF;stroke-miterlimit:10;" width="6.622" height="10.068"/>
			</g>
		</g>
		<g>
			<g>
				<g>
					<g>
						<g>
							<text transform="matrix(1 0 0 1 591.819 196.6333)"><tspan x="0" y="0" style="fill:#FFFFFF; font-family:'Montserrat-Regular'; font-size:9.0484px;">Lorem ipsum dolor</tspan><tspan x="0" y="10.858" style="fill:#FFFFFF; font-family:'Montserrat-Regular'; font-size:9.0484px;">amet, consectetIur</tspan></text>
						</g>
						<path style="fill:none;stroke:#FFFFFF;stroke-width:2;stroke-miterlimit:10;" d="M671.713,157.262h-84.556
							c7.764,0,14.058,6.294,14.058,14.058s-6.294,14.058-14.058,14.058h84.556c7.764,0,14.058-6.294,14.058-14.058
							C685.771,163.556,679.477,157.262,671.713,157.262z"/>
						
							<ellipse transform="matrix(0.9225 -0.386 0.386 0.9225 -20.6252 239.9103)" style="fill:none;stroke:#FFFFFF;stroke-width:2;stroke-miterlimit:10;" cx="587.157" cy="171.32" rx="14.058" ry="14.058"/>
						
							<text transform="matrix(1 0 0 1 604.11 175.0327)" style="fill:#FFFFFF; font-family:'Montserrat-SemiBold'; font-size:10.7749px;">YOUR TITTLE</text>
						
							<text transform="matrix(1 0 0 1 580.1218 175.0327)" style="fill:#FFFFFF; font-family:'Montserrat-SemiBold'; font-size:10.7749px;">02</text>
					</g>
				</g>
				<g>
					
						<rect x="534.767" y="160.431" transform="matrix(-0.7071 -0.7071 0.7071 -0.7071 801.3215 672.1805)" style="fill:none;stroke:#FFFFFF;stroke-miterlimit:10;" width="10.215" height="19.398"/>
					<line style="fill:none;stroke:#FFFFFF;stroke-miterlimit:10;" x1="538.635" y1="178.593" x2="534.221" y2="174.179"/>
					<line style="fill:none;stroke:#FFFFFF;stroke-miterlimit:10;" x1="540.586" y1="176.641" x2="538.379" y2="174.434"/>
					<line style="fill:none;stroke:#FFFFFF;stroke-miterlimit:10;" x1="542.538" y1="174.69" x2="538.124" y2="170.276"/>
					<line style="fill:none;stroke:#FFFFFF;stroke-miterlimit:10;" x1="544.49" y1="172.738" x2="542.283" y2="170.531"/>
					<line style="fill:none;stroke:#FFFFFF;stroke-miterlimit:10;" x1="546.442" y1="170.786" x2="542.027" y2="166.372"/>
					<line style="fill:none;stroke:#FFFFFF;stroke-miterlimit:10;" x1="548.393" y1="168.835" x2="546.186" y2="166.628"/>
					
						<rect x="528.996" y="176.553" transform="matrix(-0.7071 -0.7071 0.7071 -0.7071 782.2253 680.0905)" style="fill:none;stroke:#FFFFFF;stroke-miterlimit:10;" width="5.941" height="2.971"/>
					
						<rect x="545.127" y="160.422" transform="matrix(-0.7071 -0.7071 0.7071 -0.7071 821.1766 663.9557)" style="fill:none;stroke:#FFFFFF;stroke-miterlimit:10;" width="5.941" height="2.971"/>
					
						<rect x="544.369" y="158.321" transform="matrix(-0.7071 -0.7071 0.7071 -0.7071 826.2471 661.8556)" style="fill:none;stroke:#FFFFFF;stroke-miterlimit:10;" width="11.66" height="2.971"/>
					<line style="fill:none;stroke:#FFFFFF;stroke-miterlimit:10;" x1="530.897" y1="179.107" x2="524.389" y2="185.616"/>
				</g>
			</g>
		</g>
		<g>
			<g>
				<g>
					<g>
						<g>
							<text transform="matrix(1 0 0 1 591.819 397.8813)"><tspan x="0" y="0" style="fill:#FFFFFF; font-family:'Montserrat-Regular'; font-size:9.0484px;">Lorem ipsum dolor</tspan><tspan x="0" y="10.858" style="fill:#FFFFFF; font-family:'Montserrat-Regular'; font-size:9.0484px;">amet, consectetIur</tspan></text>
						</g>
						<g>
							<path style="fill:none;stroke:#FFFFFF;stroke-width:2;stroke-miterlimit:10;" d="M671.713,358.509h-84.556
								c7.764,0,14.058,6.294,14.058,14.058c0,7.764-6.294,14.058-14.058,14.058h84.556c7.764,0,14.058-6.294,14.058-14.058
								C685.771,364.803,679.477,358.509,671.713,358.509z"/>
							
								<ellipse transform="matrix(0.9772 -0.2124 0.2124 0.9772 -65.743 133.2321)" style="fill:none;stroke:#FFFFFF;stroke-width:2;stroke-miterlimit:10;" cx="587.157" cy="372.567" rx="14.058" ry="14.058"/>
						</g>
						
							<text transform="matrix(1 0 0 1 604.1091 376.2807)" style="fill:#FFFFFF; font-family:'Montserrat-SemiBold'; font-size:10.7749px;">YOUR TITTLE</text>
						
							<text transform="matrix(1 0 0 1 580.1003 376.2807)" style="fill:#FFFFFF; font-family:'Montserrat-SemiBold'; font-size:10.7749px;">05</text>
					</g>
				</g>
			</g>
			<g>
				<path style="fill:none;stroke:#FFFFFF;stroke-width:2;stroke-miterlimit:10;" d="M539.92,387.199v-7.272
					c0-2.077,0.825-4.069,2.294-5.538l3.544-3.544"/>
				<path style="fill:none;stroke:#FFFFFF;stroke-miterlimit:10;" d="M545.025,371.557l2.626-2.626
					c2.057-2.056,3.212-4.846,3.212-7.754v-0.548c0-2.103-1.705-3.808-3.808-3.808l0,0c-0.831,0-1.627,0.33-2.214,0.917
					l-1.154,1.155"/>
				
					<line style="fill:none;stroke:#FFFFFF;stroke-width:3;stroke-linecap:round;stroke-miterlimit:10;" x1="543.515" y1="359.064" x2="542.034" y2="360.545"/>
				<path style="fill:none;stroke:#FFFFFF;stroke-width:2;stroke-miterlimit:10;" d="M539.84,387.199v-7.272
					c0-2.077-0.825-4.069-2.294-5.538l-3.544-3.544"/>
				<path style="fill:none;stroke:#FFFFFF;stroke-miterlimit:10;" d="M534.735,371.557l-2.626-2.626
					c-2.056-2.056-3.212-4.846-3.212-7.754v-0.548c0-2.103,1.705-3.808,3.808-3.808l0,0c0.831,0,1.627,0.33,2.214,0.917l1.155,1.155
					"/>
				
					<line style="fill:none;stroke:#FFFFFF;stroke-width:3;stroke-linecap:round;stroke-miterlimit:10;" x1="536.245" y1="359.064" x2="537.726" y2="360.545"/>
			</g>
		</g>
		<g>
			<g>
				<g>
					<g>
						<g>
							<text transform="matrix(1 0 0 1 591.819 128.0805)"><tspan x="0" y="0" style="fill:#FFFFFF; font-family:'Montserrat-Regular'; font-size:9.0484px;">Lorem ipsum dolor</tspan><tspan x="0" y="10.858" style="fill:#FFFFFF; font-family:'Montserrat-Regular'; font-size:9.0484px;">amet, consectetIur</tspan></text>
						</g>
						<path style="fill:none;stroke:#FFFFFF;stroke-width:2;stroke-miterlimit:10;" d="M671.713,88.708h-84.556
							c7.764,0,14.058,6.294,14.058,14.058s-6.294,14.058-14.058,14.058h84.556c7.764,0,14.058-6.294,14.058-14.058
							C685.771,95.002,679.477,88.708,671.713,88.708z"/>
						<path style="fill:none;stroke:#FFFFFF;stroke-width:2;stroke-miterlimit:10;" d="M601.215,102.767
							c0,7.764-6.294,14.058-14.058,14.058c-7.764,0-14.058-6.294-14.058-14.058c0-7.764,6.294-14.058,14.058-14.058
							C594.921,88.708,601.215,95.002,601.215,102.767z"/>
						
							<text transform="matrix(1 0 0 1 604.1091 106.479)" style="fill:#FFFFFF; font-family:'Montserrat-SemiBold'; font-size:10.7749px;">YOUR TITTLE</text>
						
							<text transform="matrix(1 0 0 1 582.2878 106.479)" style="fill:#FFFFFF; font-family:'Montserrat-SemiBold'; font-size:10.7749px;">01</text>
					</g>
				</g>
				<g>
					<polygon style="fill:none;stroke:#FFFFFF;stroke-miterlimit:10;" points="539.546,99.313 544.431,104.155 551.946,96.524 
						547.061,91.682 					"/>
					<g>
						
							<rect x="549.379" y="90.696" transform="matrix(0.704 -0.7102 0.7102 0.704 96.1397 418.2584)" style="fill:none;stroke:#FFFFFF;stroke-miterlimit:10;" width="0.845" height="6.214"/>
						<path style="fill:none;stroke:#FFFFFF;stroke-miterlimit:10;" d="M552.626,95.838c1.337-1.349,1.327-3.526-0.021-4.863
							c-1.349-1.337-3.527-1.327-4.864,0.021l-0.085,0.086l4.885,4.842L552.626,95.838z"/>
					</g>
					<polygon style="fill:none;stroke:#FFFFFF;stroke-miterlimit:10;" points="540.146,99.908 543.831,103.56 532.322,115.202 
						528.636,111.549 					"/>
					<path style="fill:none;stroke:#FFFFFF;stroke-miterlimit:10;" d="M527.844,113.991l2.043,2.025
						c0.199,0.197,0.52,0.196,0.718-0.003l1.257-1.268l-2.764-2.74l-1.257,1.268C527.643,113.473,527.644,113.794,527.844,113.991z"
						/>
					<g>
						<line style="fill:none;stroke:#FFFFFF;stroke-miterlimit:10;" x1="540.429" y1="107.022" x2="538.587" y2="105.196"/>
						<line style="fill:none;stroke:#FFFFFF;stroke-miterlimit:10;" x1="539.254" y1="108.208" x2="538.332" y2="107.295"/>
						<line style="fill:none;stroke:#FFFFFF;stroke-miterlimit:10;" x1="538.078" y1="109.395" x2="536.235" y2="107.568"/>
						<line style="fill:none;stroke:#FFFFFF;stroke-miterlimit:10;" x1="536.902" y1="110.581" x2="535.981" y2="109.668"/>
						<line style="fill:none;stroke:#FFFFFF;stroke-miterlimit:10;" x1="535.726" y1="111.767" x2="533.884" y2="109.94"/>
						<line style="fill:none;stroke:#FFFFFF;stroke-miterlimit:10;" x1="535.726" y1="111.767" x2="533.884" y2="109.94"/>
						<line style="fill:none;stroke:#FFFFFF;stroke-miterlimit:10;" x1="534.55" y1="112.953" x2="533.629" y2="112.04"/>
					</g>
					<g>
						<line style="fill:none;stroke:#FFFFFF;stroke-miterlimit:10;" x1="541.605" y1="105.836" x2="540.684" y2="104.923"/>
					</g>
					<polygon style="fill:none;stroke:#FFFFFF;stroke-miterlimit:10;" points="526.137,116.275 527.593,117.718 529.587,115.719 
						528.131,114.277 					"/>
					<polygon style="fill:none;stroke:#FFFFFF;stroke-miterlimit:10;" points="541.918,94.098 543.303,95.474 546.106,92.646 
						544.722,91.269 					"/>
					<polygon style="fill:none;stroke:#FFFFFF;stroke-miterlimit:10;" points="538.191,95.287 539.5,96.587 545.677,90.305 
						544.369,89.005 					"/>
				</g>
			</g>
		</g>
		<g>
			<g>
				<g>
					<g>
						<g>
							<text transform="matrix(1 0 0 1 591.819 262.5591)"><tspan x="0" y="0" style="fill:#FFFFFF; font-family:'Montserrat-Regular'; font-size:9.0484px;">Lorem ipsum dolor</tspan><tspan x="0" y="10.858" style="fill:#FFFFFF; font-family:'Montserrat-Regular'; font-size:9.0484px;">amet, consectetIur</tspan></text>
						</g>
						<path style="fill:none;stroke:#FFFFFF;stroke-width:2;stroke-miterlimit:10;" d="M671.713,223.186h-84.556
							c7.764,0,14.058,6.294,14.058,14.058c0,7.764-6.294,14.058-14.058,14.058h84.556c7.764,0,14.058-6.294,14.058-14.058
							C685.771,229.48,679.477,223.186,671.713,223.186z"/>
						<path style="fill:none;stroke:#FFFFFF;stroke-width:2;stroke-miterlimit:10;" d="M601.215,237.245
							c0,7.764-6.294,14.059-14.058,14.059c-7.764,0-14.058-6.294-14.058-14.059c0-7.764,6.294-14.058,14.058-14.058
							C594.921,223.186,601.215,229.48,601.215,237.245z"/>
						
							<text transform="matrix(1 0 0 1 604.1091 240.9575)" style="fill:#FFFFFF; font-family:'Montserrat-SemiBold'; font-size:10.7749px;">YOUR TITTLE</text>
						
							<text transform="matrix(1 0 0 1 580.1218 240.9575)" style="fill:#FFFFFF; font-family:'Montserrat-SemiBold'; font-size:10.7749px;">03</text>
					</g>
				</g>
				<g>
					<g>
						<path style="fill:none;stroke:#FFFFFF;stroke-width:1.2;stroke-miterlimit:10;" d="M547.136,223.532
							c-3.25,0-6.041,1.961-7.256,4.765c-1.215-2.803-4.006-4.765-7.256-4.765c-4.366,0-7.905,3.54-7.905,7.906
							c0,11.829,15.162,18.465,15.162,18.465s15.162-7.142,15.162-18.465C555.042,227.071,551.502,223.532,547.136,223.532z"/>
					</g>
				</g>
			</g>
		</g>
	</g>
</g>
</svg>
